<svg xmlns="http://www.w3.org/2000/svg" viewBox="0 0 586.28 434.99">
  <defs>
    <style>
      .cls-1 {
        fill: #4d4c4c;
      }

      .cls-2 {
        fill: #424242;
      }

      .cls-15, .cls-3 {
        fill: #bab9aa;
      }

      .cls-17, .cls-4, .cls-8 {
        fill: #c54950;
      }

      .cls-4 {
        opacity: 0.4;
      }

      .cls-5 {
        fill: #c2e3e5;
      }

      .cls-10, .cls-6 {
        fill: #fff;
      }

      .cls-7 {
        fill: #d8d8d7;
      }

      .cls-14, .cls-9 {
        fill: #a09e8b;
      }

      .cls-10 {
        opacity: 0.27;
      }

      .cls-11 {
        fill: #054959;
      }

      .cls-12 {
        fill: #65b553;
      }

      .cls-13, .cls-16 {
        fill: none;
      }

      .cls-13 {
        stroke: #ffd402;
        stroke-width: 2px;
      }

      .cls-13, .cls-14, .cls-15, .cls-16 {
        stroke-miterlimit: 10;
      }

      .cls-14, .cls-15, .cls-16 {
        stroke: #7f7f78;
      }

      .cls-17 {
        opacity: 0.47;
      }
    </style>
  </defs>
  <g id="Capa_2" data-name="Capa 2">
    <g id="Capa_1-2" data-name="Capa 1">
      <g>
        <rect class="cls-1" y="0.5" width="586.28" height="433.99" transform="translate(586.28 434.99) rotate(-180)"/>
        <g>
          <path class="cls-2" d="M210.75.84v99.67s-6.27,124.35-30.87,203.73-29,87.16-26.8,100.3,6.69,29.95,6.69,29.95H35.85s.18-38.39.4-51.55c.18-10.91-42.06-152-13.49-292.53,2.77-13.33.7-29.2-1.19-40.53s-6.35-49-6.35-49Z"/>
          <path class="cls-3" d="M76.73,345.83c-.81-14.36-22.09-177.24-22.9-186.18s-4.07-45-14.37-54.73-7.85-25.2-7.58-31.17-.54-10,6.77-18.12,13.18-3.19,20.87-1.38c8.39,2,12.85.34,18.15-4.07,6-5.19,6.45-7.94,6.45-7.94,5.75,2,22.09,9.6,28.48,15.1a87.55,87.55,0,0,1,11.45,12.29c-2.23.61-10.82.06-16.3,1.28-10.77,6.71-18.7,22-19.11,23.17,1,.51,5.69,2.33,8.48,5s2.7,4.37,2.29,6.4-3.65,5.69-7.31,11.78-5.3,162.71,2,218.19Z"/>
          <path id="VE" class="cls-4" d="M59.8,95.71s.6-17.55-5-24.69-9.3-5.65-9.59-5.13-3.43,6.62-5,7.51-4.83,4.24-5,6.25,8,39-10.48,86,3,127.6,6.72,149.91,12.91,72,23.91,87.44,7.44,26.34,7.44,26.34H89.55Z"/>
          <path class="cls-5" d="M84.89,39.94s-.4-7.74.94-12a16.33,16.33,0,0,1,7.88-9.37c3-1.34,43.28,29.6,43.28,29.6s-.4,23.4-13.14,21.44C120.78,64,113.64,56,113.64,56l-10.71-7-11-4.93Z"/>
          <path class="cls-6" d="M112.4,57.27a86.85,86.85,0,0,1,11.45,12.29s.67-1-.3-3.52-9.29-11.31-14-14.8c-7.39-5.49-24.69-11.3-24.69-11.3l-.77,2.3C90,44.37,106.08,51.82,112.4,57.27Z"/>
          <path class="cls-3" d="M197.31,86.15c.15-1.49-3.13-3.12-6.55-6A10.45,10.45,0,0,0,188,78.62c-15.91,16.55-10.25,18.85-20.41,15.17-13.68-5-12.56-17.75-12.64-20.5,0-1.22.15-4,.37-6.79-6.38-2-12.7-4-20.3-8.75a48.77,48.77,0,0,1-7.19-5.41h0s-5.74,23,2.78,37.11c5.63,9.34,24.9,31.92,42.39,25.28,4.65-1.77,11.77-11.23,25.46-13.42,1.89-2.82.3-7.74,1.41-11.89C199.39,89.72,197.16,87.64,197.31,86.15Z"/>
          <path id="VI" class="cls-4" d="M90.92,152.37s35.51,67.52,44,100.68,13.86,55.22,14.28,79.72,3.71,75.85-6.7,89.53A88.25,88.25,0,0,1,132,433.75H104.39L89.55,395.23l-1.94-84.77Z"/>
          <path class="cls-7" d="M65.49,330.27c.23,1.71,12.21,43.28,12.21,65.36,0,13.51-4.11,19.83-10.26,26.37.2,4,40.33,4.16,40.33,4.16v-2.45s-6.07-18.92-7.08-28.64c-2.35-22.67.26-28.05,1.8-70.21l-8,26.41"/>
          <path class="cls-8" d="M78.26,356.16s7.46,9,15.85.38,17.59-41.6,17.68-51.82c.65-73,8.79-95.63-12.57-169.75-.71-2.44-6.25-18-7.89-25.43-10.21,13.93-13,25.53-15,37s4.54,106.48,4.54,106.48c-5.94-75.84-9.51-85.36-13.08-99s-8.08-26-8.5-44.47c-10.11,13.38-12.9,94.06-9.92,119.34s3.79,35.58,8.75,68.73S72.83,352,78.25,356"/>
          <path class="cls-9" d="M111.56,433.75a18.86,18.86,0,0,0-9.77-14c-9-4.76-25.63-1.93-27.91-1.14s-5.82,1.14-8.42,4.79c-2.35,3.28-3.93,10.33-3.93,10.33Z"/>
          <path id="SA" class="cls-10" d="M132.08,280.12c-4.66-13.82-11.42-34.45-20.52-65.44-11.84-40.3-18.14-64.54-26.73-90S64.86,48.42,64,33.25,58.17,2,58.17,2h23C94.7,28,99.88,45.87,101.79,69.68s10.66,62.61,35.2,154.23a397.72,397.72,0,0,1,10.59,55.2s7.41,62.67,4.13,93.22-.29,47.89,2.68,61.42h-7.73s-3-42.39-2.09-65.29S137.58,296.41,132.08,280.12Z"/>
          <path class="cls-9" d="M84.79,2a74.12,74.12,0,0,1,3.72,10.86c.89,4.31,6.39,12.05,12,14.87a64.22,64.22,0,0,1,17,12.35c4.61,4.9,7,11,17.7,17.69s18.88,7.89,28.25,11.46,11.45,3.86,14.87,6.09,9.23,2.09,12.65,4.91,6.69,4.46,6.54,6,2.08,3.57,2.53,3.27,6.54-8.92,3-21.41c0,0-29.89-1.34-41-14.13s-13.61-23-17.52-30.19S137.88,12.42,135.8,2Z"/>
          <path class="cls-11" d="M94.12,22.51s-13.43,5.89-17.39,15-9,34.34-9.44,40.16c-1.22,14.55,0,43.89,0,43.89L80.7,134.62s2.7-75.86,4.13-82.28,9.93-24.16,15.72-24.6c5.73-1.44-2.46-8.11-2.46-8.11Z"/>
          <path class="cls-12" d="M63.18,99.12s7.4-17.37,8.58-21.66c8.06-29.26,7.57-43.75,7.85-50.34A105.39,105.39,0,0,0,77.74.84L91.38,2l2.74,4c-7.59,5-4.57,35.57-4.57,60.5,0,17.61,3.43,43,3.43,43,1.69,21.88-1.53,61.31-8.15,73.58-7.09,13.14-3.76,72.65-3.76,72.65-4.18-48.07-4.3-58-16-78.46-11.54-20.24-8.56-51.85-5.75-67.77Z"/>
        </g>
        <line class="cls-13" x1="230.22" y1="117.43" x2="7.39" y2="117.43"/>
        <line class="cls-13" x1="230.22" y1="76.83" x2="7.39" y2="76.83"/>
        <line class="cls-13" x1="230.22" y1="163.04" x2="7.39" y2="163.04"/>
        <line class="cls-13" x1="230.22" y1="209.44" x2="7.39" y2="209.44"/>
        <line class="cls-13" x1="230.22" y1="255.85" x2="7.39" y2="255.85"/>
        <line class="cls-13" x1="230.22" y1="307.63" x2="7.39" y2="307.63"/>
        <line class="cls-13" x1="230.22" y1="349.52" x2="7.39" y2="349.52"/>
        <g>
          <path class="cls-8" d="M269.23,112.68c0,6.64,11.51,9.78,25.71,9.78s27.22-1.51,27.22-8.15-13-15.88-27.22-15.88S269.23,106.05,269.23,112.68Z"/>
          <path class="cls-11" d="M315.6,106.38s1.77,1.24,2,2.54.3,3.72-.34,4.69c-1,1.57-3.26,2.79-6.39,1.7s-2.79-3.4-1.57-3,4.83,1.63,5.52.34a6.29,6.29,0,0,0,.06-5.31C314,105.45,315.6,106.38,315.6,106.38Z"/>
          <path class="cls-12" d="M316.81,106s-1.27-2-6.31-4.22a38.49,38.49,0,0,0-14.81-3.44,70.91,70.91,0,0,0-14,1.81,25.32,25.32,0,0,0-6.66,3.4,9.68,9.68,0,0,0-2.61,2.87,5.15,5.15,0,0,0,2.44-1.09c4.21-3.38,12.61-3.08,18.92-3.34,8.62-.35,12.1.56,21,3.51A14.34,14.34,0,0,0,316.81,106Z"/>
        </g>
        <g>
          <path class="cls-8" d="M278.29,72.64c0,4.36,7.58,6.43,16.92,6.43s17.9-1,17.9-5.36-8.56-10.44-17.9-10.44S278.29,68.27,278.29,72.64Z"/>
          <path class="cls-12" d="M310.2,68.22s-.86-1.34-4.23-2.77A26.31,26.31,0,0,0,296,63.18a49.2,49.2,0,0,0-9.42,1.19,17.44,17.44,0,0,0-4.47,2.24A21.46,21.46,0,0,0,279,70.19c0,.09,3.34-1.29,4.15-1.47,10.46-2.3,10.38,1.92,11.8,2.11,2.94-1.16,9.51-3.7,13.84-2.94C309.53,68,310.2,68.22,310.2,68.22Z"/>
          <path class="cls-11" d="M308.54,67.8s2.25.5,3,1.65,1.78,3.52,1.54,4.72c-.39,1.94-2.13,4-5.67,4.25s-8.79,1-9.85.09c-2.58-2.09-2.87-5.79-2.71-7.33s3.55-3.12,8.32-3.84A16.84,16.84,0,0,1,308.54,67.8Z"/>
        </g>
        <g>
          <path class="cls-8" d="M252.37,163c0,11.83,17.64,17.44,39.39,17.44s41.69-2.7,41.69-14.53-19.93-28.31-41.69-28.31S252.37,151.2,252.37,163Z"/>
          <path class="cls-11" d="M306.34,141.87a9.87,9.87,0,0,1,4,3.58c1.23,2.29,3,6.89,3.08,9.1.08,3.57-1.36,7.23-5.42,7s-5.39-4.77-3.82-4.73,6.23.2,6-2.65a21.2,21.2,0,0,0-3.81-10.09C304,141,306.34,141.87,306.34,141.87Z"/>
          <path class="cls-12" d="M318.7,145.92s-1.87-1.71-8.08-4.54-12.85-4.53-18.24-4.47-14.79,1.47-17.3,2.35-6.71,3-8.22,4.42-2.93,1.2-3.65,2.7c-.09.19,2.25.61,3.44-.4,5.2-4.39,15.54-7.25,23.32-7.58,10.63-.46,19,3.86,25.9,7.8C317,146.87,318.7,145.92,318.7,145.92Z"/>
        </g>
        <g>
          <path class="cls-7" d="M261.5,320.21s1.71,2.42,8,3.58a61.61,61.61,0,0,0,18.25.81,116.62,116.62,0,0,0,16.75-3.71,35.91,35.91,0,0,0,7.67-4c1.36-1.14,3-2.35,2.14-3.26S261.5,320.21,261.5,320.21Z"/>
          <path class="cls-8" d="M256,314.4c.92,7.35,14.28,9.85,31.17,7.74s31.2-8.05,30.29-15.4-16.38-12.54-33.26-10.43S255.08,307.05,256,314.4Z"/>
        </g>
        <g>
          <path class="cls-7" d="M261,265.37s1.74,3.09,8.08,4.83,13,2.49,18.32,1.88,14.38-2.8,16.77-3.81a32.1,32.1,0,0,0,7.66-4.6c1.35-1.35,2.95-2.78,2.12-3.95S261,265.37,261,265.37Z"/>
          <path class="cls-8" d="M255.4,257.9c1,9.17,14.4,12.9,31.32,11.09S318,260.49,317,251.32,300.45,235,283.53,236.78,254.42,248.73,255.4,257.9Z"/>
          <path class="cls-11" d="M287.79,245.24s1.31.52,2.41.87,1.43,2.93,2,3.77c1,1.37,1.9,4.71.22,6.43s-1.54-.43-.9-1.11a3.88,3.88,0,0,0-.1-4c-.85-1-1-4.11-2.77-4.29A1,1,0,0,1,287.79,245.24Z"/>
        </g>
        <g>
          <path class="cls-7" d="M268.65,361.64s-.92,1.68,4.41,2.78,13.87-1.85,18.31-2.44,12.82.15,14.92-.34c4.95-1.15,7.53-2.91,8.66-3.93s.25-1.72-.45-2.55S268.65,361.64,268.65,361.64Z"/>
          <path class="cls-8" d="M266.3,359.61c.83,6.64,10.59,2,24.79.19s27.74,0,26.91-6.63-13.89-11.44-28.09-9.67S265.47,353,266.3,359.61Z"/>
        </g>
        <g>
          <path class="cls-2" d="M376.92,434.42c-2.13-8.28-2.37-19.79,1.41-34.52,3.51-13.66-3.24-33.18-6.33-61.08-12.95-103-13.93-217.66-13.93-217.66L377.91.77H573.28V115.15c-10.6,9.54-18.62,15.37-18.13,26,5.46,135.05-31.91,260-41.13,293.3Z"/>
          <g>
            <path class="cls-14" d="M399.69,434.49a175.41,175.41,0,0,1-5-17A14.05,14.05,0,0,1,397,405.61c2-2.81,5.88-5.65,13-6s1.35,13.69,1.35,13.69a31.77,31.77,0,0,0,.47,21.15Z"/>
            <path class="cls-15" d="M427.47.77c1.54,4.91-.77,6.45-1.81,9.41-.94,2.72-5,8.34-5,11.49,0,10.46,9.59,11.5,10.38,16.29A81.71,81.71,0,0,1,432.31,49l1.58-5.12s2.14-6.86,7.73-10.7,17.76-2,27.79,2.45,10.17,14.18,9.88,24.18-4,9.66-4.15,12.56,4.58,4,6.87,4.54,3.29,7.44,5.16,9.19-1.29,12.32-.72,14,2.44,5.81,14.9,10.47,19.38-.59,23.77-6.17.19-15.66-3.82-20.15-1.91-9.46-1.33-12.1S522.26,68,525.7,68s3.62-4.81,4-5.9.57-2-8-9.14S517.1,37.56,517.87,32s8.4-8.83,8.4-8.83l-4.39,2.79s2.1.93,15.08,1.24,18.43-3,21.87-4,9-6.82,10.31-8.52a30.84,30.84,0,0,1,4.14-4.46V.5Z"/>
            <path class="cls-15" d="M415.86,434.44a8.06,8.06,0,0,1-.74-2.83c0-3.72,2-7.9,4.59-11.63s2.29-49.3,1.72-64-2.3-63.73-2.87-74.66,2.58-79.77,2.58-94,6.87-45.82,9.17-55.12,3.49-26.5,3.43-38.14c0-9.07-4.44-22.79-5.87-28.38s2.58-10.46,4.58-12.79c-1.86-8.95,6.16-15.81,9.31-18.25s12.46-2.1,23.06,1.62,11.75,15.47,10,23.73a67.42,67.42,0,0,1,.29,25.23c-.86,5.23-2.87,13.37-2.3,15.7s1.72,2.21,3,4.65.72,10.58-5.3,14-9.4,4.45-14.77,29.88-6.47,168.69,1.93,213.66,8,39.31,8.86,40.94c3.6,6.69,11.83,8.41,19,13,1.31.84,5.8,8.78,4.54,17.35Z"/>
            <path class="cls-16" d="M432.45,53a19.77,19.77,0,0,1,11.32-5.5c6.68-.62,17-.16,19.86,1.39s10.91,4.67,11.76,7.45"/>
            <path class="cls-16" d="M421.72,19.54a19.72,19.72,0,0,1,10.46-7c6.54-1.52,16.66-1.9,19.87-1.32,5.66,1,10.93,1.11,17,4.54,6.24,3.54,8.49,12.44,8.49,12.44"/>
            <path class="cls-16" d="M461.68,128.71s2.14-11.9,4.15-16.37"/>
          </g>
        </g>
        <g>
          <path class="cls-8" d="M414.65,33.14s8.23,26.26,5.46,38.12S413.9,98,410,138.34s-8.46,138.43-10,167.77c-1.77,33.17-5.87,40.06-1.68,52.68s-4.86,9-4.86,9-8.65-16.32-10-34.27S373,267.73,373.9,252.33s-7.95-108-2.54-127.63S388.64,13.55,414.65,33.14Z"/>
          <path class="cls-11" d="M444.72,30.29c-7.25.6-21.59-9.53-30.07,2.85s-27.78,94.2-26,125.23,2.26,74.35,2.84,99.13c-6.42-13.27-12.3-61.55-13.3-96.66s2.25-80.79,16.17-106.76,24.76-43.37,44.15-40.15S444.72,30.29,444.72,30.29Z"/>
          <path class="cls-17" d="M414.65,33.14s8.23,26.26,5.46,38.12S413.9,98,410,138.34s-8.46,138.43-10,167.77c-1.77,33.17-5.87,40.06-1.68,52.68s-4.86,9-4.86,9-8.65-16.32-10-34.27S373,267.73,373.9,252.33s-7.95-108-2.54-127.63S392.77,12.59,414.65,33.14Z"/>
          <path class="cls-12" d="M419.45.77C417,7.32,404.84,21.21,399.4,30.22c-3.55,5.88-19.91,30.68-23.84,53.4s-5.32,54.58-4.62,77.3.56-9.24,3.88-38.94,9.13-64.9,50.84-111.8C432.46-2,419.45.77,419.45.77Z"/>
        </g>
        <path class="cls-7" d="M396.62,343.9c.13-.63.34,1.26.23,1.89-1.43,8.46,14.1,53.13,16.69,55.31,3.35,2.82-2.81-3.82-10.6-.76-3.36,1.32-8.69,8.71-8.69,8.71s3.43-17.9,0-29.35c-5.3-17.65-10.05-40.08-10.05-40.08s2.95,7.45,5.9,8.4C391.63,348.52,395.42,349.83,396.62,343.9Z"/>
        <path class="cls-7" d="M394.25,307.66c1.91-42.78,7-85.89,8.21-91.39a37.13,37.13,0,0,1,2.71-8.32c-.75,41.1-4,121.14-6,134.28l-.87,7.32s-.69,9.11,0,11.37-5.2-8.45-5.2-8.45L391.6,348s1.07-5.17,2.07-11.93S394.25,307.66,394.25,307.66Z"/>
        <g>
          <path class="cls-7" d="M255.5,216.39s0,3.39,7.08,6,15.73,3.67,22,4,17.82.41,20.79-.09a43.59,43.59,0,0,0,9.79-2.83c1.83-1,3.95-2,3.2-3.19S255.5,216.39,255.5,216.39Z"/>
          <path class="cls-8" d="M253.66,211.05c0,9.47,15.79,14,35.26,14s37.32-2.16,37.32-11.63-17.84-22.65-37.32-22.65S253.66,201.59,253.66,211.05Z"/>
          <path class="cls-12" d="M305.39,193.66s-1-.84-4.77-1.74a50.46,50.46,0,0,0-11.19-1.41,97.15,97.15,0,0,0-10.61.74,27.78,27.78,0,0,0-5,1.4c-.92.45-2,.63-2.44,1.11a12.17,12.17,0,0,0,3.32,0,53.14,53.14,0,0,1,13-1.89,68.24,68.24,0,0,1,16.17,1.57C304.58,193.59,305.39,193.66,305.39,193.66Z"/>
          <path class="cls-11" d="M297.16,199.22A16.69,16.69,0,0,1,302,201c1.75,1.17,2.12,4.29,2.75,5.95,1,2.69,1.41,9.64-2.42,11.39s-4.08-1.72-2.61-2.42,3.57-5.37,2.59-7.43-1.39-5.38-4.36-6.64S297.16,199.22,297.16,199.22Z"/>
        </g>
      </g>
    </g>
  </g>
</svg>
