<svg xmlns="http://www.w3.org/2000/svg" viewBox="0 0 586.81 496.2">
  <defs>
    <style>
      .cls-1 {
        fill: #4d4c4c;
      }

      .cls-2 {
        fill: #424242;
      }

      .cls-15, .cls-3 {
        fill: #bab9aa;
      }

      .cls-17, .cls-4, .cls-8 {
        fill: #c54950;
      }

      .cls-4 {
        opacity: 0.4;
      }

      .cls-5 {
        fill: #c2e3e5;
      }

      .cls-10, .cls-18, .cls-6 {
        fill: #fff;
      }

      .cls-7 {
        fill: #d8d8d7;
      }

      .cls-14, .cls-9 {
        fill: #a09e8b;
      }

      .cls-10 {
        opacity: 0.27;
      }

      .cls-11 {
        fill: #054959;
      }

      .cls-12 {
        fill: #65b553;
      }

      .cls-13, .cls-16 {
        fill: none;
      }

      .cls-13 {
        stroke: #ffd402;
        stroke-width: 2px;
      }

      .cls-13, .cls-14, .cls-15, .cls-16 {
        stroke-miterlimit: 10;
      }

      .cls-14, .cls-15, .cls-16 {
        stroke: #7f7f78;
      }

      .cls-17 {
        opacity: 0.47;
      }

      .cls-18 {
        font-size: 13px;
        font-family: ArialNarrow, Arial;
      }

      .cls-19 {
        letter-spacing: -0.01em;
      }

      .cls-20 {
        letter-spacing: -0.04em;
      }

      .cls-21 {
        letter-spacing: -0.03em;
      }
    </style>
  </defs>
  <g id="Capa_2" data-name="Capa 2">
    <g id="Capa_1-2" data-name="Capa 1">
      <rect class="cls-1" x="0.03" y="0.5" width="586.28" height="433.99" transform="translate(586.35 434.99) rotate(-180)"/>
      <g>
        <path class="cls-2" d="M210.78.84v99.67s-6.27,124.35-30.87,203.73-29,87.16-26.8,100.3,6.69,29.95,6.69,29.95H35.88s.18-38.39.4-51.55c.18-10.91-42.06-152-13.49-292.53,2.78-13.33.7-29.2-1.19-40.53s-6.35-49-6.35-49Z"/>
        <path class="cls-3" d="M76.76,345.83C76,331.47,54.67,168.59,53.86,159.65s-4.06-45-14.36-54.73-7.86-25.2-7.59-31.17-.54-10,6.78-18.12,13.18-3.19,20.86-1.38c8.39,2,12.86.34,18.15-4.07,6-5.19,6.45-7.94,6.45-7.94,5.76,2,22.09,9.6,28.48,15.1a87.27,87.27,0,0,1,11.46,12.29c-2.24.61-10.82.06-16.31,1.28-10.77,6.71-18.7,22-19.1,23.17,1,.51,5.69,2.33,8.48,5s2.7,4.37,2.29,6.4-3.66,5.69-7.32,11.78-5.29,162.71,2,218.19Z"/>
        <path id="VE" class="cls-4" d="M59.84,95.71S60.43,78.16,54.78,71s-9.29-5.65-9.59-5.13-3.42,6.62-5,7.51-4.84,4.24-5,6.25,8,39-10.49,86,3.05,127.6,6.73,149.91,12.9,72,23.91,87.44,7.43,26.34,7.43,26.34H89.58Z"/>
        <path class="cls-5" d="M84.92,39.94s-.39-7.74.94-12a16.3,16.3,0,0,1,7.89-9.37c3-1.34,43.27,29.6,43.27,29.6s-.39,23.4-13.13,21.44C120.81,64,113.68,56,113.68,56L103,49,92,44.08Z"/>
        <path class="cls-6" d="M112.44,57.27a87.55,87.55,0,0,1,11.45,12.29s.67-1-.3-3.52-9.3-11.31-14-14.8c-7.39-5.49-24.69-11.3-24.69-11.3l-.77,2.3C90.07,44.37,106.11,51.82,112.44,57.27Z"/>
        <path class="cls-3" d="M197.34,86.15c.15-1.49-3.12-3.12-6.54-6a10.51,10.51,0,0,0-2.8-1.58c-15.91,16.55-10.24,18.85-20.4,15.17C153.92,88.83,155,76,155,73.29c0-1.22.15-4,.37-6.79-6.38-2-12.71-4-20.3-8.75a48.91,48.91,0,0,1-7.2-5.41h0s-5.74,23,2.79,37.11c5.62,9.34,24.89,31.92,42.38,25.28,4.66-1.77,11.78-11.23,25.47-13.42,1.89-2.82.29-7.74,1.4-11.89C199.42,89.72,197.19,87.64,197.34,86.15Z"/>
        <path id="VI" class="cls-4" d="M91,152.37s35.52,67.52,44,100.68,13.87,55.22,14.28,79.72,3.72,75.85-6.69,89.53A88.25,88.25,0,0,1,132,433.75h-27.6L89.58,395.23l-1.94-84.77Z"/>
        <path class="cls-7" d="M65.52,330.27c.24,1.71,12.22,43.28,12.22,65.36,0,13.51-4.12,19.83-10.27,26.37.2,4,40.34,4.16,40.34,4.16v-2.45s-6.08-18.92-7.09-28.64c-2.35-22.67.27-28.05,1.8-70.21l-8,26.41"/>
        <path class="cls-8" d="M78.3,356.16s7.45,9,15.85.38,17.59-41.6,17.68-51.82c.65-73,8.79-95.63-12.58-169.75-.7-2.44-6.24-18-7.88-25.43-10.21,13.93-13,25.53-15,37S81,253.05,81,253.05c-5.95-75.84-9.52-85.36-13.09-99s-8.08-26-8.5-44.47c-10.11,13.38-12.89,94.06-9.92,119.34s3.8,35.58,8.75,68.73S72.87,352,78.28,356"/>
        <path class="cls-9" d="M111.59,433.75a18.86,18.86,0,0,0-9.77-14c-9-4.76-25.62-1.93-27.9-1.14s-5.83,1.14-8.43,4.79c-2.34,3.28-3.93,10.33-3.93,10.33Z"/>
        <path id="SA" class="cls-10" d="M132.12,280.12c-4.67-13.82-11.43-34.45-20.53-65.44-11.83-40.3-18.14-64.54-26.72-90S64.9,48.42,64,33.25,58.2,2,58.2,2h23c13.58,26,18.76,43.86,20.66,67.67s10.67,62.61,35.2,154.23a396.33,396.33,0,0,1,10.6,55.2s7.4,62.67,4.13,93.22-.3,47.89,2.67,61.42h-7.73s-3-42.39-2.08-65.29S137.62,296.41,132.12,280.12Z"/>
        <path class="cls-9" d="M84.82,2a72.87,72.87,0,0,1,3.72,10.86c.89,4.31,6.4,12.05,12,14.87a64.34,64.34,0,0,1,17,12.35c4.61,4.9,7,11,17.7,17.69s18.89,7.89,28.26,11.46S175,73.1,178.37,75.33s9.22,2.09,12.64,4.91,6.69,4.46,6.54,6,2.09,3.57,2.53,3.27,6.55-8.92,3-21.41c0,0-29.9-1.34-41.05-14.13s-13.61-23-17.51-30.19S137.92,12.42,135.83,2Z"/>
        <path class="cls-11" d="M94.15,22.51s-13.42,5.89-17.39,15-9,34.34-9.44,40.16c-1.21,14.55,0,43.89,0,43.89l13.42,13.05s2.69-75.86,4.13-82.28,9.92-24.16,15.72-24.6c5.72-1.44-2.47-8.11-2.47-8.11Z"/>
        <path class="cls-12" d="M63.22,99.12s7.39-17.37,8.58-21.66c8.06-29.26,7.56-43.75,7.84-50.34A105.73,105.73,0,0,0,77.78.84L91.42,2l2.73,4c-7.58,5-4.57,35.57-4.57,60.5,0,17.61,3.44,43,3.44,43,1.69,21.88-1.54,61.31-8.15,73.58-7.09,13.14-3.76,72.65-3.76,72.65-4.18-48.07-4.31-58-16-78.46-11.54-20.24-8.56-51.85-5.75-67.77Z"/>
      </g>
      <line class="cls-13" x1="230.25" y1="117.43" x2="7.43" y2="117.43"/>
      <line class="cls-13" x1="230.25" y1="76.83" x2="7.43" y2="76.83"/>
      <line class="cls-13" x1="230.25" y1="163.04" x2="7.43" y2="163.04"/>
      <line class="cls-13" x1="230.25" y1="209.44" x2="7.43" y2="209.44"/>
      <line class="cls-13" x1="230.25" y1="255.85" x2="7.43" y2="255.85"/>
      <line class="cls-13" x1="230.25" y1="307.63" x2="7.43" y2="307.63"/>
      <line class="cls-13" x1="230.25" y1="349.52" x2="7.43" y2="349.52"/>
      <g>
        <path class="cls-8" d="M269.26,112.68c0,6.64,11.52,9.78,25.72,9.78s27.21-1.51,27.21-8.15-13-15.88-27.21-15.88S269.26,106.05,269.26,112.68Z"/>
        <path class="cls-11" d="M315.64,106.38s1.77,1.24,2,2.54.29,3.72-.34,4.69c-1,1.57-3.27,2.79-6.4,1.7s-2.79-3.4-1.56-3,4.83,1.63,5.51.34a6.28,6.28,0,0,0,.07-5.31C314.07,105.45,315.64,106.38,315.64,106.38Z"/>
        <path class="cls-12" d="M316.85,106s-1.28-2-6.31-4.22a38.58,38.58,0,0,0-14.81-3.44,70.7,70.7,0,0,0-14,1.81,25.55,25.55,0,0,0-6.67,3.4,9.64,9.64,0,0,0-2.6,2.87,5.13,5.13,0,0,0,2.43-1.09c4.22-3.38,12.61-3.08,18.92-3.34,8.63-.35,12.11.56,21,3.51A14.3,14.3,0,0,0,316.85,106Z"/>
      </g>
      <g>
        <path class="cls-8" d="M278.33,72.64c0,4.36,7.57,6.43,16.91,6.43s17.9-1,17.9-5.36-8.55-10.44-17.9-10.44S278.33,68.27,278.33,72.64Z"/>
        <path class="cls-12" d="M310.23,68.22s-.85-1.34-4.23-2.77a26.31,26.31,0,0,0-9.93-2.27,49.2,49.2,0,0,0-9.42,1.19,17.44,17.44,0,0,0-4.47,2.24,20.58,20.58,0,0,0-3.11,3.58c-.05.09,3.34-1.29,4.15-1.47,10.46-2.3,10.38,1.92,11.79,2.11,2.95-1.16,9.51-3.7,13.84-2.94C309.56,68,310.23,68.22,310.23,68.22Z"/>
        <path class="cls-11" d="M308.57,67.8s2.25.5,3,1.65,1.77,3.52,1.53,4.72c-.39,1.94-2.13,4-5.66,4.25s-8.79,1-9.85.09c-2.58-2.09-2.87-5.79-2.71-7.33s3.54-3.12,8.31-3.84A16.79,16.79,0,0,1,308.57,67.8Z"/>
      </g>
      <g>
        <path class="cls-8" d="M252.41,163c0,11.83,17.63,17.44,39.39,17.44s41.68-2.7,41.68-14.53-19.93-28.31-41.68-28.31S252.41,151.2,252.41,163Z"/>
        <path class="cls-11" d="M306.37,141.87a9.87,9.87,0,0,1,4,3.58c1.23,2.29,3,6.89,3.08,9.1.09,3.57-1.36,7.23-5.41,7s-5.4-4.77-3.82-4.73,6.22.2,6-2.65a21.23,21.23,0,0,0-3.82-10.09C304.06,141,306.37,141.87,306.37,141.87Z"/>
        <path class="cls-12" d="M318.73,145.92s-1.87-1.71-8.07-4.54-12.86-4.53-18.25-4.47-14.78,1.47-17.3,2.35-6.7,3-8.21,4.42-2.93,1.2-3.66,2.7c-.09.19,2.26.61,3.45-.4,5.19-4.39,15.54-7.25,23.31-7.58,10.63-.46,19,3.86,25.9,7.8C317.07,146.87,318.73,145.92,318.73,145.92Z"/>
      </g>
      <g>
        <path class="cls-7" d="M261.54,320.21s1.71,2.42,8,3.58a61.59,61.59,0,0,0,18.25.81,116.44,116.44,0,0,0,16.74-3.71,36.25,36.25,0,0,0,7.68-4c1.36-1.14,3-2.35,2.13-3.26S261.54,320.21,261.54,320.21Z"/>
        <path class="cls-8" d="M256,314.4c.91,7.35,14.28,9.85,31.16,7.74s31.21-8.05,30.29-15.4-16.37-12.54-33.26-10.43S255.11,307.05,256,314.4Z"/>
      </g>
      <g>
        <path class="cls-7" d="M261,265.37s1.74,3.09,8.09,4.83,13,2.49,18.31,1.88,14.38-2.8,16.77-3.81a32.17,32.17,0,0,0,7.67-4.6c1.35-1.35,2.94-2.78,2.11-3.95S261,265.37,261,265.37Z"/>
        <path class="cls-8" d="M255.43,257.9c1,9.17,14.41,12.9,31.32,11.09S318,260.49,317,251.32,300.48,235,283.57,236.78,254.45,248.73,255.43,257.9Z"/>
        <path class="cls-11" d="M287.83,245.24s1.3.52,2.4.87,1.43,2.93,2,3.77c1,1.37,1.91,4.71.23,6.43s-1.55-.43-.9-1.11a3.86,3.86,0,0,0-.11-4c-.84-1-1-4.11-2.76-4.29A1,1,0,0,1,287.83,245.24Z"/>
      </g>
      <g>
        <path class="cls-7" d="M268.69,361.64s-.93,1.68,4.4,2.78S287,362.57,291.41,362s12.81.15,14.92-.34c4.95-1.15,7.52-2.91,8.66-3.93s.24-1.72-.46-2.55S268.69,361.64,268.69,361.64Z"/>
        <path class="cls-8" d="M266.33,359.61c.83,6.64,10.59,2,24.79.19s27.74,0,26.91-6.63-13.88-11.44-28.09-9.67S265.51,353,266.33,359.61Z"/>
      </g>
      <g>
        <path class="cls-2" d="M586.31.77H391L371.1,121.16s1,114.64,13.93,217.66c3.09,27.9,9.85,47.42,6.34,61.08-8.65,33.67,3.7,50.48,11.76,50.48,17.43,0,11.74,1.48,11.74,1.48H521.14s2,4.3,3.94-9.49c1.63-11.42,49.22-150,43.1-301.18-.48-10.67,7.53-16.5,18.13-26"/>
        <g>
          <path class="cls-14" d="M407.71,417.49c1.15,5.09,4.66,17,6.16,19.69s5.53,8.29,8.49,8.2,6.78-1.8,3.3-9.05a31.51,31.51,0,0,1-1.28-23s5.79-14-1.36-13.69-11.07,3.15-13,6A14,14,0,0,0,407.71,417.49Z"/>
          <path class="cls-15" d="M440.5.77c1.55,4.91-.77,6.45-1.8,9.41-.95,2.72-5,8.34-5,11.49,0,10.46,9.58,11.5,10.37,16.29A81,81,0,0,1,445.35,49l1.57-5.12s2.15-6.86,7.74-10.7,17.76-2,27.78,2.45,10.17,14.18,9.88,24.18-4,9.66-4.15,12.56,4.58,4,6.88,4.54,3.29,7.44,5.15,9.19-1.29,12.32-.71,14,2.43,5.81,14.89,10.47,19.38-.59,23.78-6.17.19-15.66-3.82-20.15-1.91-9.46-1.34-12.1S535.29,68,538.73,68s3.63-4.81,4-5.9.57-2-8-9.14S530.14,37.56,530.9,32s8.4-8.83,8.4-8.83l-4.39,2.79s2.1.93,15.09,1.24,18.43-3,21.86-4,9-6.82,10.32-8.52a31.21,31.21,0,0,1,4.13-4.46V.5Z"/>
          <path class="cls-15" d="M490.46,447.54c5-.46,2.86.23,6.12-1.89a11.73,11.73,0,0,0,5.14-6.13c4.58-10.23-1.52-21.38-3.08-22.38-7.2-4.63-15.43-6.35-19-13-.88-1.63-.45,4-8.86-40.94s-7.29-188.23-1.93-213.66,8.76-26.51,14.78-29.88,6.59-11.52,5.3-14-2.44-2.32-3-4.65,1.43-10.47,2.29-15.7a67.2,67.2,0,0,0-.29-25.23c1.72-8.26.58-20-10-23.73S458,32.28,454.8,34.73,443.63,44,445.49,53c-2,2.33-6,7.21-4.58,12.79s5.83,19.31,5.87,28.38c.05,11.64-1.15,28.84-3.44,38.14s-9.17,40.93-9.17,55.12-3.15,83-2.57,94,2.29,60,2.86,74.66.86,60.23-1.72,64-4.58,7.91-4.58,11.63,7,13.49,9.36,14.42,6.87,2.6,9.59,2.48c3.05-.13,5.27.65,6.78.74,18,1.12,17.66,1.14,18.19,1.12C480.32,450.09,478.53,448.64,490.46,447.54Z"/>
          <path class="cls-16" d="M445.49,53a19.76,19.76,0,0,1,11.31-5.5c6.69-.62,17-.16,19.86,1.39s10.92,4.67,11.76,7.45"/>
          <path class="cls-16" d="M434.75,19.54a19.77,19.77,0,0,1,10.47-7c6.53-1.52,16.66-1.9,19.86-1.32,5.66,1,10.94,1.11,17,4.54,6.24,3.54,8.49,12.44,8.49,12.44"/>
          <path class="cls-16" d="M474.72,128.71s2.14-11.9,4.14-16.37"/>
        </g>
      </g>
      <g>
        <path class="cls-8" d="M427.69,33.14s8.22,26.26,5.45,38.12-6.2,26.77-10.09,67.08-8.45,138.43-10,167.77c-1.77,33.17-5.87,40.06-1.67,52.68s-4.87,9-4.87,9-8.65-16.32-10-34.27-10.49-65.78-9.57-81.18-8-108-2.54-127.63S401.68,13.55,427.69,33.14Z"/>
        <path class="cls-11" d="M457.75,30.29c-7.25.6-21.59-9.53-30.06,2.85s-27.79,94.2-26,125.23,2.26,74.35,2.85,99.13c-6.43-13.27-12.31-61.55-13.3-96.66s2.25-80.79,16.17-106.76,24.75-43.37,44.14-40.15S457.75,30.29,457.75,30.29Z"/>
        <path class="cls-17" d="M427.69,33.14s8.22,26.26,5.45,38.12-6.2,26.77-10.09,67.08-8.45,138.43-10,167.77c-1.77,33.17-5.87,40.06-1.67,52.68s-4.87,9-4.87,9-8.65-16.32-10-34.27-10.49-65.78-9.57-81.18-8-108-2.54-127.63S405.81,12.59,427.69,33.14Z"/>
        <path class="cls-12" d="M432.48.77c-2.45,6.55-14.6,20.44-20.05,29.45-3.55,5.88-19.9,30.68-23.83,53.4s-5.33,54.58-4.62,77.3.55-9.24,3.87-38.94S397,57.08,438.7,10.18C445.5-2,432.48.77,432.48.77Z"/>
      </g>
      <path class="cls-7" d="M409.65,343.9c.13-.63.34,1.26.24,1.89-1.44,8.46,14.09,53.13,16.68,55.31,3.36,2.82-2.8-3.82-10.6-.76-3.36,1.32-8.69,8.71-8.69,8.71s3.43-17.9,0-29.35c-5.3-17.65-10-40.08-10-40.08s2.95,7.45,5.89,8.4C404.66,348.52,408.46,349.83,409.65,343.9Z"/>
      <path class="cls-7" d="M407.28,307.66c1.91-42.78,7-85.89,8.21-91.39a36.75,36.75,0,0,1,2.72-8.32c-.76,41.1-4,121.14-6,134.28l-.87,7.32s-.68,9.11,0,11.37-5.19-8.45-5.19-8.45L404.64,348s1.07-5.17,2.06-11.93S407.28,307.66,407.28,307.66Z"/>
      <g>
        <path class="cls-7" d="M255.54,216.39s0,3.39,7.08,6,15.72,3.67,22,4,17.82.41,20.8-.09a43.9,43.9,0,0,0,9.79-2.83c1.83-1,3.95-2,3.19-3.19S255.54,216.39,255.54,216.39Z"/>
        <path class="cls-8" d="M253.69,211.05c0,9.47,15.79,14,35.27,14s37.32-2.16,37.32-11.63S308.44,190.73,289,190.73,253.69,201.59,253.69,211.05Z"/>
        <path class="cls-12" d="M305.43,193.66s-1-.84-4.77-1.74a50.6,50.6,0,0,0-11.19-1.41,97.15,97.15,0,0,0-10.61.74,27.32,27.32,0,0,0-5,1.4c-.93.45-2,.63-2.45,1.11a12.24,12.24,0,0,0,3.33,0,53.05,53.05,0,0,1,13-1.89,68.32,68.32,0,0,1,16.18,1.57C304.62,193.59,305.43,193.66,305.43,193.66Z"/>
        <path class="cls-11" d="M297.2,199.22A16.69,16.69,0,0,1,302,201c1.75,1.17,2.11,4.29,2.75,5.95,1,2.69,1.4,9.64-2.42,11.39s-4.09-1.72-2.61-2.42,3.56-5.37,2.58-7.43-1.39-5.38-4.36-6.64S297.2,199.22,297.2,199.22Z"/>
      </g>
      <rect class="cls-1" y="432.45" width="586.31" height="63.75" transform="translate(586.31 928.66) rotate(-180)"/>
      <text class="cls-18" transform="translate(45.98 463.68)">TENDÓN DIREC<tspan class="cls-19" x="81.12" y="0">T</tspan><tspan x="87.45" y="0">O /</tspan><tspan class="cls-20" x="101.67" y="0"> </tspan><tspan x="104.05" y="0">APONEUROSIS</tspan><tspan class="cls-20" x="182.23" y="0"> </tspan><tspan x="184.62" y="0">ANTERIOR</tspan></text>
      <text class="cls-18" transform="translate(334.4 463.68)">TENDÓN INDIREC<tspan class="cls-19" x="91.77" y="0">T</tspan><tspan x="98.1" y="0">O / SEPTUM CENTRA</tspan><tspan class="cls-21" x="206.48" y="0">L</tspan></text>
      <text class="cls-18" transform="translate(334.7 486.97)">MÚSCULO</text>
      <rect class="cls-12" x="30.77" y="451.33" width="13.3" height="13.3"/>
      <rect class="cls-11" x="319.19" y="451.33" width="13.3" height="13.3"/>
      <rect class="cls-7" x="30.77" y="474.62" width="13.3" height="13.3"/>
      <rect class="cls-8" x="319.49" y="474.62" width="13.3" height="13.3"/>
      <text class="cls-18" transform="translate(45.98 486.97)">APONEUROSIS POSTERIOR</text>
    </g>
  </g>
</svg>
