<svg xmlns="http://www.w3.org/2000/svg" viewBox="0 0 586.28 434.99">
  <defs>
    <style>
      .cls-1 {
        fill: #4d4c4c;
      }

      .cls-2 {
        fill: #424242;
      }

      .cls-15, .cls-3 {
        fill: #bab9aa;
      }

      .cls-17, .cls-4, .cls-8 {
        fill: #c54950;
      }

      .cls-4 {
        opacity: 0.4;
      }

      .cls-5 {
        fill: #c2e3e5;
      }

      .cls-6 {
        fill: #fff;
      }

      .cls-7 {
        fill: #d8d8d7;
      }

      .cls-14, .cls-9 {
        fill: #a09e8b;
      }

      .cls-10 {
        fill: #054959;
      }

      .cls-11, .cls-13 {
        fill: #65b553;
      }

      .cls-11 {
        opacity: 0.8;
      }

      .cls-12, .cls-16 {
        fill: none;
      }

      .cls-12 {
        stroke: #ffd402;
        stroke-width: 2px;
      }

      .cls-12, .cls-14, .cls-15, .cls-16 {
        stroke-miterlimit: 10;
      }

      .cls-14, .cls-15, .cls-16 {
        stroke: #7f7f78;
      }

      .cls-17 {
        opacity: 0.47;
      }
    </style>
  </defs>
  <g id="Capa_2" data-name="Capa 2">
    <g id="Capa_1-2" data-name="Capa 1">
      <g>
        <rect class="cls-1" y="0.5" width="586.28" height="433.99" transform="translate(586.28 434.99) rotate(-180)"/>
        <g>
          <path class="cls-2" d="M26.87.84v99.67s6.26,124.35,30.86,203.73,29,87.16,26.8,100.3-6.69,29.95-6.69,29.95H201.76s-.17-38.39-.39-51.55c-.19-10.91,42-152,13.49-292.53-2.78-13.33-.71-29.2,1.19-40.53s6.35-49,6.35-49Z"/>
          <path class="cls-3" d="M160.88,345.83c.82-14.36,22.1-177.24,22.91-186.18s4.06-45,14.36-54.73,7.86-25.2,7.59-31.17.54-10-6.78-18.12-13.18-3.19-20.86-1.38c-8.4,2-12.86.34-18.16-4.07-6-5.19-6.45-7.94-6.45-7.94-5.75,2-22.08,9.6-28.48,15.1a87.55,87.55,0,0,0-11.45,12.29c2.24.61,10.82.06,16.31,1.28,10.76,6.71,18.69,22,19.1,23.17-1,.51-5.69,2.33-8.48,5s-2.7,4.37-2.29,6.4,3.66,5.69,7.31,11.78,5.3,162.71-2,218.19Z"/>
          <path id="VE" class="cls-4" d="M177.81,95.71s-.6-17.55,5.06-24.69,9.29-5.65,9.59-5.13,3.42,6.62,5,7.51,4.83,4.24,5,6.25-7.95,39,10.49,86-3,127.6-6.73,149.91-12.9,72-23.91,87.44-7.44,26.34-7.44,26.34H148.06Z"/>
          <path class="cls-5" d="M152.73,39.94s.39-7.74-.95-12a16.33,16.33,0,0,0-7.88-9.37c-3-1.34-43.28,29.6-43.28,29.6s.4,23.4,13.14,21.44C116.83,64,124,56,124,56l10.71-7,11-4.93Z"/>
          <path class="cls-6" d="M125.21,57.27a87.55,87.55,0,0,0-11.45,12.29s-.67-1,.3-3.52,9.29-11.31,14-14.8c7.38-5.49,24.69-11.3,24.69-11.3l.76,2.3C147.58,44.37,131.54,51.82,125.21,57.27Z"/>
          <path class="cls-3" d="M40.31,86.15c-.15-1.49,3.12-3.12,6.54-6a10.61,10.61,0,0,1,2.79-1.58C65.56,95.17,59.89,97.47,70.05,93.79c13.68-5,12.57-17.75,12.64-20.5,0-1.22-.15-4-.37-6.79,6.38-2,12.7-4,20.3-8.75a49.46,49.46,0,0,0,7.2-5.41h0s5.74,23-2.79,37.11c-5.62,9.34-24.9,31.92-42.38,25.28C60,113,52.87,103.5,39.18,101.31c-1.89-2.82-.29-7.74-1.4-11.89C38.22,89.72,40.45,87.64,40.31,86.15Z"/>
          <path id="VI" class="cls-4" d="M146.7,152.37s-35.52,67.52-44,100.68-13.87,55.22-14.28,79.72-3.72,75.85,6.69,89.53a88.25,88.25,0,0,0,10.51,11.45h27.59l14.84-38.52L150,310.46Z"/>
          <path class="cls-7" d="M172.13,330.27c-.24,1.71-12.22,43.28-12.22,65.36,0,13.51,4.12,19.83,10.26,26.37-.19,4-40.33,4.16-40.33,4.16v-2.45s6.08-18.92,7.08-28.64c2.35-22.67-.26-28.05-1.79-70.21l8,26.41"/>
          <path class="cls-8" d="M159.35,356.16s-7.45,9-15.85.38-17.59-41.6-17.68-51.82c-.65-73-8.79-95.63,12.58-169.75.7-2.44,6.24-18,7.88-25.43,10.21,13.93,13,25.53,14.95,37s-4.54,106.48-4.54,106.48c1.48-77.68,9.52-85.36,13.09-99s8.07-26,8.49-44.47c10.12,13.38,12.9,94.06,9.93,119.34s-3.8,35.58-8.76,68.73S164.78,352,159.37,356"/>
          <path class="cls-9" d="M126.05,433.75a18.85,18.85,0,0,1,9.78-14c9-4.76,25.62-1.93,27.9-1.14s5.82,1.14,8.43,4.79c2.34,3.28,3.93,10.33,3.93,10.33Z"/>
          <path class="cls-9" d="M152.82,2a73.29,73.29,0,0,0-3.71,10.86c-.9,4.31-6.4,12.05-12.05,14.87a64.34,64.34,0,0,0-17,12.35c-4.61,4.9-7,11-17.7,17.69S83.52,65.67,74.15,69.24,62.7,73.1,59.28,75.33s-9.22,2.09-12.64,4.91-6.69,4.46-6.55,6S38,89.76,37.57,89.46s-6.55-8.92-3-21.41c0,0,29.89-1.34,41.05-14.13s13.61-23,17.51-30.19S99.73,12.42,101.81,2Z"/>
          <path class="cls-10" d="M156.48,150.57c-8.33,48.28.21,102.48.06,115.37-.26,23.25-6.68-36.23-7.92-58.07,0,0-.08-27.63,2.36-55.07s5.56-33.45,5.56-68.66c0-16.34-2.38-34.91-3-37.25-1.8-6.33-10.64-18.71-16.43-19.15-5.73-1.44,2.46-8.11,2.46-8.11l4,2.88s12.42,8.3,16.38,17.43C159.87,39.94,172.73,56.5,156.48,150.57Z"/>
          <path class="cls-11" d="M153.49,209.38c-5.77-12.68-10.55-78-8.86-99.84,0,0,3.43-25.39,3.43-43,0-24.93,3-55.54-4.57-60.5l2.74-4L159.87.84A105.39,105.39,0,0,0,158,27.12c.29,6.59-.21,21.08,7.85,50.34,1.18,4.29,8.58,21.66,8.58,21.66l3.84,10.42c2.82,15.92,1.19,69.67-5,94C173.24,203.57,167.36,239.83,153.49,209.38Z"/>
        </g>
        <line class="cls-12" x1="7.39" y1="117.43" x2="230.22" y2="117.43"/>
        <line class="cls-12" x1="7.39" y1="76.83" x2="230.22" y2="76.83"/>
        <line class="cls-12" x1="7.39" y1="163.04" x2="230.22" y2="163.04"/>
        <line class="cls-12" x1="7.39" y1="209.44" x2="230.22" y2="209.44"/>
        <line class="cls-12" x1="7.39" y1="255.85" x2="230.22" y2="255.85"/>
        <line class="cls-12" x1="7.39" y1="307.63" x2="230.22" y2="307.63"/>
        <line class="cls-12" x1="7.39" y1="349.52" x2="230.22" y2="349.52"/>
        <g>
          <path class="cls-8" d="M316.59,112.68c0,6.64-11.51,9.78-25.71,9.78s-27.22-1.51-27.22-8.15,13-15.88,27.22-15.88S316.59,106.05,316.59,112.68Z"/>
          <path class="cls-10" d="M270.22,106.38s-1.77,1.24-2,2.54-.3,3.72.34,4.69c1,1.57,3.26,2.79,6.39,1.7s2.79-3.4,1.57-3-4.84,1.63-5.52.34a6.29,6.29,0,0,1-.06-5.31C271.78,105.45,270.22,106.38,270.22,106.38Z"/>
          <path class="cls-13" d="M269,106s1.27-2,6.31-4.22a38.49,38.49,0,0,1,14.81-3.44,70.69,70.69,0,0,1,14,1.81,25.23,25.23,0,0,1,6.67,3.4,9.68,9.68,0,0,1,2.61,2.87A5.15,5.15,0,0,1,311,105.3c-4.21-3.38-12.61-3.08-18.92-3.34-8.62-.35-12.1.56-21,3.51A14.34,14.34,0,0,1,269,106Z"/>
        </g>
        <g>
          <path class="cls-8" d="M307.53,72.64c0,4.36-7.58,6.43-16.92,6.43s-17.9-1-17.9-5.36,8.56-10.44,17.9-10.44S307.53,68.27,307.53,72.64Z"/>
          <path class="cls-13" d="M275.62,68.22s.86-1.34,4.23-2.77a26.31,26.31,0,0,1,9.94-2.27,49.31,49.31,0,0,1,9.42,1.19,17.44,17.44,0,0,1,4.47,2.24,21.46,21.46,0,0,1,3.11,3.58c0,.09-3.34-1.29-4.15-1.47-10.46-2.3-10.38,1.92-11.8,2.11-2.94-1.16-9.51-3.7-13.84-2.94C276.29,68,275.62,68.22,275.62,68.22Z"/>
          <path class="cls-10" d="M277.28,67.8s-2.25.5-3,1.65-1.78,3.52-1.54,4.72c.39,1.94,2.13,4,5.67,4.25s8.79,1,9.85.09c2.58-2.09,2.86-5.79,2.71-7.33s-3.55-3.12-8.32-3.84A16.84,16.84,0,0,0,277.28,67.8Z"/>
        </g>
        <g>
          <path class="cls-8" d="M333.45,163c0,11.83-17.64,17.44-39.39,17.44s-41.69-2.7-41.69-14.53,19.93-28.31,41.69-28.31S333.45,151.2,333.45,163Z"/>
          <path class="cls-10" d="M279.48,141.87a9.87,9.87,0,0,0-4,3.58c-1.23,2.29-3,6.89-3.08,9.1-.08,3.57,1.36,7.23,5.42,7s5.39-4.77,3.82-4.73-6.23.2-6-2.65a21.2,21.2,0,0,1,3.81-10.09C281.8,141,279.48,141.87,279.48,141.87Z"/>
          <path class="cls-13" d="M267.12,145.92s1.87-1.71,8.08-4.54,12.85-4.53,18.24-4.47,14.79,1.47,17.3,2.35,6.71,3,8.22,4.42,2.93,1.2,3.65,2.7c.09.19-2.25.61-3.44-.4-5.2-4.39-15.54-7.25-23.32-7.58-10.63-.46-19,3.86-25.9,7.8C268.79,146.87,267.12,145.92,267.12,145.92Z"/>
        </g>
        <g>
          <path class="cls-7" d="M324.32,320.21s-1.71,2.42-8,3.58a61.61,61.61,0,0,1-18.25.81,116.62,116.62,0,0,1-16.75-3.71,35.91,35.91,0,0,1-7.67-4c-1.36-1.14-3-2.35-2.14-3.26S324.32,320.21,324.32,320.21Z"/>
          <path class="cls-8" d="M329.83,314.4c-.92,7.35-14.28,9.85-31.17,7.74s-31.2-8.05-30.29-15.4,16.38-12.54,33.26-10.43S330.74,307.05,329.83,314.4Z"/>
        </g>
        <g>
          <path class="cls-7" d="M324.85,265.37s-1.74,3.09-8.08,4.83-13,2.49-18.32,1.88-14.38-2.8-16.77-3.81a32.1,32.1,0,0,1-7.66-4.6c-1.35-1.35-2.95-2.78-2.12-3.95S324.85,265.37,324.85,265.37Z"/>
          <path class="cls-8" d="M330.42,257.9c-1,9.17-14.4,12.9-31.32,11.09s-31.24-8.5-30.26-17.67,16.53-16.35,33.45-14.54S331.4,248.73,330.42,257.9Z"/>
          <path class="cls-10" d="M298,245.24s-1.31.52-2.41.87-1.43,2.93-2,3.77c-1,1.37-1.9,4.71-.23,6.43s1.55-.43.91-1.11a3.86,3.86,0,0,1,.1-4c.85-1,1-4.11,2.77-4.29A1,1,0,0,0,298,245.24Z"/>
        </g>
        <g>
          <path class="cls-7" d="M317.17,361.64s.92,1.68-4.41,2.78-13.87-1.85-18.31-2.44-12.82.15-14.92-.34c-4.95-1.15-7.53-2.91-8.66-3.93s-.25-1.72.45-2.55S317.17,361.64,317.17,361.64Z"/>
          <path class="cls-8" d="M319.52,359.61c-.83,6.64-10.59,2-24.79.19s-27.74,0-26.91-6.63,13.89-11.44,28.09-9.67S320.35,353,319.52,359.61Z"/>
        </g>
        <g>
          <path class="cls-2" d="M382.92,434.42c-2.13-8.28-2.37-19.79,1.41-34.52,3.51-13.66-3.24-33.18-6.33-61.08-12.95-103-13.93-217.66-13.93-217.66L383.91.77H579.28V115.15c-10.6,9.54-18.62,15.37-18.13,26,5.46,135.05-31.91,260-41.13,293.3Z"/>
          <g>
            <path class="cls-14" d="M405.69,434.49a175.41,175.41,0,0,1-5-17A14.05,14.05,0,0,1,403,405.61c2-2.81,5.88-5.65,13-6s1.35,13.69,1.35,13.69a31.77,31.77,0,0,0,.47,21.15Z"/>
            <path class="cls-15" d="M433.47.77c1.54,4.91-.77,6.45-1.81,9.41-.94,2.72-5,8.34-5,11.49,0,10.46,9.59,11.5,10.38,16.29A81.71,81.71,0,0,1,438.31,49l1.58-5.12s2.14-6.86,7.73-10.7,17.76-2,27.79,2.45,10.17,14.18,9.88,24.18-4,9.66-4.15,12.56,4.58,4,6.87,4.54,3.29,7.44,5.16,9.19-1.29,12.32-.72,14,2.44,5.81,14.9,10.47,19.38-.59,23.77-6.17.19-15.66-3.82-20.15-1.91-9.46-1.33-12.1S528.26,68,531.7,68s3.62-4.81,4-5.9.57-2-8-9.14S523.1,37.56,523.87,32s8.4-8.83,8.4-8.83l-4.39,2.79s2.1.93,15.08,1.24,18.43-3,21.87-4,9-6.82,10.31-8.52a30.84,30.84,0,0,1,4.14-4.46V.5Z"/>
            <path class="cls-15" d="M421.86,434.44a8.06,8.06,0,0,1-.74-2.83c0-3.72,2-7.9,4.59-11.63s2.29-49.3,1.72-64-2.3-63.73-2.87-74.66,2.58-79.77,2.58-94,6.87-45.82,9.17-55.12,3.49-26.5,3.43-38.14c0-9.07-4.44-22.79-5.87-28.38s2.58-10.46,4.58-12.79c-1.86-8.95,6.16-15.81,9.31-18.25s12.46-2.1,23.06,1.62,11.75,15.47,10,23.73a67.42,67.42,0,0,1,.29,25.23c-.86,5.23-2.87,13.37-2.3,15.7s1.72,2.21,3,4.65.72,10.58-5.3,14-9.4,4.45-14.77,29.88-6.47,168.69,1.93,213.66,8,39.31,8.86,40.94c3.6,6.69,11.83,8.41,19,13,1.31.84,5.8,8.78,4.54,17.35Z"/>
            <path class="cls-16" d="M438.45,53a19.77,19.77,0,0,1,11.32-5.5c6.68-.62,17-.16,19.86,1.39s10.91,4.67,11.76,7.45"/>
            <path class="cls-16" d="M427.72,19.54a19.72,19.72,0,0,1,10.46-7c6.54-1.52,16.66-1.9,19.87-1.32,5.66,1,10.93,1.11,17,4.54,6.24,3.54,8.49,12.44,8.49,12.44"/>
            <path class="cls-16" d="M467.68,128.71s2.14-11.9,4.15-16.37"/>
          </g>
        </g>
        <g>
          <path class="cls-8" d="M420.65,33.14s8.23,26.26,5.46,38.12S419.9,98,416,138.34s-8.46,138.43-10,167.77c-1.77,33.17-5.87,40.06-1.68,52.68s-4.86,9-4.86,9-8.65-16.32-10-34.27S379,267.73,379.9,252.33s-7.95-108-2.54-127.63S394.64,13.55,420.65,33.14Z"/>
          <path class="cls-10" d="M450.72,30.29c-7.25.6-21.59-9.53-30.07,2.85s-27.78,94.2-26,125.23,2.26,74.35,2.84,99.13c-6.42-13.27-12.3-61.55-13.3-96.66s2.25-80.79,16.17-106.76,24.76-43.37,44.15-40.15S450.72,30.29,450.72,30.29Z"/>
          <path class="cls-17" d="M420.65,33.14s8.23,26.26,5.46,38.12S419.9,98,416,138.34s-8.46,138.43-10,167.77c-1.77,33.17-5.87,40.06-1.68,52.68s-4.86,9-4.86,9-8.65-16.32-10-34.27S379,267.73,379.9,252.33s-7.95-108-2.54-127.63S398.77,12.59,420.65,33.14Z"/>
          <path class="cls-13" d="M425.45.77C423,7.32,410.84,21.21,405.4,30.22c-3.55,5.88-19.66,30.73-23.84,53.4-6,32.36-8,79-4.26,113.07,2.49,22.59.2-45,3.52-74.71s9.13-64.9,50.84-111.8C438.46-2,425.45.77,425.45.77Z"/>
        </g>
        <path class="cls-7" d="M402.62,343.9c.13-.63.34,1.26.23,1.89-1.43,8.46,14.1,53.13,16.69,55.31,3.35,2.82-2.81-3.82-10.6-.76-3.36,1.32-8.69,8.71-8.69,8.71s3.43-17.9,0-29.35c-5.3-17.65-10.05-40.08-10.05-40.08s2.95,7.45,5.9,8.4C397.63,348.52,401.42,349.83,402.62,343.9Z"/>
        <path class="cls-7" d="M400.25,307.66c1.91-42.78,7-85.89,8.21-91.39a37.13,37.13,0,0,1,2.71-8.32c-.75,41.1-4,121.14-6,134.28l-.87,7.32s-.69,9.11,0,11.37-5.2-8.45-5.2-8.45L397.6,348s1.07-5.17,2.07-11.93S400.25,307.66,400.25,307.66Z"/>
        <g>
          <path class="cls-7" d="M330.32,216.39s0,3.39-7.08,6-15.73,3.67-22,4-17.82.41-20.79-.09a43.59,43.59,0,0,1-9.79-2.83c-1.83-1-3.95-2-3.2-3.19S330.32,216.39,330.32,216.39Z"/>
          <path class="cls-8" d="M332.16,211.05c0,9.47-15.79,14-35.26,14s-37.32-2.16-37.32-11.63,17.84-22.65,37.32-22.65S332.16,201.59,332.16,211.05Z"/>
          <path class="cls-13" d="M280.42,193.66s1-.84,4.77-1.74a50.62,50.62,0,0,1,11.2-1.41,97.15,97.15,0,0,1,10.61.74,27.78,27.78,0,0,1,5,1.4c.92.45,2,.63,2.44,1.11a12.17,12.17,0,0,1-3.32,0,53.14,53.14,0,0,0-13-1.89A68.24,68.24,0,0,0,282,193.45C281.24,193.59,280.42,193.66,280.42,193.66Z"/>
          <path class="cls-10" d="M288.66,199.22a16.69,16.69,0,0,0-4.79,1.78c-1.75,1.17-2.12,4.29-2.75,5.95-1,2.69-1.41,9.64,2.41,11.39s4.09-1.72,2.62-2.42-3.57-5.37-2.59-7.43,1.39-5.38,4.36-6.64S288.66,199.22,288.66,199.22Z"/>
        </g>
      </g>
    </g>
  </g>
</svg>
