<svg xmlns="http://www.w3.org/2000/svg" viewBox="0 0 586.31 496.2">
  <defs>
    <style>
      .cls-1 {
        fill: #4d4c4c;
      }

      .cls-2 {
        fill: #424242;
      }

      .cls-15, .cls-3 {
        fill: #bab9aa;
      }

      .cls-17, .cls-4, .cls-8 {
        fill: #c54950;
      }

      .cls-4 {
        opacity: 0.4;
      }

      .cls-5 {
        fill: #c2e3e5;
      }

      .cls-10, .cls-18, .cls-6 {
        fill: #fff;
      }

      .cls-7 {
        fill: #d8d8d7;
      }

      .cls-14, .cls-9 {
        fill: #a09e8b;
      }

      .cls-10 {
        opacity: 0.27;
      }

      .cls-11 {
        fill: #054959;
      }

      .cls-12 {
        fill: #65b553;
      }

      .cls-13, .cls-16 {
        fill: none;
      }

      .cls-13 {
        stroke: #ffd402;
        stroke-width: 2px;
      }

      .cls-13, .cls-14, .cls-15, .cls-16 {
        stroke-miterlimit: 10;
      }

      .cls-14, .cls-15, .cls-16 {
        stroke: #7f7f78;
      }

      .cls-17 {
        opacity: 0.47;
      }

      .cls-18 {
        font-size: 10px;
        font-family: ArialNarrow, Arial;
      }

      .cls-19 {
        letter-spacing: -0.01em;
      }

      .cls-20 {
        letter-spacing: -0.03em;
      }

      .cls-21 {
        letter-spacing: -0.04em;
      }
    </style>
  </defs>
  <g id="Capa_2" data-name="Capa 2">
    <g id="Capa_1-2" data-name="Capa 1">
      <rect class="cls-1" x="0.03" y="0.5" width="586.28" height="433.99" transform="translate(586.35 434.99) rotate(-180)"/>
      <g>
        <path class="cls-2" d="M26.9.84v99.67s6.27,124.35,30.87,203.73,29,87.16,26.8,100.3-6.69,29.95-6.69,29.95H201.8s-.18-38.39-.4-51.55c-.18-10.91,42.06-152,13.49-292.53-2.78-13.33-.7-29.2,1.19-40.53s6.35-49,6.35-49Z"/>
        <path class="cls-3" d="M160.92,345.83c.81-14.36,22.09-177.24,22.9-186.18s4.07-45,14.36-54.73,7.86-25.2,7.59-31.17.54-10-6.77-18.12-13.19-3.19-20.87-1.38c-8.39,2-12.85.34-18.15-4.07-6-5.19-6.45-7.94-6.45-7.94-5.75,2-22.09,9.6-28.48,15.1A86.85,86.85,0,0,0,113.6,69.63c2.23.61,10.81.06,16.3,1.28,10.77,6.71,18.7,22,19.1,23.17-1,.51-5.69,2.33-8.47,5s-2.7,4.37-2.3,6.4,3.66,5.69,7.32,11.78,5.29,162.71-2,218.19Z"/>
        <path id="VE" class="cls-4" d="M177.84,95.71S177.25,78.16,182.9,71s9.29-5.65,9.59-5.13,3.42,6.62,5,7.51,4.84,4.24,5,6.25-8,39,10.48,86-3.05,127.6-6.73,149.91-12.9,72-23.91,87.44-7.43,26.34-7.43,26.34H148.1Z"/>
        <path class="cls-5" d="M152.76,39.94s.4-7.74-.94-12a16.33,16.33,0,0,0-7.88-9.37c-3-1.34-43.28,29.6-43.28,29.6s.4,23.4,13.14,21.44C116.87,64,124,56,124,56l10.7-7,11-4.93Z"/>
        <path class="cls-6" d="M125.25,57.27A86.85,86.85,0,0,0,113.8,69.56s-.67-1,.29-3.52,9.3-11.31,14-14.8c7.39-5.49,24.69-11.3,24.69-11.3l.77,2.3C147.61,44.37,131.57,51.82,125.25,57.27Z"/>
        <path class="cls-3" d="M40.34,86.15c-.15-1.49,3.12-3.12,6.54-6a10.67,10.67,0,0,1,2.8-1.58c15.91,16.55,10.24,18.85,20.4,15.17,13.69-5,12.57-17.75,12.65-20.5,0-1.22-.16-4-.37-6.79,6.37-2,12.7-4,20.29-8.75a48.38,48.38,0,0,0,7.2-5.41h0s5.74,23-2.78,37.11c-5.63,9.34-24.9,31.92-42.39,25.28C60,113,52.9,103.5,39.22,101.31c-1.89-2.82-.3-7.74-1.41-11.89C38.26,89.72,40.49,87.64,40.34,86.15Z"/>
        <path id="VI" class="cls-4" d="M146.73,152.37s-35.51,67.52-44,100.68-13.86,55.22-14.28,79.72-3.72,75.85,6.69,89.53a88.25,88.25,0,0,0,10.51,11.45h27.6l14.84-38.52L150,310.46Z"/>
        <path class="cls-7" d="M172.16,330.27c-.24,1.71-12.22,43.28-12.22,65.36,0,13.51,4.12,19.83,10.27,26.37-.2,4-40.33,4.16-40.33,4.16v-2.45S136,404.79,137,395.07c2.35-22.67-.27-28.05-1.8-70.21l8,26.41"/>
        <path class="cls-8" d="M159.38,356.16s-7.45,9-15.84.38-17.59-41.6-17.68-51.82c-.66-73-8.8-95.63,12.57-169.75.7-2.44,6.25-18,7.88-25.43,10.22,13.93,13,25.53,15,37s-4.55,106.48-4.55,106.48c5.95-75.84,9.52-85.36,13.09-99s8.08-26,8.5-44.47c10.11,13.38,12.89,94.06,9.92,119.34s-3.79,35.58-8.75,68.73S164.81,352,159.4,356"/>
        <path class="cls-9" d="M126.09,433.75a18.86,18.86,0,0,1,9.77-14c9-4.76,25.62-1.93,27.9-1.14s5.83,1.14,8.43,4.79c2.35,3.28,3.93,10.33,3.93,10.33Z"/>
        <path id="SA" class="cls-10" d="M105.57,280.12c4.66-13.82,11.42-34.45,20.52-65.44,11.83-40.3,18.14-64.54,26.72-90s20-76.29,20.87-91.46S179.48,2,179.48,2H156.53c-13.59,26-18.77,43.86-20.67,67.67s-10.66,62.61-35.2,154.23a397.8,397.8,0,0,0-10.6,55.2s-7.4,62.67-4.13,93.22.3,47.89-2.67,61.42H91s3-42.39,2.08-65.29S100.07,296.41,105.57,280.12Z"/>
        <path class="cls-9" d="M152.86,2a72.87,72.87,0,0,0-3.72,10.86c-.89,4.31-6.39,12.05-12,14.87a64.34,64.34,0,0,0-17,12.35c-4.61,4.9-7,11-17.7,17.69S83.55,65.67,74.19,69.24,62.73,73.1,59.31,75.33s-9.22,2.09-12.64,4.91-6.69,4.46-6.54,6-2.08,3.57-2.53,3.27-6.54-8.92-3-21.41c0,0,29.89-1.34,41-14.13s13.61-23,17.51-30.19S99.77,12.42,101.85,2Z"/>
        <path class="cls-11" d="M143.53,22.51s13.42,5.89,17.39,15,9,34.34,9.44,40.16c1.22,14.55,0,43.89,0,43.89l-13.42,13.05s-2.69-75.86-4.13-82.28-9.92-24.16-15.72-24.6c-5.72-1.44,2.47-8.11,2.47-8.11Z"/>
        <path class="cls-12" d="M174.47,99.12s-7.4-17.37-8.58-21.66c-8.07-29.26-7.57-43.75-7.85-50.34A105.73,105.73,0,0,1,159.9.84L146.27,2l-2.74,4c7.59,5,4.57,35.57,4.57,60.5,0,17.61-3.44,43-3.44,43-1.69,21.88,1.54,61.31,8.15,73.58,7.09,13.14,3.77,72.65,3.77,72.65,4.18-48.07,4.3-58,16-78.46,11.54-20.24,8.56-51.85,5.75-67.77Z"/>
      </g>
      <line class="cls-13" x1="7.43" y1="117.43" x2="230.25" y2="117.43"/>
      <line class="cls-13" x1="7.43" y1="76.83" x2="230.25" y2="76.83"/>
      <line class="cls-13" x1="7.43" y1="163.04" x2="230.25" y2="163.04"/>
      <line class="cls-13" x1="7.43" y1="209.44" x2="230.25" y2="209.44"/>
      <line class="cls-13" x1="7.43" y1="255.85" x2="230.25" y2="255.85"/>
      <line class="cls-13" x1="7.43" y1="307.63" x2="230.25" y2="307.63"/>
      <line class="cls-13" x1="7.43" y1="349.52" x2="230.25" y2="349.52"/>
      <g>
        <path class="cls-8" d="M316.63,112.68c0,6.64-11.52,9.78-25.72,9.78S263.7,121,263.7,114.31s13-15.88,27.21-15.88S316.63,106.05,316.63,112.68Z"/>
        <path class="cls-11" d="M270.25,106.38s-1.77,1.24-2,2.54-.29,3.72.34,4.69c1,1.57,3.27,2.79,6.4,1.7s2.78-3.4,1.56-3-4.83,1.63-5.51.34a6.28,6.28,0,0,1-.07-5.31C271.82,105.45,270.25,106.38,270.25,106.38Z"/>
        <path class="cls-12" d="M269,106s1.28-2,6.31-4.22a38.58,38.58,0,0,1,14.81-3.44,70.7,70.7,0,0,1,14,1.81,25.55,25.55,0,0,1,6.67,3.4,9.77,9.77,0,0,1,2.6,2.87A5.13,5.13,0,0,1,311,105.3c-4.22-3.38-12.62-3.08-18.92-3.34-8.63-.35-12.11.56-21,3.51A14.3,14.3,0,0,1,269,106Z"/>
      </g>
      <g>
        <path class="cls-8" d="M307.56,72.64c0,4.36-7.57,6.43-16.91,6.43s-17.91-1-17.91-5.36,8.56-10.44,17.91-10.44S307.56,68.27,307.56,72.64Z"/>
        <path class="cls-12" d="M275.66,68.22s.85-1.34,4.23-2.77a26.31,26.31,0,0,1,9.93-2.27,49.2,49.2,0,0,1,9.42,1.19,17.44,17.44,0,0,1,4.47,2.24,21,21,0,0,1,3.11,3.58c.05.09-3.34-1.29-4.15-1.47-10.46-2.3-10.38,1.92-11.79,2.11-2.95-1.16-9.51-3.7-13.84-2.94C276.33,68,275.66,68.22,275.66,68.22Z"/>
        <path class="cls-11" d="M277.32,67.8s-2.25.5-3,1.65-1.77,3.52-1.53,4.72c.39,1.94,2.13,4,5.66,4.25s8.79,1,9.85.09c2.58-2.09,2.87-5.79,2.71-7.33s-3.54-3.12-8.32-3.84A16.76,16.76,0,0,0,277.32,67.8Z"/>
      </g>
      <g>
        <path class="cls-8" d="M333.48,163c0,11.83-17.63,17.44-39.39,17.44s-41.68-2.7-41.68-14.53,19.93-28.31,41.68-28.31S333.48,151.2,333.48,163Z"/>
        <path class="cls-11" d="M279.52,141.87a9.87,9.87,0,0,0-4,3.58c-1.23,2.29-3,6.89-3.09,9.1-.08,3.57,1.37,7.23,5.42,7s5.4-4.77,3.82-4.73-6.22.2-6-2.65a21.23,21.23,0,0,1,3.82-10.09C281.83,141,279.52,141.87,279.52,141.87Z"/>
        <path class="cls-12" d="M267.16,145.92s1.87-1.71,8.07-4.54,12.86-4.53,18.25-4.47,14.78,1.47,17.3,2.35,6.7,3,8.21,4.42,2.93,1.2,3.66,2.7c.08.19-2.26.61-3.45-.4-5.19-4.39-15.54-7.25-23.31-7.58-10.63-.46-19,3.86-25.9,7.8C268.82,146.87,267.16,145.92,267.16,145.92Z"/>
      </g>
      <g>
        <path class="cls-7" d="M324.35,320.21s-1.71,2.42-8,3.58a61.59,61.59,0,0,1-18.25.81,116.13,116.13,0,0,1-16.74-3.71,36.25,36.25,0,0,1-7.68-4c-1.36-1.14-3-2.35-2.13-3.26S324.35,320.21,324.35,320.21Z"/>
        <path class="cls-8" d="M329.86,314.4c-.92,7.35-14.28,9.85-31.16,7.74s-31.21-8.05-30.29-15.4,16.37-12.54,33.26-10.43S330.78,307.05,329.86,314.4Z"/>
      </g>
      <g>
        <path class="cls-7" d="M324.88,265.37s-1.73,3.09-8.08,4.83-13,2.49-18.31,1.88-14.38-2.8-16.77-3.81a32.17,32.17,0,0,1-7.67-4.6c-1.35-1.35-2.94-2.78-2.11-3.95S324.88,265.37,324.88,265.37Z"/>
        <path class="cls-8" d="M330.46,257.9c-1,9.17-14.41,12.9-31.33,11.09s-31.23-8.5-30.25-17.67,16.53-16.35,33.44-14.54S331.44,248.73,330.46,257.9Z"/>
        <path class="cls-11" d="M298.06,245.24s-1.3.52-2.4.87-1.43,2.93-2,3.77c-1,1.37-1.91,4.71-.23,6.43s1.55-.43.9-1.11a3.86,3.86,0,0,1,.11-4c.84-1,1-4.11,2.76-4.29A1,1,0,0,0,298.06,245.24Z"/>
      </g>
      <g>
        <path class="cls-7" d="M317.2,361.64s.93,1.68-4.4,2.78-13.88-1.85-18.32-2.44-12.81.15-14.92-.34c-4.95-1.15-7.52-2.91-8.66-3.93s-.24-1.72.46-2.55S317.2,361.64,317.2,361.64Z"/>
        <path class="cls-8" d="M319.55,359.61c-.82,6.64-10.58,2-24.79.19s-27.73,0-26.9-6.63,13.88-11.44,28.09-9.67S320.38,353,319.55,359.61Z"/>
      </g>
      <g>
        <path class="cls-2" d="M358.1.77H553.46l19.85,120.39s-1,114.64-13.93,217.66c-3.09,27.9-9.84,47.42-6.33,61.08,8.64,33.67-3.7,50.48-11.77,50.48-17.42,0-11.74,1.48-11.74,1.48H423.27s-2,4.3-3.93-9.49c-1.64-11.42-49.22-150-43.11-301.18.49-10.67-7.53-16.5-18.13-26"/>
        <g>
          <path class="cls-14" d="M536.7,417.49c-1.15,5.09-4.66,17-6.16,19.69s-5.53,8.29-8.49,8.2-6.77-1.8-3.29-9.05a31.54,31.54,0,0,0,1.27-23s-5.78-14,1.36-13.69,11.08,3.15,13,6A14,14,0,0,1,536.7,417.49Z"/>
          <path class="cls-15" d="M503.91.77c-1.54,4.91.77,6.45,1.8,9.41,1,2.72,5,8.34,5,11.49,0,10.46-9.59,11.5-10.38,16.29A81.71,81.71,0,0,0,499.07,49l-1.58-5.12s-2.15-6.86-7.73-10.7S472,31.24,462,35.66s-10.17,14.18-9.88,24.18,4,9.66,4.15,12.56-4.58,4-6.87,4.54-3.3,7.44-5.16,9.19,1.29,12.32.72,14-2.44,5.81-14.9,10.47-19.38-.59-23.77-6.17-.19-15.66,3.82-20.15,1.91-9.46,1.33-12.1S409.12,68,405.68,68s-3.62-4.81-4-5.9-.57-2,8-9.14,4.59-15.35,3.82-20.94-8.4-8.83-8.4-8.83l4.39,2.79s-2.1.93-15.08,1.24-18.43-3-21.87-4-9-6.82-10.31-8.52a30.84,30.84,0,0,0-4.14-4.46V.5Z"/>
          <path class="cls-15" d="M454,447.54c-5-.46-2.86.23-6.12-1.89a11.75,11.75,0,0,1-5.13-6.13c-4.59-10.23,1.51-21.38,3.07-22.38,7.21-4.63,15.44-6.35,19-13,.88-1.63.46,4,8.86-40.94S481,174.93,475.6,149.5s-8.76-26.51-14.77-29.88-6.59-11.52-5.3-14,2.43-2.32,3-4.65-1.44-10.47-2.3-15.7a67.42,67.42,0,0,1,.29-25.23c-1.72-8.26-.57-20,10-23.73s19.9-4.07,23.06-1.62S500.79,44,498.93,53c2,2.33,6,7.21,4.58,12.79s-5.83,19.31-5.87,28.38c-.06,11.64,1.14,28.84,3.43,38.14s9.17,40.93,9.17,55.12,3.15,83,2.58,94-2.29,60-2.87,74.66-.86,60.23,1.72,64,4.59,7.91,4.59,11.63-7,13.49-9.37,14.42-6.87,2.6-9.59,2.48c-3-.13-5.27.65-6.78.74-18,1.12-17.65,1.14-18.19,1.12C464.09,450.09,465.88,448.64,454,447.54Z"/>
          <path class="cls-16" d="M498.93,53a19.81,19.81,0,0,0-11.32-5.5c-6.68-.62-17-.16-19.86,1.39S456.83,53.54,456,56.32"/>
          <path class="cls-16" d="M509.66,19.54a19.72,19.72,0,0,0-10.46-7c-6.54-1.52-16.66-1.9-19.87-1.32-5.66,1-10.93,1.11-17,4.54-6.24,3.54-8.49,12.44-8.49,12.44"/>
          <path class="cls-16" d="M469.69,128.71s-2.13-11.9-4.14-16.37"/>
        </g>
      </g>
      <g>
        <path class="cls-8" d="M516.72,33.14s-8.22,26.26-5.45,38.12,6.21,26.77,10.09,67.08,8.46,138.43,10,167.77c1.77,33.17,5.87,40.06,1.68,52.68s4.86,9,4.86,9,8.65-16.32,10-34.27,10.5-65.78,9.58-81.18,7.95-108,2.54-127.63S542.73,13.55,516.72,33.14Z"/>
        <path class="cls-11" d="M486.66,30.29c7.25.6,21.59-9.53,30.06,2.85s27.79,94.2,26,125.23-2.26,74.35-2.84,99.13c6.42-13.27,12.3-61.55,13.29-96.66S551,80.05,537.05,54.08,512.29,10.71,492.9,13.93,486.66,30.29,486.66,30.29Z"/>
        <path class="cls-17" d="M516.72,33.14s-8.22,26.26-5.45,38.12,6.21,26.77,10.09,67.08,8.46,138.43,10,167.77c1.77,33.17,5.87,40.06,1.68,52.68s4.86,9,4.86,9,8.65-16.32,10-34.27,10.5-65.78,9.58-81.18,7.95-108,2.54-127.63S538.61,12.59,516.72,33.14Z"/>
        <path class="cls-12" d="M511.93.77c2.46,6.55,14.61,20.44,20.05,29.45,3.55,5.88,19.9,30.68,23.84,53.4s5.32,54.58,4.62,77.3-.56-9.24-3.88-38.94-9.14-64.9-50.85-111.8C498.92-2,511.93.77,511.93.77Z"/>
      </g>
      <path class="cls-7" d="M534.76,343.9c-.13-.63-.34,1.26-.23,1.89,1.43,8.46-14.1,53.13-16.69,55.31-3.35,2.82,2.81-3.82,10.6-.76,3.36,1.32,8.69,8.71,8.69,8.71s-3.43-17.9,0-29.35c5.3-17.65,10-40.08,10-40.08s-2.94,7.45-5.89,8.4C539.75,348.52,536,349.83,534.76,343.9Z"/>
      <path class="cls-7" d="M537.13,307.66c-1.91-42.78-7-85.89-8.21-91.39a37.13,37.13,0,0,0-2.71-8.32c.75,41.1,4,121.14,6,134.28l.87,7.32s.69,9.11,0,11.37,5.2-8.45,5.2-8.45l1.53-4.51s-1.07-5.17-2.07-11.93S537.13,307.66,537.13,307.66Z"/>
      <g>
        <path class="cls-7" d="M330.35,216.39s0,3.39-7.08,6-15.72,3.67-22,4-17.82.41-20.8-.09a43.9,43.9,0,0,1-9.79-2.83c-1.83-1-3.95-2-3.19-3.19S330.35,216.39,330.35,216.39Z"/>
        <path class="cls-8" d="M332.2,211.05c0,9.47-15.79,14-35.27,14s-37.32-2.16-37.32-11.63,17.84-22.65,37.32-22.65S332.2,201.59,332.2,211.05Z"/>
        <path class="cls-12" d="M280.46,193.66s1-.84,4.77-1.74a50.46,50.46,0,0,1,11.19-1.41,97.15,97.15,0,0,1,10.61.74,27.32,27.32,0,0,1,5,1.4c.93.45,2,.63,2.45,1.11a12.24,12.24,0,0,1-3.33,0,53.13,53.13,0,0,0-13-1.89A68.32,68.32,0,0,0,282,193.45C281.27,193.59,280.46,193.66,280.46,193.66Z"/>
        <path class="cls-11" d="M288.69,199.22A16.69,16.69,0,0,0,283.9,201c-1.75,1.17-2.11,4.29-2.75,5.95-1,2.69-1.4,9.64,2.42,11.39s4.08-1.72,2.61-2.42-3.56-5.37-2.59-7.43,1.4-5.38,4.37-6.64S288.69,199.22,288.69,199.22Z"/>
      </g>
      <rect class="cls-1" y="432.45" width="586.31" height="63.75" transform="translate(586.31 928.66) rotate(-180)"/>
      <text class="cls-18" transform="translate(334.7 484.82)">MÚSCULO</text>
      <text class="cls-18" transform="translate(334.7 463.08)">TENDÓN INDIREC<tspan class="cls-19" x="70.6" y="0">T</tspan><tspan x="75.46" y="0">O - SEPTUM CENTRA</tspan><tspan class="cls-20" x="159.28" y="0">L</tspan></text>
      <rect class="cls-12" x="30.77" y="451.33" width="13.3" height="13.3"/>
      <rect class="cls-11" x="319.19" y="451.33" width="13.3" height="13.3"/>
      <rect class="cls-7" x="30.77" y="474.62" width="13.3" height="13.3"/>
      <rect class="cls-8" x="319.49" y="474.62" width="13.3" height="13.3"/>
      <text class="cls-18" transform="translate(45.98 484.82)">APONEUROSIS POSTERIOR</text>
      <text class="cls-18" transform="translate(45.98 462.01)">TENDÓN DIREC<tspan class="cls-19" x="62.4" y="0">T</tspan><tspan x="67.27" y="0">O -</tspan><tspan class="cls-21" x="78.66" y="0"> </tspan><tspan x="80.49" y="0">APONEUROSIS</tspan><tspan class="cls-21" x="140.63" y="0"> </tspan><tspan x="142.46" y="0">ANTERIOR</tspan></text>
    </g>
  </g>
</svg>
