<svg xmlns="http://www.w3.org/2000/svg" xmlns:xlink="http://www.w3.org/1999/xlink" viewBox="0 0 595.28 443.96">
  <defs>
    <style>
      .cls-1 {
        fill: #555454;
      }

      .cls-2 {
        fill: #4d4c4c;
      }

      .cls-3, .cls-8 {
        fill: #bab9aa;
      }

      .cls-3, .cls-6 {
        stroke: #7f7f78;
      }

      .cls-10, .cls-18, .cls-3, .cls-6 {
        stroke-miterlimit: 10;
      }

      .cls-10, .cls-3, .cls-6 {
        stroke-width: 0.25px;
      }

      .cls-4 {
        fill: #c2e3e5;
      }

      .cls-5 {
        fill: #fff;
      }

      .cls-6 {
        fill: #a09e8b;
      }

      .cls-18, .cls-7 {
        fill: none;
      }

      .cls-9 {
        fill: #d8d8d7;
      }

      .cls-10 {
        stroke: #451119;
        fill: url(#Degradado_sin_nombre_25);
      }

      .cls-11, .cls-12 {
        fill: #afafaf;
      }

      .cls-11, .cls-13 {
        opacity: 0.6;
      }

      .cls-14 {
        fill: #c54950;
      }

      .cls-15 {
        fill: #fefcfb;
      }

      .cls-16 {
        fill: #c9cc2e;
      }

      .cls-17 {
        fill: #8d8d8e;
      }

      .cls-18 {
        stroke: #f6e81d;
        stroke-width: 2px;
      }
    </style>
    <linearGradient id="Degradado_sin_nombre_25" data-name="Degradado sin nombre 25" x1="40.04" y1="335.62" x2="76.36" y2="279.92" gradientTransform="matrix(-1, 0, 0, 1, 207.97, 0)" gradientUnits="userSpaceOnUse">
      <stop offset="0" stop-color="#d8d8d7"/>
      <stop offset="0.09" stop-color="#d5b9b9"/>
      <stop offset="0.23" stop-color="#d18c8f"/>
      <stop offset="0.36" stop-color="#ce686d"/>
      <stop offset="0.49" stop-color="#cc4f55"/>
      <stop offset="0.61" stop-color="#ca3f46"/>
      <stop offset="0.7" stop-color="#ca3a41"/>
    </linearGradient>
  </defs>
  <g id="Capa_2" data-name="Capa 2">
    <g id="Capa_1-2" data-name="Capa 1">
      <rect class="cls-1" y="23.7" width="595.28" height="420.26"/>
      <g>
        <g>
          <path class="cls-2" d="M188.66,23.17v93.94s-5.64,117.2-27.75,192-26.08,82.15-24.1,94.53,6,28.23,6,28.23H31.42s.16-36.18.36-48.58C31.94,373-6,240,19.65,107.6c2.49-12.58.63-27.53-1.07-38.21s-5.71-46.22-5.71-46.22Z"/>
          <g>
            <path class="cls-3" d="M74.36,4s1.23,10.66-5,16.6-9.67,5.71-16.61,3.72S40.4,18.17,33.7,25.58s-5.94,11.13-6.19,16.58S25,61.74,34.45,70.66s12.39,41.89,13.14,50.07,12.88,164.84,13.63,178,4.54,18.94-6.12,45.22-4.68,28.84.42,33.6c2.86,2.68,8.42,6.7,20.32,5,7.93-1.24,7.19-3.72,8.93-9.66s.62-6.33,5.82-6.82,6.32,9.29,7.81,11.52,7.68,7.39,19.33,5.31,12.4-21.42,10.66-27.12S100.44,331.79,93.75,281,79.25,87.52,82.6,81.94,88.92,73,89.29,71.16s.45-3.44-2.1-5.86-6.82-4.09-7.75-4.55c.37-1.12,7.62-15.06,17.47-21.19,5-1.12,11.71.37,13.76-.19s3.72-8.36-4-20.63S81.05,4.24,74.36,4Z"/>
            <path class="cls-4" d="M96.73,4.61S106,12.88,108.9,17.25s7.57,18.22,7.57,18.22l-5.8,3.9-6.14-9.76L93.1,20l-15-7.25-2.85-1-1-1.67L74.36,4Z"/>
            <path class="cls-5" d="M98.52,27.66C94.52,23.73,86.5,17,80.06,15s-6.67-1.23-6.67-1.23l.81-3.7S85.51,13.16,90.84,16s18.09,16.48,19.08,18.59a10.51,10.51,0,0,1,.75,4.77h-1.86S106.08,35.09,98.52,27.66Z"/>
            <path class="cls-6" d="M59.67,431.9H49.44s-1-8.55-6.63-14.31-6.13-11.37-5.57-13.92,4.64-6.53,9.2-6.07,7.34-1.21,10.22,1.68S68.28,417.4,68.28,417.4a12.24,12.24,0,0,0-4.83,3.25c-1.67,2.14-3.53,4.65-3.72,6.42A42.83,42.83,0,0,0,59.67,431.9Z"/>
            <path class="cls-3" d="M69.4,431.56s-6.2-19.83-14.63-29.25-3.71-26.52-3.71-26.52a58.33,58.33,0,0,0,10.41,7.53c4,2.16,15.12,2.07,18.83,0a28.05,28.05,0,0,0,6.89-6s0,2.72,1.91,3.71c1.62.84,6.57-.49,6.32-3.71s0,12.14,30.19,6c2.72,4.95-2.18,15.27-3.66,18s-12.89,15.37-16.36,30.24Z"/>
            <g>
              <path class="cls-7" d="M162.84,56.91c-1.61,3.34-5.45,5.45-12.39,4.71s-12.64-5.46-13.76-15.87a28.82,28.82,0,0,1,.51-9.14c7.32,1.92,18.16,7,21.52,9.27,1.25.85,2.84,1.87,4.44,2.9C163.33,52.88,163.28,56,162.84,56.91Z"/>
              <path class="cls-8" d="M110.7,3.12c8.6-3.8,31,18.78,31,18.78l-.13.79c-5-3.46-26.66-1.91-30.6-1.59a28.15,28.15,0,0,0-4.56-7c-.61-.67-8.71-8.77-10.56-9.49C93.65,3.74,109.19,3.78,110.7,3.12Z"/>
              <path class="cls-3" d="M118.8,30.63A44,44,0,0,0,134.51,36c.82.13,1.73.34,2.69.59a28.82,28.82,0,0,0-.51,9.14c1.12,10.41,6.82,15.12,13.76,15.87s10.78-1.37,12.39-4.71c.44-.91.49-4,.32-8.13,3.29,2.11,6.68,4.28,7.55,5.28a22.68,22.68,0,0,0,5,3.38c-2.2,5.56-4.31,10.1-5.94,12-5.7,6.48-12.92,11.93-27,9.45s-27-19.58-27.76-23.3c-.34-1.7-2.71-3.44-2.67-8.36,0-4.19,2.66-10.79.66-20.26a25,25,0,0,0-1-3.22.55.55,0,0,0,.17.05C113.39,23.85,115.4,28.59,118.8,30.63Z"/>
              <path class="cls-6" d="M141.52,22.69a2.49,2.49,0,0,1,.84.88c2.7,5,10,10.38,16.36,12.45.6.2,1.89.64,3.65,1.15A64.78,64.78,0,0,0,170.53,39c5.95.94,7.06,2.79,7.81,6.32.44,2.09-.5,6-1.34,8.79-.58,2-1.11,3.42-1.11,3.42l-.17-.09a22.68,22.68,0,0,1-5-3.38c-.87-1-4.26-3.17-7.55-5.28-1.6-1-3.19-2.05-4.44-2.9-3.36-2.3-14.2-7.35-21.52-9.27-1-.25-1.87-.46-2.69-.59a44,44,0,0,1-15.71-5.39c-3.4-2-5.41-6.78-6.61-6.88a.55.55,0,0,1-.17-.05c-1.1-.3-1.72-2.55-1.72-2.55l.62,0C114.86,20.78,136.5,19.23,141.52,22.69Z"/>
            </g>
            <path class="cls-9" d="M90.24,255.34c-.1.38-1.57,1.87-1.57,1.48-.09-11.78,1.55-52.88,13.89-98.55,15-55.74,15.36-93.09,16.83-102l16.1,13.56s.27,23.53,1.34,39.58-20.36,70.28-24,101.32C109.72,238.05,94,240.9,90.24,255.34Z"/>
            <path class="cls-10" d="M93.68,312.86c4.32,9.85,19.18,17.75,15.44,67.27-.63,8.29-7.94,28.21-7.82,32.67s4.24,3.51,5.72,3.51a72.36,72.36,0,0,0,5.5-12.64c3.89-11.15,11.9-38.41,12.28-49.2S143.69,284.92,148,256c4.06-27.42,5.43-50.59,1-71.46-4.59-21.57-12.64-48.33-11.89-77l-.3.94.06.86c1.07,16-20.36,70.28-24,101.32-2.83,24.5-18.28,26.6-24.25,44.86C87.89,257.81,86.35,296.14,93.68,312.86Z"/>
            <path id="BF_PC" data-name="BF PC" class="cls-11" d="M54.53,163.26,72.74,310.13s-7.87,27.72-11.52,34.57S47,367.08,50.58,392.86a6.92,6.92,0,0,1-.14,1.67c.18,3.53-.22,2.87-.22,2.87S51.39,400.78,49,394c-4.41-12.4-12.64-39.2-23.83-91.52C17.92,225,54.53,163.26,54.53,163.26Z"/>
            <g>
              <path id="BF_PL" data-name="BF PL" class="cls-11" d="M116.05,95.5c-27,62.31-27.67,138.38-27.5,176.06.18,42.94-14.51,46.9-29,75s-8.77,50.1-8.77,50.1-2.3-6.29-2.3.78C35.17,366.18,33.33,292.57,40.4,252S61.59,155.37,93,113.55s28.44-44.16,28.44-44.16l-4.27,26"/>
              <path id="BF_INS" data-name="BF INS" class="cls-12" d="M120.13,59l10.09,10.41s-3.17,1.75-7.61,13.53c-1.84,4.39-25.6,51.27-31,120,0,0-2.86,42.29-2.94,52.7s-2.32,4.64-3.06-3.17,2.09-74.16,13.2-112.1c9.91-33.83,10.65-34.7,10.13-37.58s-4.59-2.09-5.2-1.39A104.18,104.18,0,0,1,96.11,109s19.55-28.33,21.79-37.91C120.83,62.48,120.13,59,120.13,59Z"/>
              <path id="BF_INS_DISTAL" data-name="BF INS DISTAL" class="cls-12" d="M46,229.53c-5.33,0-9,41.93-10.61,78.32a357.65,357.65,0,0,0,1.07,42c1.06,7.06,5.7,20.69,6.76,34s-4.9,13.38-4.53,17.28c8.62-6.81,14.07-.86,14.07-.86a139.59,139.59,0,0,0-4.4-15.87C45.47,375.79,44,361.87,41,338.73a428.34,428.34,0,0,1,1.21-49.53C44.48,263.48,48.22,229.53,46,229.53Z"/>
            </g>
          </g>
          <g>
            <g class="cls-13">
              <path id="ST" class="cls-12" d="M107.84,310.29c-13.54-9.43-24.06-66.38-11.12-144.45,9.3-46.92,13.64-54.47,21.13-72.22,8-18.92,9.42-24.43,10.44-26.94,1.54,2,2.81,1.75,6.22,4.61-.62,5.06-6.44,23.29-6.28,28.4.35,10.79,4,58.65,3.42,74.91-1.31,37-12.13,112.58-7.74,134.79,5.37,27.23-.2,22.38-3.19,22.12S118.38,317.62,107.84,310.29Z"/>
            </g>
            <path class="cls-12" d="M128.24,66.47l3.41,2.92s-4.59,11.66-6.37,17.55-8.54,21.27-10.77,24.08c-2.84,4.24-4.09,4.51-6.59,7.9,0-2.55,4.47-12.23,10.4-26.72S128.24,66.47,128.24,66.47Z"/>
            <path class="cls-12" d="M121.53,285.72c-.92,7.18,1.73,28.43,2.83,41.93s-.13,36.7-1.42,49.07a126.78,126.78,0,0,1-11.81,40.85c-1.22,2.35,3,1.64,6.47-2.85s11.5-23.6,11.67-57.55c.16-28.92-4.8-74.74-6-76.69S122.07,281.46,121.53,285.72Z"/>
          </g>
        </g>
        <g>
          <path class="cls-2" d="M579.15,23.17v93.94s-5.63,117.2-27.75,192-26.07,82.15-24.09,94.53,6,28.23,6,28.23H421.92s.15-36.18.35-48.58C422.44,373,384.46,240,410.14,107.6c2.5-12.58.64-27.53-1.07-38.21s-5.7-46.22-5.7-46.22Z"/>
          <g>
            <path class="cls-3" d="M464.85,4s1.24,10.66-5,16.6-9.66,5.71-16.6,3.72-12.4-6.14-19.09,1.27-5.95,11.13-6.2,16.58-2.47,19.58,6.94,28.5,12.4,41.89,13.14,50.07,12.89,164.84,13.63,178,4.54,18.94-6.11,45.22-4.68,28.84.41,33.6c2.86,2.68,8.43,6.7,20.33,5,7.93-1.24,7.19-3.72,8.92-9.66s.62-6.33,5.83-6.82,6.32,9.29,7.8,11.52,7.69,7.39,19.34,5.31,12.39-21.42,10.66-27.12S490.94,331.79,484.25,281s-14.5-193.52-11.16-199.1,6.32-8.92,6.7-10.78.45-3.44-2.1-5.86-6.83-4.09-7.76-4.55c.37-1.12,7.63-15.06,17.48-21.19,5-1.12,11.71.37,13.75-.19s3.72-8.36-4-20.63S471.54,4.24,464.85,4Z"/>
            <path class="cls-4" d="M487.22,4.61s9.3,8.27,12.18,12.64S507,35.47,507,35.47l-5.81,3.9L495,29.61,483.6,20l-15-7.25-2.85-1-1.06-1.67.16-6.1Z"/>
            <path class="cls-5" d="M489,27.66C485,23.73,477,17,470.55,15s-6.66-1.23-6.66-1.23l.8-3.7S476,13.16,481.33,16s18.1,16.48,19.09,18.59a10.58,10.58,0,0,1,.74,4.77h-1.85S496.58,35.09,489,27.66Z"/>
            <path class="cls-6" d="M450.17,431.9H439.94s-1-8.55-6.63-14.31-6.13-11.37-5.58-13.92,4.65-6.53,9.21-6.07,7.34-1.21,10.22,1.68,11.62,18.12,11.62,18.12a12.24,12.24,0,0,0-4.83,3.25c-1.68,2.14-3.54,4.65-3.72,6.42A42.83,42.83,0,0,0,450.17,431.9Z"/>
            <path class="cls-3" d="M459.89,431.56s-6.19-19.83-14.62-29.25-3.72-26.52-3.72-26.52A58.77,58.77,0,0,0,452,383.32c4,2.16,15.12,2.07,18.84,0a28.05,28.05,0,0,0,6.89-6s0,2.72,1.91,3.71c1.61.84,6.57-.49,6.32-3.71s0,12.14,30.18,6c2.73,4.95-2.17,15.27-3.66,18s-12.89,15.37-16.36,30.24Z"/>
            <g>
              <path class="cls-7" d="M553.34,56.91c-1.61,3.34-5.45,5.45-12.39,4.71s-12.64-5.46-13.76-15.87a28.53,28.53,0,0,1,.51-9.14c7.32,1.92,18.15,7,21.52,9.27,1.25.85,2.83,1.87,4.44,2.9C553.83,52.88,553.78,56,553.34,56.91Z"/>
              <path class="cls-8" d="M501.19,3.12c8.6-3.8,31,18.78,31,18.78l-.14.79c-5-3.46-26.66-1.91-30.59-1.59a28.43,28.43,0,0,0-4.56-7c-.61-.67-8.71-8.77-10.56-9.49C484.15,3.74,499.69,3.78,501.19,3.12Z"/>
              <path class="cls-3" d="M509.29,30.63A44.13,44.13,0,0,0,525,36c.81.13,1.72.34,2.69.59a28.53,28.53,0,0,0-.51,9.14C528.31,56.16,534,60.87,541,61.62s10.78-1.37,12.39-4.71c.44-.91.49-4,.32-8.13,3.29,2.11,6.68,4.28,7.55,5.28a22.68,22.68,0,0,0,5,3.38c-2.2,5.56-4.32,10.1-5.94,12-5.7,6.48-12.92,11.93-27,9.45s-27-19.58-27.76-23.3c-.34-1.7-2.7-3.44-2.66-8.36,0-4.19,2.66-10.79.66-20.26a25,25,0,0,0-1-3.22.49.49,0,0,0,.16.05C503.89,23.85,505.9,28.59,509.29,30.63Z"/>
              <path class="cls-6" d="M532,22.69a2.44,2.44,0,0,1,.85.88c2.7,5,10,10.38,16.36,12.45.59.2,1.88.64,3.65,1.15A65,65,0,0,0,561,39c6,.94,7.07,2.79,7.81,6.32.44,2.09-.49,6-1.33,8.79-.58,2-1.12,3.42-1.12,3.42l-.16-.09a22.68,22.68,0,0,1-5-3.38c-.87-1-4.26-3.17-7.55-5.28-1.61-1-3.19-2.05-4.44-2.9-3.37-2.3-14.2-7.35-21.52-9.27-1-.25-1.88-.46-2.69-.59a44.13,44.13,0,0,1-15.72-5.39c-3.39-2-5.4-6.78-6.61-6.88a.49.49,0,0,1-.16-.05c-1.1-.3-1.73-2.55-1.73-2.55l.63,0C505.35,20.78,527,19.23,532,22.69Z"/>
            </g>
            <path class="cls-12" d="M480.74,255.34c-.1.38-1.58,1.87-1.58,1.48-.09-11.78,1.56-52.88,13.89-98.55,15.05-55.74,15.36-93.09,16.84-102L526,69.82s.26,23.53,1.33,39.58S507,179.68,503.38,210.72C500.21,238.05,484.52,240.9,480.74,255.34Z"/>
            <path class="cls-11" d="M484.18,312.86c4.32,9.85,19.17,17.75,15.43,67.27-.62,8.29-7.94,28.21-7.81,32.67s4.23,3.51,5.72,3.51a73.94,73.94,0,0,0,5.5-12.64c3.89-11.15,11.9-38.41,12.27-49.2s18.9-69.55,23.18-98.45c4.07-27.42,5.43-50.59,1-71.46-4.59-21.57-12.64-48.33-11.9-77l-.29.94c0,.29,0,.58.05.86,1.07,16-20.35,70.28-23.94,101.32-2.84,24.5-18.28,26.6-24.26,44.86C478.39,257.81,476.85,296.14,484.18,312.86Z"/>
            <path id="BF_PC-2" data-name="BF PC" class="cls-11" d="M445,163.26l18.22,146.87s-7.87,27.72-11.53,34.57-14.24,22.38-10.64,48.16a6.43,6.43,0,0,1-.14,1.67c.19,3.53-.21,2.87-.21,2.87s1.17,3.38-1.24-3.38c-4.42-12.4-12.65-39.2-23.83-91.52C408.41,225,445,163.26,445,163.26Z"/>
            <g>
              <path id="BF_PL-2" data-name="BF PL" class="cls-11" d="M506.55,95.5c-27,62.31-27.67,138.38-27.51,176.06.19,42.94-14.51,46.9-29,75s-8.77,50.1-8.77,50.1-2.29-6.29-2.29.78c-13.3-31.24-15.14-104.85-8.08-145.38s21.2-96.67,52.61-138.49S512,69.39,512,69.39l-4.27,26"/>
              <path id="BF_INS-2" data-name="BF INS" class="cls-12" d="M510.63,59l10.09,10.41s-3.18,1.75-7.62,13.53c-1.83,4.39-25.6,51.27-31,120,0,0-2.85,42.29-2.94,52.7s-2.31,4.64-3.05-3.17,2.09-74.16,13.2-112.1c9.9-33.83,10.65-34.7,10.13-37.58s-4.6-2.09-5.21-1.39A102,102,0,0,1,486.6,109s19.55-28.33,21.8-37.91C511.33,62.48,510.63,59,510.63,59Z"/>
              <path id="BF_INS_DISTAL-2" data-name="BF INS DISTAL" class="cls-12" d="M436.53,229.53c-5.34,0-9,41.93-10.61,78.32a357.65,357.65,0,0,0,1.07,42c1.05,7.06,5.7,20.69,6.75,34s-4.89,13.38-4.52,17.28c8.61-6.81,14.07-.86,14.07-.86a142.19,142.19,0,0,0-4.4-15.87c-2.92-8.61-4.4-22.53-7.38-45.67a429.72,429.72,0,0,1,1.22-49.53C435,263.48,438.72,229.53,436.53,229.53Z"/>
            </g>
          </g>
          <g>
            <path id="ST-2" data-name="ST" class="cls-14" d="M498.34,310.29c-13.55-9.43-24.07-66.38-11.13-144.45,9.3-46.92,13.64-54.47,21.13-72.22,8-18.92,9.42-24.43,10.45-26.94,1.54,2,2.81,1.75,6.22,4.61-.63,5.06-6.44,23.29-6.28,28.4.34,10.79,4,58.65,3.42,74.91-1.32,37-12.13,112.58-7.75,134.79,5.38,27.23-.2,22.38-3.18,22.12S508.87,317.62,498.34,310.29Z"/>
            <path class="cls-9" d="M518.74,66.47l3.41,2.92s-4.59,11.66-6.37,17.55S507.24,108.21,505,111c-2.84,4.24-4.1,4.51-6.59,7.9,0-2.55,4.47-12.23,10.4-26.72S518.74,66.47,518.74,66.47Z"/>
            <path class="cls-9" d="M512,285.72c-.92,7.18,1.74,28.43,2.83,41.93s-.12,36.7-1.41,49.07a126.78,126.78,0,0,1-11.81,40.85c-1.22,2.35,3,1.64,6.47-2.85s11.49-23.6,11.67-57.55c.15-28.92-4.8-74.74-6-76.69S512.57,281.46,512,285.72Z"/>
          </g>
        </g>
        <g>
          <path class="cls-15" d="M306.32,99.45c3,0,4.36-.26,4.28-1.38s-2.33-2.6-4.28-3.73-4.11-2.25-5-2-2.38,1.91-.48,4.46S303.86,99.44,306.32,99.45Z"/>
          <path class="cls-16" d="M282.3,94.8c3.28-1.85,5.19-3.28,8.71-3s6.12,2.79,3.64,4.08-4.13.71-5.33.77-4.08,1.1-5.35,1.27-4.85-.85-3.17-2.39A5.77,5.77,0,0,1,282.3,94.8Z"/>
          <path class="cls-14" d="M319.44,83.87c3.29,1.09,9.09,5.44,9.78,6.62s2.16,3.77-2.34,2.81A14.47,14.47,0,0,0,317,94.43c-2.42,1.13-5.8,1.73-8.57-.52s-8.31-8.14-2.16-9.35S318.2,83.46,319.44,83.87Z"/>
          <path class="cls-15" d="M306.75,87.16c-.13,2-.08,2.72,1.61,4.63s3.85,4.76.43,3.38-6.75-4-8.36-4.68,1.17-4.37,2.43-4.8S306.88,85.21,306.75,87.16Z"/>
        </g>
        <g>
          <path class="cls-15" d="M296,126.29s-6-.67-9.93,2.56-13.1,20.72-12.74,25.43,3.46,6.34,3.46,6.34,22.27-7.88,25.77-6.94,22.28.61,29.75-7.13,3.56-8.56,3.52-11.46C334.35,135.22,296,126.29,296,126.29Z"/>
          <path class="cls-14" d="M309.71,122.34c4.49,0,16,.36,23,7s3.05,12.93,0,16-12.21,7.36-18.67,7.53c-2.87,0-3.18-1-4-1.16a10,10,0,0,0-3.86.67,8.2,8.2,0,0,1-3.77.27c-.72-.13-3.09-.36-3.86-4.94s-2.51-5-3.05-6.5a34,34,0,0,0-2.06-6.15c-1.89-4.35-1.62-2.11-1.26-7.58S309.71,122.34,309.71,122.34Z"/>
          <path class="cls-17" d="M291.41,136.34c.88,2.67,2.51,6.82,3.32,8.8s2.15,5,0,5.83a29.85,29.85,0,0,1-8.15,1.88c-4,.45-7.91,2.34-10.16,3.06s-5.65,4.12-4.48-3.41,5.29-17.68,8.07-20.28,5.83-5.57,8.08-5.3a3.24,3.24,0,0,1,2.87,3.23C291,131.14,290.78,134.44,291.41,136.34Z"/>
          <path class="cls-14" d="M331.2,127.77s5.37-.87,7,2.29-1.28,11.31-1.28,11.31S339.08,131.81,331.2,127.77Z"/>
          <ellipse class="cls-16" cx="296.87" cy="152.56" rx="4.1" ry="2.22"/>
        </g>
        <g>
          <path class="cls-14" d="M313.12,303.73c-4.13.31-12.8-.48-16.14-1.91a6.83,6.83,0,0,1-4.21-5.33c0-.79,1.35-8.18,4.85-12.56a114.7,114.7,0,0,0,8.82-12.72c1.67-2.94,8.11-6.44,13.2-6.91s15.82.31,17.41,3.89,3.16,13.22,1.2,18C336,291.71,329.53,302.49,313.12,303.73Z"/>
          <path class="cls-14" d="M352.68,323.68a120.69,120.69,0,0,1-27.66,0c-10-1.07-17.06-1.43-16.58-5.84s1.76-8.49,10.49-13.16,19.4-8.43,21.95-27.74c1.59-9.62,2.26-8.95,8.11-7.52s16.81,11.39,19.49,15.92,3.32,5.47,4.2,15.09,2.18,10.37-5,16.81S358.63,323.06,352.68,323.68Z"/>
          <path class="cls-15" d="M247.86,286.24h-1.92s-3.56,10.79-5.41,16.51-1.37,6,0,6.62,19.57,5.25,19.57,5.25l1.44-6.36Z"/>
          <path class="cls-15" d="M334.14,287.55c1.31-1.66,3.1-4.17,2.38-6.38s-1.9-3-4.17-3.1a18.1,18.1,0,0,0-7.87,1.13c-1.19-.06-1.19-.12-.42-.59S330.62,275,334.2,276s4.41,3.75,4.35,6.26-4.05,6.87-6.14,8.23-1.67.43-1.37,0S333.35,288.54,334.14,287.55Z"/>
          <path class="cls-17" d="M265.51,343.48c-3.11-6-7.63-14.43-9.9-17.17s-9.3-11.57-12.28-14-3.66-2.78-3.44-4.11a30.52,30.52,0,0,1,2-6.28c.81-1.58,2-.62,2.78-.06s27.66,17.89,30.52,23.29,2.54,7.16,1.75,14.63-1.73,10.75-3,12.9-1.25,2.62-1.91,2.44S266.6,345.56,265.51,343.48Z"/>
          <path class="cls-17" d="M282.56,262c-8.34-.32-20.39,1.55-29,11.93s-8.71,15.74-9.66,20.86-1.26,4.65,1.49,6.47,18.54,12.26,23.31,17.57c2.33.65,6.68-.28,9.21-1.38s8.56-4.29,10.23-6.28,1.59-8.19,1.91-14.95,7.84-12.56,10.4-18.44,2-7.47,1.12-9.54S300.09,262.71,282.56,262Z"/>
          <path class="cls-15" d="M288.57,294c-.68,1.09-.48,2.23-5.33,3.89s-5,2.31-4.45,2.59a12.43,12.43,0,0,0,6.6-1c1.9-1.11,6.2-2.22,5.48-11.2s-1.19-5.09-1.19-5.09S290.16,291.41,288.57,294Z"/>
          <path class="cls-15" d="M334.56,306.87c-2.87-.62-6.68-1.13-7.87-.72a30.42,30.42,0,0,1-7.58,1.37,5.32,5.32,0,0,0-4.83,2.93c-.53.83-2.08.29-1.31-.72s3.7-4.53,6.8-4.35,4-.54,7.33-.9,6.2-1.07,10.44,1.85S335.37,307,334.56,306.87Z"/>
        </g>
        <g>
          <path class="cls-14" d="M314.11,384.71c-5.8,4.75-9.34,10.1-10.2,16.51s.65,15.3,6.62,20.73,12.37,9.88,20.08,9.88,19.65,1.74,30.62-10.42,13.35-12.05,11.29-22.47-9.77-12.16-11.73-11.19A20.39,20.39,0,0,1,350.05,390c-5.11-.32-12.82-4.31-14-7.42s-4.82-5.6-9.63-4.74S314.85,384.11,314.11,384.71Z"/>
          <path class="cls-14" d="M346.79,378.53c3.66.85,10.49,3.9,8.39,6.58s-5.06,2.39-6.8,2.32-9.26-.81-9.48-4.82S340.85,377.15,346.79,378.53Z"/>
          <path class="cls-15" d="M251.76,395.1s6.08-8.72,10-11.83,8.73-7.67,11.78-7.91,2.26,14.06,2.26,14.06-1.05,5.75-1.38,5.68-21.28.94-21.28.94S251.38,395.25,251.76,395.1Z"/>
          <path class="cls-15" d="M347.23,382.07a15.54,15.54,0,0,1,5.17,1.12c2.1,1,2.34,2.47,2,2.74a4.79,4.79,0,0,1-2.81,1.54c-1.77.32-8.25-.11-9.73-1s-2.91-2.1-2.83-3.1c1.74,1.44,1.49,2.48,5.07,2.45s8.76.86,5-2.1A15.44,15.44,0,0,1,347.23,382.07Z"/>
          <path class="cls-15" d="M359.82,423.85c-3.19,2.3-9.29,7-14.28,8.07a64.23,64.23,0,0,1-16,.83,10.89,10.89,0,0,1-4.93-1.84s8,.81,9.54.6,6.13.38,9.72-.87,6.13-3.37,8.41-4.29a43.94,43.94,0,0,0,9.5-6.62c1.9-1.9,4-3.94,4.82-4.09s.23,1.26.23,1.26S360.94,423,359.82,423.85Z"/>
          <path class="cls-17" d="M283.71,372.66c6.41-1,14.26-1.73,17,.87s1.56,6-1.37,8.58-4.46,5.75-9.77,7.71-12.82,2.06-17.7-1.31-8.57-5.13-6.3-7.6C268.25,378,273.72,374.18,283.71,372.66Z"/>
          <path class="cls-17" d="M275.57,428.47c-.29-8.73,3.37-20.63,5.65-25s3.36-10.1,0-11.08-11.8-2.94-15.38-7.59c-2.4-2.69-8.07,3.68-8.07,3.68s-9.56,9.23-9.45,16-.22,15,8.25,23.34,10.75,10.75,12.92,12.06S276.11,444.64,275.57,428.47Z"/>
        </g>
        <g>
          <path class="cls-14" d="M348.66,202.21s18.29,5.89,22.48,11.6,3.92,13-2.14,13-15.7.1-23.46,1.35-8.33,1-8.33,1,11.36-8,12.49-14.48A27.49,27.49,0,0,0,348.66,202.21Z"/>
          <path class="cls-15" d="M306.85,200.16s-10.2-1.78-10.73-1.42-8,18.64-6.16,21.85,3.48,7.19,13.11,6.23S306.85,200.16,306.85,200.16Z"/>
          <path class="cls-14" d="M310.92,196.59c4.46-1.43,9.64-3.39,16-2.67s11.51,2.5,14.36,2.67,6.52,5.27,7,8.48.8,11.33-3.66,16.15-8.47,8.47-10.25,8.83-3.7,2.67-5,3.3a14.73,14.73,0,0,1-10.6.53c-4.81-1.69-6.24.27-12.22-1.87s-14.09-7.32-14.63-8.21,5.09-17.13,7.85-19.71S307.28,197.76,310.92,196.59Z"/>
          <path class="cls-17" d="M282.79,187.2c-11.79,3.61-16.41,7.49-18.31,9s-9.52,8.44-8.69,17.6,10,13.2,11.78,13,7-2.74,8.8-3,2.89-2,4.49-3.6,3.48-.35,4.37-.09a18.84,18.84,0,0,0,4.73.45c.36-.18,4.46-12.49,6-14s6.15-6,9.36-8.57,6.25-3.66,3.3-6.24S295,183.47,282.79,187.2Z"/>
          <path class="cls-15" d="M330.64,196.59s-5.89,5.45-8,8.12-4.19,6.25-2.05,8.21,6.42,1.52,9.28,1.52,6.15,2.85,6.78,3.74,2.31,4.19,3.47,5.35.2.87.2.87a62.05,62.05,0,0,1-5.93-5.46c-1.71-2-5.88-2.54-6.55-2.56s-6.72,1.09-9.39-3.59S324,201.28,330.64,196.59Z"/>
        </g>
        <line class="cls-18" x1="188.64" y1="97.11" x2="13.13" y2="97.11"/>
        <line class="cls-18" x1="188.64" y1="140.37" x2="13.13" y2="140.37"/>
        <line class="cls-18" x1="188.64" y1="254.92" x2="13.13" y2="254.92"/>
        <line class="cls-18" x1="188.64" y1="317.88" x2="13.13" y2="317.88"/>
        <line class="cls-18" x1="188.64" y1="194.49" x2="13.13" y2="194.49"/>
        <line class="cls-18" x1="577.95" y1="97.11" x2="402.44" y2="97.11"/>
        <line class="cls-18" x1="188.64" y1="69.3" x2="13.13" y2="69.3"/>
        <line class="cls-18" x1="577.95" y1="69.3" x2="402.44" y2="69.3"/>
        <line class="cls-18" x1="577.95" y1="140.37" x2="402.44" y2="140.37"/>
        <line class="cls-18" x1="577.95" y1="254.92" x2="402.44" y2="254.92"/>
        <line class="cls-18" x1="577.95" y1="317.88" x2="402.44" y2="317.88"/>
        <line class="cls-18" x1="577.95" y1="194.49" x2="402.44" y2="194.49"/>
        <g>
          <path class="cls-15" d="M301,36.27a9.13,9.13,0,0,0-5.11,3.1c-.68,1.17-3.9,3.14-3,6.37s.11,4.54,2,4.93,5.61-2.64,6-3.53S304.75,35.6,301,36.27Z"/>
          <path class="cls-15" d="M295.09,52.29a4.12,4.12,0,0,0,.23,3.93,5,5,0,0,0,4.86,2.72c2.36-.3,5.09-3.57,5.14-5.33s-1.94-5.74-2.3-6.33S296,49.42,295.09,52.29Z"/>
          <path class="cls-3" d="M325.19,32.5c-5.35-1.66-14.53-1.38-17.43-1s-7.46.86-8.68,4.36-.45,7.93.88,12.08,1.74,8.92,3.93,9.91,8.09-1.33,11.81-6.73S331,34.31,325.19,32.5Z"/>
        </g>
      </g>
      <rect class="cls-1" width="595.28" height="23.7"/>
    </g>
  </g>
</svg>
