<svg xmlns="http://www.w3.org/2000/svg" xmlns:xlink="http://www.w3.org/1999/xlink" viewBox="0 0 586.28 434.58">
  <defs>
    <style>
      .cls-1 {
        fill: #4d4c4c;
      }

      .cls-2 {
        fill: #424242;
      }

      .cls-3, .cls-8 {
        fill: #bab9aa;
      }

      .cls-3, .cls-6 {
        stroke: #7f7f78;
      }

      .cls-10, .cls-18, .cls-3, .cls-6 {
        stroke-miterlimit: 10;
      }

      .cls-10, .cls-3, .cls-6 {
        stroke-width: 0.25px;
      }

      .cls-4 {
        fill: #c2e3e5;
      }

      .cls-5 {
        fill: #fff;
      }

      .cls-6 {
        fill: #a09e8b;
      }

      .cls-18, .cls-7 {
        fill: none;
      }

      .cls-9 {
        fill: #d8d8d7;
      }

      .cls-10 {
        stroke: #451119;
        fill: url(#Degradado_sin_nombre_25);
      }

      .cls-11, .cls-12 {
        fill: #afafaf;
      }

      .cls-11, .cls-13 {
        opacity: 0.6;
      }

      .cls-14 {
        fill: #c54950;
      }

      .cls-15 {
        fill: #fefcfb;
      }

      .cls-16 {
        fill: #c9cc2e;
      }

      .cls-17 {
        fill: #8d8d8e;
      }

      .cls-18 {
        stroke: #f6e81d;
        stroke-width: 2px;
      }
    </style>
    <linearGradient id="Degradado_sin_nombre_25" data-name="Degradado sin nombre 25" x1="1288.83" y1="338.18" x2="1325.15" y2="282.47" gradientTransform="translate(-1253.89)" gradientUnits="userSpaceOnUse">
      <stop offset="0" stop-color="#d8d8d7"/>
      <stop offset="0.09" stop-color="#d5b9b9"/>
      <stop offset="0.23" stop-color="#d18c8f"/>
      <stop offset="0.36" stop-color="#ce686d"/>
      <stop offset="0.49" stop-color="#cc4f55"/>
      <stop offset="0.61" stop-color="#ca3f46"/>
      <stop offset="0.7" stop-color="#ca3a41"/>
    </linearGradient>
  </defs>
  <g id="Capa_2" data-name="Capa 2">
    <g id="Capa_1-2" data-name="Capa 1">
      <rect class="cls-1" width="586.28" height="433.99" transform="translate(586.28 433.99) rotate(-180)"/>
      <g>
        <g>
          <path class="cls-2" d="M14.21,0V119.67s5.64,117.2,27.75,192S68,393.84,66.06,406.23s-6,28.23-6,28.23H171.45s-.16-36.18-.36-48.59c-.16-10.28,37.81-143.29,12.13-275.72-2.5-12.57-.63-27.52,1.07-38.21S190,0,190,0Z"/>
          <g>
            <path class="cls-3" d="M128.51,6.54s-1.24,10.66,5,16.61,9.67,5.7,16.61,3.72,12.39-6.15,19.08,1.26,6,11.13,6.2,16.59,2.48,19.58-6.94,28.5S156,115.11,155.28,123.29s-12.89,164.83-13.63,178-4.54,18.94,6.12,45.21,4.67,28.84-.42,33.61c-2.86,2.68-8.43,6.69-20.33,5-7.93-1.24-7.18-3.72-8.92-9.67s-.62-6.32-5.82-6.81-6.32,9.29-7.81,11.52-7.69,7.39-19.33,5.31S72.74,364,74.48,358.27s27.94-23.92,34.64-74.67,14.5-193.52,11.15-199.1-6.32-8.92-6.69-10.78-.46-3.44,2.1-5.86,6.82-4.09,7.75-4.55c-.37-1.12-7.62-15.06-17.47-21.2-5-1.11-11.72.38-13.76-.18s-3.72-8.37,4-20.64S121.82,6.79,128.51,6.54Z"/>
            <path class="cls-4" d="M106.14,7.16S96.85,15.44,94,19.81,86.39,38,86.39,38l5.81,3.91,6.13-9.76,11.44-9.58,15-7.25,2.84-1,1.06-1.67-.16-6.11Z"/>
            <path class="cls-5" d="M104.34,30.22c4-3.94,12-10.65,18.47-12.65s6.67-1.23,6.67-1.23l-.81-3.69S117.36,15.72,112,18.57,93.93,35.05,92.94,37.16a10.57,10.57,0,0,0-.74,4.77h1.86S96.78,37.65,104.34,30.22Z"/>
            <path class="cls-6" d="M143.2,434.46h10.22s1-8.55,6.63-14.32,6.14-11.37,5.58-13.91-4.65-6.54-9.2-6.07-7.34-1.21-10.23,1.67S134.58,420,134.58,420a12.12,12.12,0,0,1,4.84,3.25c1.67,2.14,3.53,4.65,3.72,6.41A45.72,45.72,0,0,1,143.2,434.46Z"/>
            <path class="cls-3" d="M133.47,434.12s6.2-19.83,14.62-29.25,3.72-26.52,3.72-26.52a59,59,0,0,1-10.41,7.52c-4,2.17-15.12,2.08-18.84,0a27.9,27.9,0,0,1-6.88-6s0,2.73-1.92,3.72c-1.61.84-6.56-.49-6.32-3.72s0,12.15-30.18,6c-2.73,5,2.17,15.28,3.66,18s12.89,15.36,16.36,30.24Z"/>
            <g>
              <path class="cls-7" d="M40,59.46c1.61,3.35,5.46,5.46,12.4,4.71s12.64-5.45,13.75-15.86a28.53,28.53,0,0,0-.51-9.14c-7.31,1.91-18.15,7-21.52,9.26-1.25.86-2.83,1.87-4.44,2.9C39.53,55.44,39.59,58.56,40,59.46Z"/>
              <path class="cls-8" d="M92.17,5.68c-8.6-3.8-30.95,18.77-30.95,18.77l.13.8c5-3.47,26.66-1.91,30.59-1.59a28.29,28.29,0,0,1,4.57-7c.61-.67,8.7-8.77,10.56-9.49C109.21,6.3,93.68,6.34,92.17,5.68Z"/>
              <path class="cls-3" d="M84.07,33.19a44.07,44.07,0,0,1-15.71,5.39,26.76,26.76,0,0,0-2.7.59,28.53,28.53,0,0,1,.51,9.14c-1.11,10.41-6.81,15.12-13.75,15.86S41.63,62.81,40,59.46c-.43-.9-.49-4-.32-8.13-3.28,2.11-6.67,4.28-7.55,5.28-1.14,1.31-4.25,3-5,3.39,2.19,5.55,4.31,10.1,5.93,11.94,5.7,6.49,12.92,11.93,27,9.46s27-19.58,27.76-23.3c.34-1.7,2.71-3.44,2.67-8.36,0-4.19-2.67-10.8-.66-20.26a21.84,21.84,0,0,1,1-3.22c-.06,0-.11,0-.17,0C89.47,26.4,87.47,31.15,84.07,33.19Z"/>
              <path class="cls-6" d="M61.35,25.25a2.62,2.62,0,0,0-.85.88c-2.69,5-10,10.38-16.36,12.45-.59.2-1.88.64-3.64,1.15a67.47,67.47,0,0,1-8.16,1.83c-6,.94-7.07,2.78-7.81,6.32-.44,2.08.5,6,1.34,8.79.58,2,1.11,3.42,1.11,3.42l.17-.09c.75-.4,3.86-2.08,5-3.39.88-1,4.27-3.17,7.55-5.28,1.61-1,3.19-2,4.44-2.9,3.37-2.3,14.21-7.35,21.52-9.26a26.76,26.76,0,0,1,2.7-.59,44.07,44.07,0,0,0,15.71-5.39c3.4-2,5.4-6.79,6.61-6.88.06,0,.11,0,.17,0,1.09-.31,1.72-2.55,1.72-2.55l-.63-.05C88,23.34,66.37,21.78,61.35,25.25Z"/>
            </g>
            <path class="cls-9" d="M112.63,257.9c.1.38,1.57,1.87,1.57,1.47.09-11.77-1.56-52.87-13.89-98.55-15-55.73-15.36-93.08-16.83-102L67.38,72.37S67.11,95.9,66,112,86.39,182.24,90,213.27C93.15,240.61,108.85,243.46,112.63,257.9Z"/>
            <path class="cls-10" d="M109.19,315.42c-4.32,9.85-19.18,17.75-15.44,67.26.63,8.29,7.94,28.22,7.82,32.68s-4.24,3.51-5.73,3.51a74.28,74.28,0,0,1-5.5-12.64c-3.88-11.15-11.9-38.42-12.27-49.2s-18.89-69.55-23.18-98.45c-4.06-27.43-5.43-50.6-1-71.46,4.6-21.57,12.64-48.34,11.9-77l.29.95c0,.28,0,.57,0,.86C65,128,86.39,182.24,90,213.27c2.84,24.51,18.29,26.61,24.26,44.86C115,260.37,116.52,298.7,109.19,315.42Z"/>
            <path id="BF_PC" data-name="BF PC" class="cls-11" d="M148.34,165.82,130.12,312.68s7.88,27.73,11.53,34.58c3.57,6.69,14.24,22.38,10.64,48.16a6.76,6.76,0,0,0,.14,1.66c-.18,3.53.22,2.87.22,2.87s-1.18,3.39,1.23-3.38c4.42-12.39,12.65-39.19,23.83-91.51C185,227.54,148.34,165.82,148.34,165.82Z"/>
            <g>
              <path id="BF_PL" data-name="BF PL" class="cls-11" d="M86.82,98.06c27,62.31,27.66,138.38,27.5,176.06-.18,42.94,14.51,46.9,29,75s8.77,50.11,8.77,50.11,2.29-6.29,2.29.77c13.3-31.23,15.14-104.85,8.08-145.37s-21.19-96.67-52.61-138.5S81.42,71.94,81.42,71.94l4.27,26"/>
              <path id="BF_INS" data-name="BF INS" class="cls-12" d="M82.74,61.54l-10.1,10.4s3.18,1.76,7.62,13.54c1.84,4.38,25.6,51.27,31,120,0,0,2.85,42.3,2.94,52.7s2.31,4.65,3.06-3.16-2.09-74.16-13.2-112.1C94.19,109,93.45,108.17,94,105.29s4.59-2.1,5.2-1.4a103.17,103.17,0,0,0,7.59,7.66S87.21,83.22,85,73.63C82,65,82.74,61.54,82.74,61.54Z"/>
              <path id="BF_INS_DISTAL" data-name="BF INS DISTAL" class="cls-12" d="M156.83,232.09c5.34,0,9,41.92,10.61,78.32a355.16,355.16,0,0,1-1.07,42c-1.05,7.07-5.7,20.7-6.75,34s4.89,13.39,4.52,17.29c-8.61-6.82-14.06-.87-14.06-.87a139.79,139.79,0,0,1,4.4-15.86c2.91-8.61,4.39-22.53,7.37-45.67a431,431,0,0,0-1.21-49.53C158.39,266,154.65,232.09,156.83,232.09Z"/>
            </g>
          </g>
          <g>
            <g class="cls-13">
              <path id="ST" class="cls-12" d="M95,312.85c13.54-9.43,24.06-66.38,11.12-144.45C96.85,121.48,92.51,113.93,85,96.18,77,77.25,75.6,71.75,74.58,69.24c-1.55,2-2.81,1.74-6.22,4.6.62,5.07,6.44,23.3,6.27,28.41-.34,10.78-4,58.65-3.41,74.91C72.53,214.2,83.34,289.74,79,312c-5.37,27.23.2,22.37,3.19,22.12S84.49,320.18,95,312.85Z"/>
            </g>
            <path class="cls-12" d="M74.62,69l-3.4,2.91S75.8,83.61,77.59,89.5s8.54,21.26,10.77,24.07c2.84,4.25,4.09,4.52,6.59,7.91,0-2.56-4.48-12.23-10.41-26.72S74.62,69,74.62,69Z"/>
            <path class="cls-12" d="M81.34,288.28c.92,7.17-1.73,28.42-2.83,41.93s.12,36.7,1.42,49.07a126.31,126.31,0,0,0,11.81,40.84c1.22,2.36-3,1.65-6.48-2.85s-11.49-23.59-11.67-57.54c-.15-28.92,4.81-74.74,6-76.69S80.8,284,81.34,288.28Z"/>
          </g>
        </g>
        <g>
          <path class="cls-2" d="M404.71,0V119.67s5.63,117.2,27.75,192,26.07,82.15,24.09,94.54-6,28.23-6,28.23h111.4s-.15-36.18-.35-48.59c-.17-10.28,37.81-143.29,12.13-275.72-2.5-12.57-.64-27.52,1.07-38.21S580.49,0,580.49,0Z"/>
          <g>
            <path class="cls-3" d="M519,6.54s-1.24,10.66,5,16.61,9.66,5.7,16.6,3.72,12.4-6.15,19.09,1.26,6,11.13,6.2,16.59,2.47,19.58-6.94,28.5-12.4,41.89-13.14,50.07-12.89,164.83-13.63,178-4.54,18.94,6.11,45.21,4.68,28.84-.41,33.61c-2.86,2.68-8.43,6.69-20.33,5-7.93-1.24-7.19-3.72-8.92-9.67s-.62-6.32-5.83-6.81-6.32,9.29-7.8,11.52-7.69,7.39-19.34,5.31S463.24,364,465,358.27s27.95-23.92,34.64-74.67,14.5-193.52,11.16-199.1-6.32-8.92-6.7-10.78-.45-3.44,2.1-5.86,6.83-4.09,7.76-4.55c-.37-1.12-7.63-15.06-17.48-21.2-5-1.11-11.71.38-13.75-.18s-3.72-8.37,4-20.64S512.32,6.79,519,6.54Z"/>
            <path class="cls-4" d="M496.64,7.16s-9.3,8.28-12.18,12.65S476.89,38,476.89,38l5.81,3.91,6.13-9.76,11.43-9.58,15-7.25,2.85-1,1.06-1.67L519,6.54Z"/>
            <path class="cls-5" d="M494.84,30.22c4-3.94,12-10.65,18.47-12.65S520,16.34,520,16.34l-.8-3.69s-11.32,3.07-16.64,5.92-18.1,16.48-19.09,18.59a10.57,10.57,0,0,0-.74,4.77h1.85S487.28,37.65,494.84,30.22Z"/>
            <path class="cls-6" d="M533.69,434.46h10.23s1-8.55,6.63-14.32,6.13-11.37,5.58-13.91-4.65-6.54-9.21-6.07-7.34-1.21-10.22,1.67S525.08,420,525.08,420a12.11,12.11,0,0,1,4.83,3.25c1.68,2.14,3.54,4.65,3.72,6.41A43,43,0,0,1,533.69,434.46Z"/>
            <path class="cls-3" d="M524,434.12s6.19-19.83,14.62-29.25,3.72-26.52,3.72-26.52a59,59,0,0,1-10.41,7.52c-4,2.17-15.12,2.08-18.84,0a27.83,27.83,0,0,1-6.89-6s0,2.73-1.91,3.72c-1.61.84-6.57-.49-6.32-3.72s0,12.15-30.18,6c-2.73,5,2.17,15.28,3.66,18s12.89,15.36,16.36,30.24Z"/>
            <g>
              <path class="cls-7" d="M430.52,59.46c1.61,3.35,5.45,5.46,12.39,4.71s12.64-5.45,13.76-15.86a28.53,28.53,0,0,0-.51-9.14c-7.32,1.91-18.15,7-21.52,9.26-1.25.86-2.83,1.87-4.44,2.9C430,55.44,430.08,58.56,430.52,59.46Z"/>
              <path class="cls-8" d="M482.67,5.68c-8.6-3.8-31,18.77-31,18.77l.14.8c5-3.47,26.66-1.91,30.59-1.59a28.25,28.25,0,0,1,4.56-7c.61-.67,8.71-8.77,10.56-9.49C499.71,6.3,484.17,6.34,482.67,5.68Z"/>
              <path class="cls-3" d="M474.57,33.19a44.13,44.13,0,0,1-15.72,5.39,27.22,27.22,0,0,0-2.69.59,28.53,28.53,0,0,1,.51,9.14c-1.12,10.41-6.82,15.12-13.76,15.86s-10.78-1.36-12.39-4.71c-.44-.9-.49-4-.32-8.13-3.29,2.11-6.68,4.28-7.55,5.28-1.14,1.31-4.25,3-5,3.39,2.2,5.55,4.32,10.1,5.94,11.94,5.7,6.49,12.92,11.93,27,9.46s27-19.58,27.76-23.3c.34-1.7,2.7-3.44,2.66-8.36,0-4.19-2.66-10.8-.66-20.26a24.58,24.58,0,0,1,1-3.22s-.1,0-.16,0C480,26.4,478,31.15,474.57,33.19Z"/>
              <path class="cls-6" d="M451.85,25.25a2.44,2.44,0,0,0-.85.88c-2.7,5-10,10.38-16.36,12.45-.59.2-1.88.64-3.65,1.15a66.82,66.82,0,0,1-8.15,1.83c-5.95.94-7.07,2.78-7.81,6.32-.44,2.08.49,6,1.33,8.79.58,2,1.12,3.42,1.12,3.42l.16-.09c.76-.4,3.87-2.08,5-3.39.87-1,4.26-3.17,7.55-5.28,1.61-1,3.19-2,4.44-2.9,3.37-2.3,14.2-7.35,21.52-9.26a27.22,27.22,0,0,1,2.69-.59,44.13,44.13,0,0,0,15.72-5.39c3.39-2,5.4-6.79,6.61-6.88.06,0,.11,0,.16,0,1.1-.31,1.73-2.55,1.73-2.55l-.63-.05C478.51,23.34,456.87,21.78,451.85,25.25Z"/>
            </g>
            <path class="cls-12" d="M503.12,257.9c.1.38,1.58,1.87,1.58,1.47.09-11.77-1.56-52.87-13.89-98.55-15.05-55.73-15.36-93.08-16.84-102l-16.1,13.55s-.26,23.53-1.33,39.59,20.35,70.28,23.94,101.31C483.65,240.61,499.34,243.46,503.12,257.9Z"/>
            <path class="cls-11" d="M499.68,315.42c-4.32,9.85-19.17,17.75-15.43,67.26.63,8.29,7.94,28.22,7.81,32.68s-4.23,3.51-5.72,3.51a74.28,74.28,0,0,1-5.5-12.64c-3.89-11.15-11.9-38.42-12.27-49.2s-18.9-69.55-23.18-98.45c-4.07-27.43-5.43-50.6-1-71.46,4.59-21.57,12.64-48.34,11.9-77l.29.95c0,.28,0,.57,0,.86-1.07,16,20.35,70.28,23.94,101.31,2.84,24.51,18.28,26.61,24.26,44.86C505.47,260.37,507,298.7,499.68,315.42Z"/>
            <path id="BF_PC-2" data-name="BF PC" class="cls-11" d="M538.84,165.82,520.62,312.68s7.87,27.73,11.53,34.58c3.56,6.69,14.24,22.38,10.64,48.16a6.29,6.29,0,0,0,.14,1.66c-.19,3.53.21,2.87.21,2.87s-1.17,3.39,1.24-3.38c4.42-12.39,12.65-39.19,23.83-91.51C575.45,227.54,538.84,165.82,538.84,165.82Z"/>
            <g>
              <path id="BF_PL-2" data-name="BF PL" class="cls-11" d="M477.31,98.06c27,62.31,27.67,138.38,27.51,176.06-.19,42.94,14.51,46.9,29,75s8.77,50.11,8.77,50.11,2.29-6.29,2.29.77C558.19,368.74,560,295.12,553,254.6s-21.2-96.67-52.61-138.5-28.45-44.16-28.45-44.16l4.27,26"/>
              <path id="BF_INS-2" data-name="BF INS" class="cls-12" d="M473.23,61.54l-10.09,10.4s3.18,1.76,7.62,13.54c1.83,4.38,25.6,51.27,31,120,0,0,2.85,42.3,2.94,52.7s2.31,4.65,3.05-3.16-2.09-74.16-13.2-112.1c-9.9-33.83-10.65-34.7-10.13-37.58s4.6-2.1,5.21-1.4a103.17,103.17,0,0,0,7.59,7.66s-19.55-28.33-21.8-37.92C472.53,65,473.23,61.54,473.23,61.54Z"/>
              <path id="BF_INS_DISTAL-2" data-name="BF INS DISTAL" class="cls-12" d="M547.33,232.09c5.34,0,9,41.92,10.61,78.32a357.45,357.45,0,0,1-1.07,42c-1,7.07-5.7,20.7-6.75,34s4.89,13.39,4.52,17.29c-8.61-6.82-14.07-.87-14.07-.87A142.4,142.4,0,0,1,545,387c2.92-8.61,4.4-22.53,7.38-45.67a429.71,429.71,0,0,0-1.22-49.53C548.88,266,545.14,232.09,547.33,232.09Z"/>
            </g>
          </g>
          <g>
            <path id="ST-2" data-name="ST" class="cls-14" d="M485.52,312.85c13.55-9.43,24.07-66.38,11.13-144.45-9.3-46.92-13.64-54.47-21.13-72.22-8-18.93-9.42-24.43-10.45-26.94-1.54,2-2.81,1.74-6.22,4.6.63,5.07,6.44,23.3,6.28,28.41-.34,10.78-4,58.65-3.42,74.91,1.32,37,12.13,112.58,7.75,134.79-5.38,27.23.2,22.37,3.18,22.12S475,320.18,485.52,312.85Z"/>
            <path class="cls-9" d="M465.12,69l-3.41,2.91s4.59,11.67,6.37,17.56,8.54,21.26,10.77,24.07c2.84,4.25,4.1,4.52,6.59,7.91,0-2.56-4.47-12.23-10.4-26.72S465.12,69,465.12,69Z"/>
            <path class="cls-9" d="M471.84,288.28c.92,7.17-1.74,28.42-2.83,41.93s.12,36.7,1.41,49.07a126.58,126.58,0,0,0,11.81,40.84c1.22,2.36-3,1.65-6.47-2.85s-11.49-23.59-11.67-57.54c-.15-28.92,4.8-74.74,6-76.69S471.29,284,471.84,288.28Z"/>
          </g>
        </g>
        <g>
          <path class="cls-15" d="M310.44,93c-3,0-4.36-.26-4.28-1.39s2.33-2.59,4.28-3.72,4.11-2.25,5-2,2.38,1.9.48,4.46S312.9,93,310.44,93Z"/>
          <path class="cls-16" d="M334.46,88.36c-3.28-1.85-5.19-3.29-8.71-3s-6.12,2.79-3.64,4.08,4.13.71,5.33.77,4.08,1.1,5.35,1.27,4.85-.86,3.17-2.39A5.77,5.77,0,0,0,334.46,88.36Z"/>
          <path class="cls-14" d="M297.32,77.43c-3.29,1.08-9.09,5.44-9.78,6.61s-2.16,3.77,2.34,2.82A14.47,14.47,0,0,1,299.75,88c2.42,1.12,5.8,1.73,8.57-.52s8.31-8.14,2.16-9.35S298.56,77,297.32,77.43Z"/>
          <path class="cls-15" d="M310,80.71c.13,2,.08,2.73-1.6,4.64s-3.86,4.76-.44,3.37,6.75-4,8.36-4.67-1.17-4.37-2.43-4.81S309.88,78.77,310,80.71Z"/>
        </g>
        <g>
          <path class="cls-15" d="M320.81,119.85s6-.67,9.93,2.56,13.1,20.71,12.74,25.43-3.46,6.33-3.46,6.33-22.27-7.87-25.77-6.93-22.28.61-29.75-7.13-3.56-8.56-3.52-11.47C282.41,128.78,320.81,119.85,320.81,119.85Z"/>
          <path class="cls-14" d="M307.05,115.9c-4.49,0-16,.36-23,7s-3.05,12.92,0,16,12.21,7.36,18.67,7.54c2.87,0,3.18-1,4-1.16a9.8,9.8,0,0,1,3.86.67,8.34,8.34,0,0,0,3.77.27c.72-.14,3.1-.36,3.86-4.94s2.51-5,3-6.5a34,34,0,0,1,2.06-6.15c1.89-4.35,1.62-2.11,1.26-7.58S307.05,115.9,307.05,115.9Z"/>
          <path class="cls-17" d="M325.35,129.9c-.88,2.67-2.51,6.82-3.32,8.79s-2.15,5,0,5.84a30.61,30.61,0,0,0,8.15,1.88c4,.45,7.92,2.33,10.16,3.05s5.65,4.13,4.49-3.41-5.3-17.68-8.08-20.28-5.83-5.56-8.08-5.29a3.24,3.24,0,0,0-2.87,3.23C325.8,124.7,326,128,325.35,129.9Z"/>
          <path class="cls-14" d="M285.56,121.33s-5.37-.87-7,2.29,1.28,11.31,1.28,11.31S277.68,125.37,285.56,121.33Z"/>
          <ellipse class="cls-16" cx="319.89" cy="146.12" rx="4.1" ry="2.22"/>
        </g>
        <g>
          <path class="cls-14" d="M303.64,284.28c4.13.32,12.8-.47,16.14-1.9a6.83,6.83,0,0,0,4.21-5.33c0-.79-1.35-8.19-4.85-12.56a116.09,116.09,0,0,1-8.82-12.72c-1.67-2.94-8.11-6.44-13.2-6.92s-15.82.32-17.41,3.9-3.16,13.22-1.2,18C280.76,272.27,287.23,283,303.64,284.28Z"/>
          <path class="cls-14" d="M264.08,304.24a121.83,121.83,0,0,0,27.66,0c10-1.07,17.06-1.43,16.58-5.84s-1.75-8.49-10.49-13.16-19.4-8.43-21.95-27.75c-1.59-9.62-2.26-8.94-8.1-7.51S251,261.37,248.28,265.9s-3.32,5.47-4.2,15.09-2.18,10.37,5,16.81S258.13,303.61,264.08,304.24Z"/>
          <path class="cls-15" d="M368.9,266.8h1.92s3.56,10.79,5.41,16.51,1.37,6,0,6.62-19.57,5.25-19.57,5.25l-1.43-6.36Z"/>
          <path class="cls-15" d="M282.62,268.11c-1.31-1.66-3.1-4.18-2.38-6.38s1.91-3,4.17-3.1a18.08,18.08,0,0,1,7.87,1.13c1.19-.06,1.19-.12.42-.6s-6.56-3.57-10.14-2.56-4.41,3.74-4.35,6.25,4.05,6.87,6.14,8.24,1.67.42,1.37,0S283.41,269.1,282.62,268.11Z"/>
          <path class="cls-17" d="M351.25,324c3.11-5.95,7.63-14.42,9.9-17.17s9.3-11.56,12.28-13.95,3.66-2.78,3.44-4.11a30.33,30.33,0,0,0-2-6.28c-.81-1.58-2-.62-2.78-.06s-27.66,17.88-30.52,23.29-2.54,7.15-1.75,14.63,1.73,10.75,3,12.9,1.26,2.62,1.91,2.44S350.16,326.11,351.25,324Z"/>
          <path class="cls-17" d="M334.2,242.59c8.34-.32,20.39,1.55,29,11.92s8.7,15.74,9.65,20.87,1.26,4.65-1.49,6.47S352.8,294.11,348,299.41c-2.32.66-6.68-.27-9.21-1.37s-8.56-4.29-10.23-6.28-1.59-8.19-1.91-14.95-7.84-12.56-10.4-18.44-2-7.47-1.12-9.54S316.67,243.26,334.2,242.59Z"/>
          <path class="cls-15" d="M328.2,274.51c.67,1.08.47,2.22,5.32,3.89s5,2.31,4.45,2.59a12.59,12.59,0,0,1-6.59-1c-1.91-1.11-6.21-2.22-5.49-11.21s1.19-5.09,1.19-5.09S326.61,272,328.2,274.51Z"/>
          <path class="cls-15" d="M282.2,287.43c2.87-.62,6.68-1.14,7.88-.72a30.69,30.69,0,0,0,7.57,1.37,5.33,5.33,0,0,1,4.83,2.92c.53.84,2.08.3,1.31-.71s-3.7-4.53-6.8-4.36-4-.53-7.33-.89-6.2-1.07-10.44,1.85S281.39,287.6,282.2,287.43Z"/>
        </g>
        <g>
          <path class="cls-14" d="M302.65,369.27c5.8,4.75,9.34,10.1,10.21,16.5s-.66,15.31-6.63,20.74-12.37,9.88-20.08,9.88S266.5,418.13,255.53,406s-13.35-12.05-11.29-22.48S254,371.33,256,372.31a20.4,20.4,0,0,0,10.75,2.28c5.1-.32,12.81-4.32,14-7.42s4.82-5.61,9.63-4.74S301.91,368.66,302.65,369.27Z"/>
          <path class="cls-14" d="M270,363.08c-3.66.85-10.49,3.91-8.39,6.59s5.06,2.39,6.8,2.32,9.26-.81,9.48-4.82S275.91,361.71,270,363.08Z"/>
          <path class="cls-15" d="M365,379.66s-6.08-8.72-10-11.84-8.72-7.66-11.78-7.9S341,374,341,374s1,5.75,1.38,5.68,21.28.94,21.28.94S365.38,379.8,365,379.66Z"/>
          <path class="cls-15" d="M269.53,366.63a15.54,15.54,0,0,0-5.17,1.12c-2.1,1-2.34,2.47-2,2.74a4.85,4.85,0,0,0,2.81,1.54c1.77.32,8.25-.12,9.73-1s2.91-2.09,2.83-3.1c-1.74,1.44-1.49,2.49-5.07,2.45s-8.76.87-5-2.1A15.85,15.85,0,0,0,269.53,366.63Z"/>
          <path class="cls-15" d="M257,408.41c3.18,2.3,9.28,7,14.27,8.06a63.84,63.84,0,0,0,16,.84,10.89,10.89,0,0,0,4.93-1.84s-8,.81-9.54.59-6.13.38-9.72-.87-6.13-3.36-8.41-4.28a44.34,44.34,0,0,1-9.5-6.63c-1.9-1.9-4-3.93-4.81-4.08s-.24,1.26-.24,1.26S255.82,407.6,257,408.41Z"/>
          <path class="cls-17" d="M333.05,357.22c-6.41-1-14.26-1.74-17,.87s-1.56,6,1.38,8.58,4.45,5.75,9.77,7.7,12.81,2.07,17.69-1.3,8.57-5.13,6.3-7.6C348.51,362.58,343,358.74,333.05,357.22Z"/>
          <path class="cls-17" d="M341.19,413c.29-8.72-3.36-20.62-5.64-25s-3.37-10.09,0-11.07,11.79-2.94,15.38-7.6c2.39-2.69,8.07,3.69,8.07,3.69s9.55,9.23,9.44,16,.22,15-8.25,23.34-10.75,10.75-12.92,12.05S340.65,429.2,341.19,413Z"/>
        </g>
        <g>
          <path class="cls-14" d="M268.1,194.77s-18.28,5.89-22.48,11.6-3.92,13,2.14,13,15.7.11,23.47,1.36,8.32,1,8.32,1-11.36-8-12.49-14.48A27.49,27.49,0,0,1,268.1,194.77Z"/>
          <path class="cls-15" d="M309.92,192.72s10.19-1.78,10.73-1.43,8,18.65,6.15,21.86-3.48,7.18-13.11,6.22S309.92,192.72,309.92,192.72Z"/>
          <path class="cls-14" d="M305.84,189.15c-4.46-1.43-9.64-3.39-16-2.68s-11.51,2.5-14.36,2.68-6.51,5.26-7,8.48-.8,11.32,3.66,16.14,8.47,8.48,10.26,8.83,3.69,2.68,5,3.3a14.72,14.72,0,0,0,10.6.54c4.81-1.7,6.24.27,12.22-1.87s14.09-7.32,14.63-8.21-5.09-17.13-7.85-19.72S309.48,190.32,305.84,189.15Z"/>
          <path class="cls-17" d="M334,179.75c11.79,3.62,16.41,7.5,18.31,9s9.52,8.45,8.69,17.61-10,13.2-11.78,13-7-2.73-8.8-3-2.88-2-4.49-3.6-3.48-.36-4.37-.09a18.84,18.84,0,0,1-4.73.45c-.36-.18-4.46-12.49-6-14s-6.15-6-9.36-8.56-6.25-3.66-3.3-6.25S321.78,176,334,179.75Z"/>
          <path class="cls-15" d="M286.12,189.15a113.88,113.88,0,0,1,8,8.12c2.14,2.68,4.19,6.24,2.05,8.21s-6.42,1.51-9.27,1.51-6.16,2.86-6.78,3.75-2.32,4.19-3.48,5.35-.2.87-.2.87a62.05,62.05,0,0,0,5.93-5.46c1.72-2,5.89-2.55,6.56-2.57s6.71,1.1,9.38-3.59S292.81,193.83,286.12,189.15Z"/>
        </g>
        <line class="cls-18" x1="192.12" y1="99.66" x2="16.61" y2="99.66"/>
        <line class="cls-18" x1="192.12" y1="142.93" x2="16.61" y2="142.93"/>
        <line class="cls-18" x1="192.12" y1="257.48" x2="16.61" y2="257.48"/>
        <line class="cls-18" x1="192.12" y1="320.43" x2="16.61" y2="320.43"/>
        <line class="cls-18" x1="192.12" y1="197.05" x2="16.61" y2="197.05"/>
        <line class="cls-18" x1="581.42" y1="99.66" x2="405.91" y2="99.66"/>
        <line class="cls-18" x1="192.12" y1="71.86" x2="16.61" y2="71.86"/>
        <line class="cls-18" x1="581.42" y1="71.86" x2="405.91" y2="71.86"/>
        <line class="cls-18" x1="581.42" y1="142.93" x2="405.91" y2="142.93"/>
        <line class="cls-18" x1="581.42" y1="257.48" x2="405.91" y2="257.48"/>
        <line class="cls-18" x1="581.42" y1="320.43" x2="405.91" y2="320.43"/>
        <line class="cls-18" x1="581.42" y1="197.05" x2="405.91" y2="197.05"/>
        <g>
          <path class="cls-15" d="M315.72,29.83a9.13,9.13,0,0,1,5.11,3.1c.68,1.16,3.9,3.14,3,6.37s-.11,4.54-2,4.93-5.61-2.64-6-3.53S312,29.15,315.72,29.83Z"/>
          <path class="cls-15" d="M321.67,45.85a4.13,4.13,0,0,1-.22,3.92,5.06,5.06,0,0,1-4.87,2.73c-2.35-.3-5.09-3.57-5.14-5.33s1.94-5.74,2.3-6.34S320.77,43,321.67,45.85Z"/>
          <path class="cls-3" d="M291.57,26.06c5.35-1.66,14.53-1.38,17.43-1s7.46.87,8.68,4.37.45,7.92-.88,12.08-1.74,8.92-3.93,9.91-8.09-1.34-11.81-6.73S285.74,27.87,291.57,26.06Z"/>
        </g>
      </g>
    </g>
  </g>
</svg>
