<svg xmlns="http://www.w3.org/2000/svg" xmlns:xlink="http://www.w3.org/1999/xlink" viewBox="0 0 595.28 443.96">
  <defs>
    <style>
      .cls-1 {
        fill: #555454;
      }

      .cls-2 {
        fill: #4d4c4c;
      }

      .cls-3, .cls-8 {
        fill: #bab9aa;
      }

      .cls-3, .cls-6 {
        stroke: #7f7f78;
      }

      .cls-10, .cls-18, .cls-3, .cls-6 {
        stroke-miterlimit: 10;
      }

      .cls-10, .cls-3, .cls-6 {
        stroke-width: 0.25px;
      }

      .cls-4 {
        fill: #c2e3e5;
      }

      .cls-5 {
        fill: #fff;
      }

      .cls-6 {
        fill: #a09e8b;
      }

      .cls-18, .cls-7 {
        fill: none;
      }

      .cls-9 {
        fill: #d8d8d7;
      }

      .cls-10 {
        stroke: #451119;
        fill: url(#Degradado_sin_nombre_25);
      }

      .cls-11, .cls-12 {
        fill: #afafaf;
      }

      .cls-11, .cls-13 {
        opacity: 0.6;
      }

      .cls-14 {
        fill: #c54950;
      }

      .cls-15 {
        fill: #fefcfb;
      }

      .cls-16 {
        fill: #c9cc2e;
      }

      .cls-17 {
        fill: #8d8d8e;
      }

      .cls-18 {
        stroke: #f6e81d;
        stroke-width: 2px;
      }
    </style>
    <linearGradient id="Degradado_sin_nombre_25" data-name="Degradado sin nombre 25" x1="40.04" y1="335.62" x2="76.36" y2="279.92" gradientTransform="translate(-8.58)" gradientUnits="userSpaceOnUse">
      <stop offset="0" stop-color="#d8d8d7"/>
      <stop offset="0.09" stop-color="#d5b9b9"/>
      <stop offset="0.23" stop-color="#d18c8f"/>
      <stop offset="0.36" stop-color="#ce686d"/>
      <stop offset="0.49" stop-color="#cc4f55"/>
      <stop offset="0.61" stop-color="#ca3f46"/>
      <stop offset="0.7" stop-color="#ca3a41"/>
    </linearGradient>
  </defs>
  <g id="Capa_2" data-name="Capa 2">
    <g id="Capa_1-2" data-name="Capa 1">
      <rect class="cls-1" y="23.7" width="595.28" height="420.26"/>
      <g>
        <g>
          <path class="cls-2" d="M10.73,23.17v93.94s5.64,117.2,27.75,192,26.07,82.15,24.1,94.53-6,28.23-6,28.23H168s-.16-36.18-.36-48.58C167.45,373,205.42,240,179.74,107.6c-2.5-12.58-.63-27.53,1.07-38.21s5.71-46.22,5.71-46.22Z"/>
          <g>
            <path class="cls-3" d="M125,4s-1.24,10.66,5,16.6,9.67,5.71,16.61,3.72,12.39-6.14,19.08,1.27,5.95,11.13,6.2,16.58,2.48,19.58-6.94,28.5-12.39,41.89-13.14,50.07-12.89,164.84-13.63,178-4.54,18.94,6.12,45.22,4.67,28.84-.42,33.6c-2.86,2.68-8.43,6.7-20.32,5-7.94-1.24-7.19-3.72-8.93-9.66s-.62-6.33-5.82-6.82-6.32,9.29-7.81,11.52-7.68,7.39-19.33,5.31S69.26,361.41,71,355.71,98.94,331.79,105.64,281s14.5-193.52,11.15-199.1S110.47,73,110.1,71.16s-.45-3.44,2.1-5.86S119,61.21,120,60.75c-.37-1.12-7.62-15.06-17.47-21.19-5-1.12-11.71.37-13.76-.19S85,31,92.69,18.74,118.34,4.24,125,4Z"/>
            <path class="cls-4" d="M102.66,4.61s-9.29,8.27-12.17,12.64-7.58,18.22-7.58,18.22l5.81,3.9,6.13-9.76L106.29,20l15-7.25,2.84-1,1.06-1.67L125,4Z"/>
            <path class="cls-5" d="M100.87,27.66c4-3.93,12-10.65,18.46-12.64S126,13.79,126,13.79l-.81-3.7S113.88,13.16,108.55,16,90.46,32.49,89.46,34.6a10.58,10.58,0,0,0-.74,4.77h1.86S93.31,35.09,100.87,27.66Z"/>
            <path class="cls-6" d="M139.72,431.9h10.22s1-8.55,6.63-14.31,6.14-11.37,5.58-13.92-4.65-6.53-9.2-6.07-7.34-1.21-10.23,1.68-11.61,18.12-11.61,18.12a12.24,12.24,0,0,1,4.83,3.25c1.67,2.14,3.53,4.65,3.72,6.42A45.54,45.54,0,0,1,139.72,431.9Z"/>
            <path class="cls-3" d="M130,431.56s6.2-19.83,14.62-29.25,3.72-26.52,3.72-26.52a58.77,58.77,0,0,1-10.41,7.53c-4,2.16-15.12,2.07-18.84,0a28.13,28.13,0,0,1-6.88-6s0,2.72-1.92,3.71c-1.61.84-6.56-.49-6.32-3.71s0,12.14-30.18,6c-2.72,4.95,2.17,15.27,3.66,18s12.89,15.37,16.36,30.24Z"/>
            <g>
              <path class="cls-7" d="M36.54,56.91c1.62,3.34,5.46,5.45,12.4,4.71s12.64-5.46,13.75-15.87a28.84,28.84,0,0,0-.5-9.14c-7.32,1.92-18.16,7-21.53,9.27-1.25.85-2.83,1.87-4.44,2.9C36.06,52.88,36.11,56,36.54,56.91Z"/>
              <path class="cls-8" d="M88.69,3.12C80.09-.68,57.74,21.9,57.74,21.9l.13.79c5-3.46,26.66-1.91,30.59-1.59a28.47,28.47,0,0,1,4.57-7c.61-.67,8.7-8.77,10.56-9.49C105.73,3.74,90.2,3.78,88.69,3.12Z"/>
              <path class="cls-3" d="M80.59,30.63A44.07,44.07,0,0,1,64.88,36c-.82.13-1.73.34-2.69.59a28.84,28.84,0,0,1,.5,9.14c-1.11,10.41-6.81,15.12-13.75,15.87s-10.78-1.37-12.4-4.71c-.43-.91-.48-4-.32-8.13-3.28,2.11-6.67,4.28-7.55,5.28-1.14,1.3-4.25,3-5,3.38,2.19,5.56,4.31,10.1,5.93,12,5.7,6.48,12.93,11.93,27,9.45s27-19.58,27.76-23.3c.34-1.7,2.71-3.44,2.67-8.36,0-4.19-2.66-10.79-.66-20.26a23.54,23.54,0,0,1,1-3.22.55.55,0,0,1-.17.05C86,23.85,84,28.59,80.59,30.63Z"/>
              <path class="cls-6" d="M57.87,22.69a2.62,2.62,0,0,0-.85.88C54.33,28.59,47,34,40.66,36c-.59.2-1.88.64-3.64,1.15A65.19,65.19,0,0,1,28.86,39c-5.95.94-7.06,2.79-7.81,6.32-.44,2.09.5,6,1.34,8.79.58,2,1.11,3.42,1.11,3.42l.17-.09c.75-.4,3.86-2.08,5-3.38.88-1,4.27-3.17,7.55-5.28,1.61-1,3.19-2.05,4.44-2.9,3.37-2.3,14.21-7.35,21.53-9.27,1-.25,1.87-.46,2.69-.59a44.07,44.07,0,0,0,15.71-5.39c3.4-2,5.4-6.78,6.61-6.88a.55.55,0,0,0,.17-.05c1.1-.3,1.72-2.55,1.72-2.55l-.63,0C84.53,20.78,62.89,19.23,57.87,22.69Z"/>
            </g>
            <path class="cls-9" d="M109.15,255.34c.1.38,1.57,1.87,1.57,1.48.09-11.78-1.56-52.88-13.89-98.55-15-55.74-15.36-93.09-16.83-102L63.9,69.82s-.27,23.53-1.34,39.58,20.35,70.28,24,101.32C89.67,238.05,105.37,240.9,109.15,255.34Z"/>
            <path class="cls-10" d="M105.71,312.86c-4.32,9.85-19.18,17.75-15.44,67.27.63,8.29,7.94,28.21,7.82,32.67s-4.24,3.51-5.72,3.51a73.35,73.35,0,0,1-5.51-12.64C83,392.52,75,365.26,74.59,354.47S55.7,284.92,51.41,256c-4.06-27.42-5.43-50.59-1-71.46,4.6-21.57,12.65-48.33,11.9-77l.29.94c0,.29,0,.58,0,.86-1.07,16,20.35,70.28,24,101.32,2.83,24.5,18.28,26.6,24.25,44.86C111.49,257.81,113,296.14,105.71,312.86Z"/>
            <path id="BF_PC" data-name="BF PC" class="cls-11" d="M144.86,163.26,126.64,310.13s7.88,27.72,11.53,34.57,14.24,22.38,10.64,48.16a6.92,6.92,0,0,0,.14,1.67c-.18,3.53.22,2.87.22,2.87s-1.17,3.38,1.24-3.38c4.41-12.4,12.64-39.2,23.82-91.52C181.47,225,144.86,163.26,144.86,163.26Z"/>
            <g>
              <path id="BF_PL" data-name="BF PL" class="cls-11" d="M83.34,95.5c27,62.31,27.67,138.38,27.5,176.06-.18,42.94,14.51,46.9,29,75s8.77,50.1,8.77,50.1,2.29-6.29,2.29.78C164.21,366.18,166.06,292.57,159,252s-21.19-96.67-52.61-138.49S77.94,69.39,77.94,69.39l4.27,26"/>
              <path id="BF_INS" data-name="BF INS" class="cls-12" d="M79.26,59,69.16,69.39s3.18,1.75,7.62,13.53c1.84,4.39,25.6,51.27,31,120,0,0,2.85,42.29,2.94,52.7s2.31,4.64,3.06-3.17-2.09-74.16-13.2-112.1c-9.91-33.83-10.65-34.7-10.13-37.58s4.59-2.09,5.2-1.39a104.18,104.18,0,0,0,7.59,7.65S83.73,80.66,81.49,71.08C78.56,62.48,79.26,59,79.26,59Z"/>
              <path id="BF_INS_DISTAL" data-name="BF INS DISTAL" class="cls-12" d="M153.35,229.53c5.34,0,9,41.93,10.62,78.32a356.89,356.89,0,0,1-1.08,42c-1,7.06-5.7,20.69-6.75,34s4.9,13.38,4.52,17.28c-8.61-6.81-14.06-.86-14.06-.86A139.59,139.59,0,0,1,151,384.4c2.91-8.61,4.39-22.53,7.37-45.67a431,431,0,0,0-1.21-49.53C154.91,263.48,151.17,229.53,153.35,229.53Z"/>
            </g>
          </g>
          <g>
            <g class="cls-13">
              <path id="ST" class="cls-12" d="M91.55,310.29c13.54-9.43,24.06-66.38,11.12-144.45C93.37,118.92,89,111.37,81.54,93.62c-8-18.92-9.42-24.43-10.44-26.94-1.55,2-2.81,1.75-6.22,4.61.62,5.06,6.44,23.29,6.27,28.4-.34,10.79-4,58.65-3.41,74.91,1.31,37,12.12,112.58,7.74,134.79-5.37,27.23.2,22.38,3.19,22.12S81,317.62,91.55,310.29Z"/>
            </g>
            <path class="cls-12" d="M71.14,66.47l-3.4,2.92s4.58,11.66,6.37,17.55S82.65,108.21,84.88,111c2.84,4.24,4.09,4.51,6.59,7.9,0-2.55-4.48-12.23-10.41-26.72S71.14,66.47,71.14,66.47Z"/>
            <path class="cls-12" d="M77.86,285.72c.92,7.18-1.73,28.43-2.83,41.93s.12,36.7,1.42,49.07a126.78,126.78,0,0,0,11.81,40.85c1.22,2.35-3,1.64-6.48-2.85s-11.49-23.6-11.67-57.55c-.15-28.92,4.81-74.74,6-76.69S77.32,281.46,77.86,285.72Z"/>
          </g>
        </g>
        <g>
          <path class="cls-2" d="M401.23,23.17v93.94s5.63,117.2,27.75,192,26.07,82.15,24.09,94.53-6,28.23-6,28.23h111.4s-.15-36.18-.35-48.58C557.94,373,595.92,240,570.24,107.6c-2.5-12.58-.64-27.53,1.07-38.21S577,23.17,577,23.17Z"/>
          <g>
            <path class="cls-3" d="M515.53,4s-1.24,10.66,5,16.6,9.66,5.71,16.6,3.72,12.4-6.14,19.09,1.27,6,11.13,6.2,16.58,2.48,19.58-6.94,28.5S543,112.55,542.3,120.73s-12.89,164.84-13.63,178-4.54,18.94,6.11,45.22,4.68,28.84-.41,33.6c-2.86,2.68-8.43,6.7-20.33,5-7.93-1.24-7.19-3.72-8.92-9.66s-.62-6.33-5.83-6.82-6.32,9.29-7.8,11.52-7.69,7.39-19.34,5.31-12.39-21.42-10.66-27.12,27.95-23.92,34.64-74.67,14.5-193.52,11.16-199.1S501,73,500.6,71.16s-.46-3.44,2.09-5.86,6.83-4.09,7.76-4.55c-.37-1.12-7.63-15.06-17.48-21.19-5-1.12-11.71.37-13.75-.19s-3.72-8.36,4-20.63S508.84,4.24,515.53,4Z"/>
            <path class="cls-4" d="M493.16,4.61s-9.3,8.27-12.18,12.64-7.57,18.22-7.57,18.22l5.81,3.9,6.13-9.76L496.78,20l15-7.25,2.84-1,1.06-1.67L515.53,4Z"/>
            <path class="cls-5" d="M491.36,27.66c4-3.93,12-10.65,18.47-12.64s6.66-1.23,6.66-1.23l-.8-3.7S504.38,13.16,499.05,16,481,32.49,480,34.6a10.58,10.58,0,0,0-.74,4.77h1.86S483.8,35.09,491.36,27.66Z"/>
            <path class="cls-6" d="M530.22,431.9h10.22s1-8.55,6.63-14.31,6.14-11.37,5.58-13.92-4.65-6.53-9.2-6.07-7.35-1.21-10.23,1.68S521.6,417.4,521.6,417.4a12.31,12.31,0,0,1,4.84,3.25c1.67,2.14,3.53,4.65,3.71,6.42A43.78,43.78,0,0,1,530.22,431.9Z"/>
            <path class="cls-3" d="M520.49,431.56s6.19-19.83,14.62-29.25,3.72-26.52,3.72-26.52a58.77,58.77,0,0,1-10.41,7.53c-4,2.16-15.12,2.07-18.84,0a28.05,28.05,0,0,1-6.89-6s0,2.72-1.91,3.71c-1.61.84-6.57-.49-6.32-3.71s0,12.14-30.18,6c-2.73,4.95,2.17,15.27,3.66,18s12.89,15.37,16.36,30.24Z"/>
            <g>
              <path class="cls-7" d="M427,56.91c1.61,3.34,5.45,5.45,12.39,4.71s12.65-5.46,13.76-15.87a28.53,28.53,0,0,0-.51-9.14c-7.32,1.92-18.15,7-21.52,9.27-1.25.85-2.83,1.87-4.44,2.9C426.55,52.88,426.6,56,427,56.91Z"/>
              <path class="cls-8" d="M479.19,3.12c-8.6-3.8-31,18.78-31,18.78l.14.79c5-3.46,26.66-1.91,30.59-1.59a28.43,28.43,0,0,1,4.56-7c.62-.67,8.71-8.77,10.56-9.49C496.23,3.74,480.69,3.78,479.19,3.12Z"/>
              <path class="cls-3" d="M471.09,30.63A44.13,44.13,0,0,1,455.37,36c-.81.13-1.72.34-2.69.59a28.53,28.53,0,0,1,.51,9.14c-1.11,10.41-6.82,15.12-13.76,15.87S428.65,60.25,427,56.91c-.44-.91-.49-4-.32-8.13-3.29,2.11-6.68,4.28-7.55,5.28a22.68,22.68,0,0,1-5,3.38c2.2,5.56,4.32,10.1,5.94,12,5.7,6.48,12.92,11.93,27,9.45s27-19.58,27.76-23.3c.34-1.7,2.7-3.44,2.66-8.36,0-4.19-2.66-10.79-.66-20.26a23.75,23.75,0,0,1,1-3.22.55.55,0,0,1-.17.05C476.49,23.85,474.49,28.59,471.09,30.63Z"/>
              <path class="cls-6" d="M448.37,22.69a2.44,2.44,0,0,0-.85.88c-2.7,5-10,10.38-16.36,12.45-.59.2-1.88.64-3.65,1.15A65,65,0,0,1,419.36,39c-5.95.94-7.07,2.79-7.81,6.32-.44,2.09.49,6,1.33,8.79.58,2,1.12,3.42,1.12,3.42l.16-.09a22.68,22.68,0,0,0,5-3.38c.87-1,4.26-3.17,7.55-5.28,1.61-1,3.19-2.05,4.44-2.9,3.37-2.3,14.2-7.35,21.52-9.27,1-.25,1.88-.46,2.69-.59a44.13,44.13,0,0,0,15.72-5.39c3.4-2,5.4-6.78,6.61-6.88a.55.55,0,0,0,.17-.05c1.09-.3,1.72-2.55,1.72-2.55l-.63,0C475,20.78,453.39,19.23,448.37,22.69Z"/>
            </g>
            <path class="cls-12" d="M499.64,255.34c.1.38,1.58,1.87,1.58,1.48.09-11.78-1.56-52.88-13.89-98.55-15.05-55.74-15.36-93.09-16.84-102l-16.1,13.56s-.26,23.53-1.33,39.58S473.41,179.68,477,210.72C480.17,238.05,495.86,240.9,499.64,255.34Z"/>
            <path class="cls-11" d="M496.2,312.86c-4.31,9.85-19.17,17.75-15.43,67.27.63,8.29,7.94,28.21,7.81,32.67s-4.23,3.51-5.72,3.51a73.94,73.94,0,0,1-5.5-12.64c-3.89-11.15-11.9-38.41-12.27-49.2s-18.9-69.55-23.18-98.45c-4.07-27.42-5.43-50.59-1-71.46,4.59-21.57,12.64-48.33,11.9-77l.29.94c0,.29,0,.58-.05.86-1.07,16,20.35,70.28,23.94,101.32,2.84,24.5,18.29,26.6,24.26,44.86C502,257.81,503.53,296.14,496.2,312.86Z"/>
            <path id="BF_PC-2" data-name="BF PC" class="cls-11" d="M535.36,163.26,517.14,310.13s7.88,27.72,11.53,34.57,14.24,22.38,10.64,48.16a6.43,6.43,0,0,0,.14,1.67c-.19,3.53.21,2.87.21,2.87s-1.17,3.38,1.24-3.38c4.42-12.4,12.65-39.2,23.83-91.52C572,225,535.36,163.26,535.36,163.26Z"/>
            <g>
              <path id="BF_PL-2" data-name="BF PL" class="cls-11" d="M473.83,95.5c27,62.31,27.67,138.38,27.51,176.06-.19,42.94,14.51,46.9,29,75s8.77,50.1,8.77,50.1,2.29-6.29,2.29.78c13.3-31.24,15.14-104.85,8.08-145.38s-21.2-96.67-52.61-138.49-28.45-44.16-28.45-44.16l4.28,26"/>
              <path id="BF_INS-2" data-name="BF INS" class="cls-12" d="M469.75,59,459.66,69.39s3.18,1.75,7.62,13.53c1.84,4.39,25.6,51.27,31,120,0,0,2.85,42.29,2.94,52.7s2.31,4.64,3.05-3.17-2.09-74.16-13.2-112.1c-9.9-33.83-10.65-34.7-10.13-37.58s4.6-2.09,5.21-1.39a102,102,0,0,0,7.59,7.65S474.23,80.66,472,71.08C469.05,62.48,469.75,59,469.75,59Z"/>
              <path id="BF_INS_DISTAL-2" data-name="BF INS DISTAL" class="cls-12" d="M543.85,229.53c5.34,0,9,41.93,10.61,78.32a357.65,357.65,0,0,1-1.07,42c-1,7.06-5.7,20.69-6.75,34s4.89,13.38,4.52,17.28c-8.61-6.81-14.07-.86-14.07-.86a142.19,142.19,0,0,1,4.4-15.87c2.92-8.61,4.4-22.53,7.38-45.67a429.72,429.72,0,0,0-1.22-49.53C545.41,263.48,541.66,229.53,543.85,229.53Z"/>
            </g>
          </g>
          <g>
            <path id="ST-2" data-name="ST" class="cls-14" d="M482,310.29c13.55-9.43,24.07-66.38,11.13-144.45-9.3-46.92-13.64-54.47-21.13-72.22-8-18.92-9.42-24.43-10.45-26.94-1.54,2-2.81,1.75-6.22,4.61.63,5.06,6.44,23.29,6.28,28.4-.34,10.79-4,58.65-3.42,74.91,1.32,37,12.13,112.58,7.75,134.79-5.37,27.23.2,22.38,3.19,22.12S471.51,317.62,482,310.29Z"/>
            <path class="cls-9" d="M461.64,66.47l-3.41,2.92s4.59,11.66,6.37,17.55,8.54,21.27,10.77,24.08c2.85,4.24,4.1,4.51,6.6,7.9,0-2.55-4.48-12.23-10.41-26.72S461.64,66.47,461.64,66.47Z"/>
            <path class="cls-9" d="M468.36,285.72c.92,7.18-1.74,28.43-2.83,41.93s.12,36.7,1.41,49.07a127.05,127.05,0,0,0,11.81,40.85c1.22,2.35-3,1.64-6.47-2.85s-11.49-23.6-11.67-57.55c-.15-28.92,4.8-74.74,6-76.69S467.81,281.46,468.36,285.72Z"/>
          </g>
        </g>
        <g>
          <path class="cls-15" d="M307,99.45c-3,0-4.36-.26-4.28-1.38s2.33-2.6,4.28-3.73,4.11-2.25,5-2,2.38,1.91.48,4.46S309.42,99.44,307,99.45Z"/>
          <path class="cls-16" d="M331,94.8c-3.28-1.85-5.19-3.28-8.71-3s-6.12,2.79-3.64,4.08,4.13.71,5.33.77,4.08,1.1,5.35,1.27,4.85-.85,3.17-2.39A5.77,5.77,0,0,0,331,94.8Z"/>
          <path class="cls-14" d="M293.84,83.87c-3.28,1.09-9.09,5.44-9.78,6.62s-2.16,3.77,2.34,2.81a14.47,14.47,0,0,1,9.87,1.13c2.42,1.13,5.8,1.73,8.57-.52s8.31-8.14,2.16-9.35S295.08,83.46,293.84,83.87Z"/>
          <path class="cls-15" d="M306.53,87.16c.13,2,.08,2.72-1.6,4.63s-3.86,4.76-.44,3.38,6.76-4,8.36-4.68-1.17-4.37-2.43-4.8S306.4,85.21,306.53,87.16Z"/>
        </g>
        <g>
          <path class="cls-15" d="M317.33,126.29s6-.67,9.93,2.56,13.1,20.72,12.74,25.43-3.45,6.34-3.45,6.34-22.28-7.88-25.78-6.94-22.28.61-29.75-7.13-3.56-8.56-3.52-11.46C278.93,135.22,317.33,126.29,317.33,126.29Z"/>
          <path class="cls-14" d="M303.57,122.34c-4.49,0-16,.36-23,7s-3,12.93,0,16,12.21,7.36,18.67,7.53c2.87,0,3.19-1,4-1.16a10,10,0,0,1,3.86.67,8.2,8.2,0,0,0,3.77.27c.72-.13,3.1-.36,3.86-4.94s2.51-5,3.05-6.5a34,34,0,0,1,2.06-6.15c1.89-4.35,1.62-2.11,1.26-7.58S303.57,122.34,303.57,122.34Z"/>
          <path class="cls-17" d="M321.87,136.34c-.88,2.67-2.51,6.82-3.32,8.8s-2.15,5,0,5.83a29.85,29.85,0,0,0,8.15,1.88c4,.45,7.92,2.34,10.16,3.06s5.65,4.12,4.49-3.41-5.3-17.68-8.08-20.28-5.83-5.57-8.08-5.3a3.24,3.24,0,0,0-2.87,3.23C322.32,131.14,322.5,134.44,321.87,136.34Z"/>
          <path class="cls-14" d="M282.08,127.77s-5.37-.87-7,2.29,1.28,11.31,1.28,11.31S274.2,131.81,282.08,127.77Z"/>
          <ellipse class="cls-16" cx="316.42" cy="152.56" rx="4.1" ry="2.22"/>
        </g>
        <g>
          <path class="cls-14" d="M300.16,303.73c4.13.31,12.8-.48,16.14-1.91a6.83,6.83,0,0,0,4.21-5.33c0-.79-1.35-8.18-4.85-12.56a116.09,116.09,0,0,1-8.82-12.72c-1.67-2.94-8.11-6.44-13.2-6.91s-15.82.31-17.41,3.89-3.16,13.22-1.2,18C277.28,291.71,283.75,302.49,300.16,303.73Z"/>
          <path class="cls-14" d="M260.6,323.68a120.78,120.78,0,0,0,27.67,0c10-1.07,17.05-1.43,16.57-5.84s-1.75-8.49-10.49-13.16-19.4-8.43-21.94-27.74c-1.59-9.62-2.27-8.95-8.11-7.52s-16.82,11.39-19.5,15.92-3.32,5.47-4.19,15.09-2.19,10.37,5,16.81S254.65,323.06,260.6,323.68Z"/>
          <path class="cls-15" d="M365.42,286.24h1.92s3.57,10.79,5.41,16.51,1.38,6,0,6.62-19.57,5.25-19.57,5.25l-1.43-6.36Z"/>
          <path class="cls-15" d="M279.14,287.55c-1.31-1.66-3.1-4.17-2.38-6.38s1.91-3,4.17-3.1a18.08,18.08,0,0,1,7.87,1.13c1.19-.06,1.19-.12.42-.59S282.66,275,279.08,276s-4.41,3.75-4.35,6.26,4.06,6.87,6.14,8.23,1.67.43,1.37,0S279.93,288.54,279.14,287.55Z"/>
          <path class="cls-17" d="M347.77,343.48c3.11-6,7.63-14.43,9.9-17.17s9.3-11.57,12.28-14,3.66-2.78,3.44-4.11a30.52,30.52,0,0,0-2-6.28c-.81-1.58-2-.62-2.77-.06s-27.67,17.89-30.53,23.29-2.54,7.16-1.75,14.63,1.73,10.75,3,12.9,1.26,2.62,1.91,2.44S346.68,345.56,347.77,343.48Z"/>
          <path class="cls-17" d="M330.72,262c8.34-.32,20.39,1.55,29,11.93s8.7,15.74,9.66,20.86,1.25,4.65-1.5,6.47-18.53,12.26-23.31,17.57c-2.32.65-6.68-.28-9.21-1.38s-8.56-4.29-10.23-6.28-1.59-8.19-1.9-14.95-7.85-12.56-10.41-18.44-2-7.47-1.12-9.54S313.19,262.71,330.72,262Z"/>
          <path class="cls-15" d="M324.72,294c.68,1.09.47,2.23,5.32,3.89s5,2.31,4.45,2.59a12.39,12.39,0,0,1-6.59-1c-1.91-1.11-6.2-2.22-5.49-11.2s1.19-5.09,1.19-5.09S323.13,291.41,324.72,294Z"/>
          <path class="cls-15" d="M278.73,306.87c2.87-.62,6.67-1.13,7.87-.72a30.22,30.22,0,0,0,7.57,1.37,5.32,5.32,0,0,1,4.83,2.93c.53.83,2.08.29,1.31-.72s-3.7-4.53-6.8-4.35-4-.54-7.33-.9-6.2-1.07-10.44,1.85S277.91,307,278.73,306.87Z"/>
        </g>
        <g>
          <path class="cls-14" d="M299.17,384.71c5.8,4.75,9.34,10.1,10.21,16.51s-.65,15.3-6.63,20.73-12.37,9.88-20.08,9.88-19.65,1.74-30.62-10.42-13.35-12.05-11.29-22.47,9.77-12.16,11.73-11.19A20.4,20.4,0,0,0,263.24,390c5.1-.32,12.81-4.31,14-7.42s4.83-5.6,9.63-4.74S298.43,384.11,299.17,384.71Z"/>
          <path class="cls-14" d="M266.49,378.53c-3.66.85-10.49,3.9-8.39,6.58s5.06,2.39,6.8,2.32,9.27-.81,9.48-4.82S272.43,377.15,266.49,378.53Z"/>
          <path class="cls-15" d="M361.52,395.1s-6.08-8.72-10-11.83-8.73-7.67-11.79-7.91-2.26,14.06-2.26,14.06,1.05,5.75,1.38,5.68,21.28.94,21.28.94S361.9,395.25,361.52,395.1Z"/>
          <path class="cls-15" d="M266.05,382.07a15.54,15.54,0,0,0-5.17,1.12c-2.09,1-2.34,2.47-2,2.74a4.83,4.83,0,0,0,2.81,1.54c1.77.32,8.25-.11,9.74-1s2.9-2.1,2.82-3.1c-1.74,1.44-1.49,2.48-5.07,2.45s-8.76.86-5-2.1A15.44,15.44,0,0,0,266.05,382.07Z"/>
          <path class="cls-15" d="M253.47,423.85c3.19,2.3,9.28,7,14.27,8.07a64.33,64.33,0,0,0,16,.83,10.81,10.81,0,0,0,4.92-1.84s-8,.81-9.54.6-6.13.38-9.72-.87-6.13-3.37-8.41-4.29a43.94,43.94,0,0,1-9.5-6.62c-1.9-1.9-4-3.94-4.81-4.09s-.24,1.26-.24,1.26S252.34,423,253.47,423.85Z"/>
          <path class="cls-17" d="M329.57,372.66c-6.41-1-14.26-1.73-17,.87s-1.56,6,1.38,8.58,4.45,5.75,9.77,7.71,12.81,2.06,17.69-1.31,8.57-5.13,6.3-7.6C345,378,339.56,374.18,329.57,372.66Z"/>
          <path class="cls-17" d="M337.71,428.47c.29-8.73-3.36-20.63-5.64-25s-3.37-10.1,0-11.08,11.79-2.94,15.38-7.59c2.39-2.69,8.07,3.68,8.07,3.68s9.55,9.23,9.44,16,.22,15-8.25,23.34S346,438.56,343.79,439.87,337.17,444.64,337.71,428.47Z"/>
        </g>
        <g>
          <path class="cls-14" d="M264.62,202.21s-18.28,5.89-22.48,11.6-3.92,13,2.14,13,15.71.1,23.47,1.35,8.32,1,8.32,1-11.36-8-12.49-14.48A27.49,27.49,0,0,1,264.62,202.21Z"/>
          <path class="cls-15" d="M306.44,200.16s10.19-1.78,10.73-1.42,8,18.64,6.15,21.85-3.48,7.19-13.11,6.23S306.44,200.16,306.44,200.16Z"/>
          <path class="cls-14" d="M302.36,196.59c-4.46-1.43-9.64-3.39-16-2.67s-11.51,2.5-14.36,2.67-6.51,5.27-7,8.48-.8,11.33,3.66,16.15,8.47,8.47,10.26,8.83,3.69,2.67,5,3.3a14.73,14.73,0,0,0,10.6.53c4.81-1.69,6.24.27,12.22-1.87s14.09-7.32,14.63-8.21-5.09-17.13-7.85-19.71S306,197.76,302.36,196.59Z"/>
          <path class="cls-17" d="M330.49,187.2c11.8,3.61,16.41,7.49,18.31,9s9.52,8.44,8.69,17.6-10,13.2-11.78,13-7-2.74-8.8-3-2.88-2-4.49-3.6-3.48-.35-4.37-.09a18.84,18.84,0,0,1-4.73.45c-.36-.18-4.46-12.49-6-14s-6.15-6-9.36-8.57-6.25-3.66-3.3-6.24S318.3,183.47,330.49,187.2Z"/>
          <path class="cls-15" d="M282.64,196.59s5.89,5.45,8,8.12,4.19,6.25,2.05,8.21-6.42,1.52-9.27,1.52-6.16,2.85-6.78,3.74-2.32,4.19-3.48,5.35-.2.87-.2.87a62.05,62.05,0,0,0,5.93-5.46c1.72-2,5.89-2.54,6.56-2.56s6.71,1.09,9.38-3.59S289.33,201.28,282.64,196.59Z"/>
        </g>
        <line class="cls-18" x1="10.75" y1="97.11" x2="186.26" y2="97.11"/>
        <line class="cls-18" x1="10.75" y1="140.37" x2="186.26" y2="140.37"/>
        <line class="cls-18" x1="10.75" y1="254.92" x2="186.26" y2="254.92"/>
        <line class="cls-18" x1="10.75" y1="317.88" x2="186.26" y2="317.88"/>
        <line class="cls-18" x1="10.75" y1="194.49" x2="186.26" y2="194.49"/>
        <line class="cls-18" x1="402.44" y1="97.11" x2="577.95" y2="97.11"/>
        <line class="cls-18" x1="10.75" y1="69.3" x2="186.26" y2="69.3"/>
        <line class="cls-18" x1="402.44" y1="69.3" x2="577.95" y2="69.3"/>
        <line class="cls-18" x1="402.44" y1="140.37" x2="577.95" y2="140.37"/>
        <line class="cls-18" x1="402.44" y1="254.92" x2="577.95" y2="254.92"/>
        <line class="cls-18" x1="402.44" y1="317.88" x2="577.95" y2="317.88"/>
        <line class="cls-18" x1="402.44" y1="194.49" x2="577.95" y2="194.49"/>
      </g>
      <g>
        <path class="cls-15" d="M314.23,39.69a9.17,9.17,0,0,1,5.11,3.09c.69,1.17,3.9,3.14,3,6.38s-.11,4.53-2,4.92-5.6-2.64-6-3.53S310.52,39,314.23,39.69Z"/>
        <path class="cls-15" d="M320.18,55.71a4.13,4.13,0,0,1-.22,3.92,5.07,5.07,0,0,1-4.87,2.73C312.74,62.05,310,58.79,310,57s1.94-5.74,2.3-6.33S319.28,52.84,320.18,55.71Z"/>
        <path class="cls-3" d="M290.08,35.91c5.35-1.66,14.53-1.37,17.43-1s7.46.87,8.68,4.37.45,7.92-.87,12.07-1.75,8.92-3.94,9.92-8.08-1.34-11.81-6.74S284.25,37.73,290.08,35.91Z"/>
      </g>
      <rect class="cls-1" width="595.28" height="23.7"/>
    </g>
  </g>
</svg>
