<svg xmlns="http://www.w3.org/2000/svg" xmlns:xlink="http://www.w3.org/1999/xlink" viewBox="0 0 586.28 434.58">
  <defs>
    <style>
      .cls-1 {
        fill: #4d4c4c;
      }

      .cls-2 {
        fill: #424242;
      }

      .cls-3, .cls-8 {
        fill: #bab9aa;
      }

      .cls-3, .cls-6 {
        stroke: #7f7f78;
      }

      .cls-10, .cls-18, .cls-3, .cls-6 {
        stroke-miterlimit: 10;
      }

      .cls-10, .cls-3, .cls-6 {
        stroke-width: 0.25px;
      }

      .cls-4 {
        fill: #c2e3e5;
      }

      .cls-5 {
        fill: #fff;
      }

      .cls-6 {
        fill: #a09e8b;
      }

      .cls-18, .cls-7 {
        fill: none;
      }

      .cls-9 {
        fill: #d8d8d7;
      }

      .cls-10 {
        stroke: #451119;
        fill: url(#Degradado_sin_nombre_25);
      }

      .cls-11, .cls-12 {
        fill: #afafaf;
      }

      .cls-11, .cls-13 {
        opacity: 0.6;
      }

      .cls-14 {
        fill: #c54950;
      }

      .cls-15 {
        fill: #fefcfb;
      }

      .cls-16 {
        fill: #c9cc2e;
      }

      .cls-17 {
        fill: #8d8d8e;
      }

      .cls-18 {
        stroke: #f6e81d;
        stroke-width: 2px;
      }
    </style>
    <linearGradient id="Degradado_sin_nombre_25" data-name="Degradado sin nombre 25" x1="3208.69" y1="338.18" x2="3245.01" y2="282.47" gradientTransform="matrix(-1, 0, 0, 1, 3380.09, 0)" gradientUnits="userSpaceOnUse">
      <stop offset="0" stop-color="#d8d8d7"/>
      <stop offset="0.09" stop-color="#d5b9b9"/>
      <stop offset="0.23" stop-color="#d18c8f"/>
      <stop offset="0.36" stop-color="#ce686d"/>
      <stop offset="0.49" stop-color="#cc4f55"/>
      <stop offset="0.61" stop-color="#ca3f46"/>
      <stop offset="0.7" stop-color="#ca3a41"/>
    </linearGradient>
  </defs>
  <g id="Capa_2" data-name="Capa 2">
    <g id="Capa_1-2" data-name="Capa 1">
      <g>
        <rect class="cls-1" width="586.28" height="433.99" transform="translate(586.28 433.99) rotate(-180)"/>
        <g>
          <g>
            <path class="cls-2" d="M192.14,0V119.67s-5.64,117.2-27.76,192-26.07,82.15-24.09,94.54,6,28.23,6,28.23H34.9s.16-36.18.36-48.59c.16-10.28-37.82-143.29-12.13-275.72,2.49-12.57.63-27.52-1.07-38.21S16.35,0,16.35,0Z"/>
            <g>
              <path class="cls-3" d="M77.83,6.54s1.24,10.66-5,16.61-9.67,5.7-16.61,3.72-12.39-6.15-19.09,1.26S31.24,39.26,31,44.72s-2.48,19.58,6.94,28.5,12.39,41.89,13.13,50.07S64,288.12,64.7,301.26s4.54,18.94-6.12,45.21-4.68,28.84.42,33.61c2.86,2.68,8.42,6.69,20.32,5,7.93-1.24,7.19-3.72,8.92-9.67s.62-6.32,5.83-6.81,6.32,9.29,7.81,11.52,7.68,7.39,19.33,5.31S133.6,364,131.87,358.27s-27.95-23.92-34.64-74.67S82.73,90.08,86.08,84.5s6.32-8.92,6.69-10.78.45-3.44-2.1-5.86-6.82-4.09-7.75-4.55c.37-1.12,7.62-15.06,17.47-21.2,5-1.11,11.71.38,13.76-.18s3.71-8.37-4-20.64S84.53,6.79,77.83,6.54Z"/>
              <path class="cls-4" d="M100.2,7.16s9.3,8.28,12.18,12.65S120,38,120,38l-5.8,3.91L108,32.17,96.58,22.59l-15-7.25-2.85-1-1-1.67.15-6.11Z"/>
              <path class="cls-5" d="M102,30.22c-4-3.94-12-10.65-18.46-12.65s-6.67-1.23-6.67-1.23l.81-3.69S89,15.72,94.32,18.57s18.09,16.48,19.08,18.59a10.65,10.65,0,0,1,.75,4.77h-1.86S109.56,37.65,102,30.22Z"/>
              <path class="cls-6" d="M63.15,434.46H52.92s-1-8.55-6.63-14.32-6.13-11.37-5.57-13.91,4.64-6.54,9.2-6.07,7.34-1.21,10.22,1.67S71.76,420,71.76,420a12.11,12.11,0,0,0-4.83,3.25c-1.68,2.14-3.53,4.65-3.72,6.41A43,43,0,0,0,63.15,434.46Z"/>
              <path class="cls-3" d="M72.88,434.12s-6.2-19.83-14.63-29.25-3.72-26.52-3.72-26.52A58.84,58.84,0,0,0,65,385.87c4,2.17,15.12,2.08,18.83,0a27.83,27.83,0,0,0,6.89-6s0,2.73,1.91,3.72c1.62.84,6.57-.49,6.32-3.72s0,12.15,30.19,6c2.72,5-2.18,15.28-3.67,18s-12.88,15.36-16.35,30.24Z"/>
              <g>
                <path class="cls-7" d="M166.32,59.46c-1.61,3.35-5.45,5.46-12.39,4.71s-12.64-5.45-13.76-15.86a28.82,28.82,0,0,1,.51-9.14c7.32,1.91,18.16,7,21.52,9.26,1.25.86,2.84,1.87,4.44,2.9C166.81,55.44,166.76,58.56,166.32,59.46Z"/>
                <path class="cls-8" d="M114.17,5.68c8.61-3.8,31,18.77,31,18.77l-.13.8c-5-3.47-26.66-1.91-30.6-1.59a28.25,28.25,0,0,0-4.56-7c-.61-.67-8.71-8.77-10.56-9.49C97.13,6.3,112.67,6.34,114.17,5.68Z"/>
                <path class="cls-3" d="M122.28,33.19A44,44,0,0,0,138,38.58a26,26,0,0,1,2.69.59,28.82,28.82,0,0,0-.51,9.14c1.12,10.41,6.82,15.12,13.76,15.86s10.78-1.36,12.39-4.71c.44-.9.49-4,.32-8.13,3.29,2.11,6.68,4.28,7.55,5.28,1.14,1.31,4.25,3,5,3.39-2.2,5.55-4.31,10.1-5.94,11.94-5.7,6.49-12.92,11.93-27,9.46s-27-19.58-27.77-23.3c-.34-1.7-2.7-3.44-2.66-8.36,0-4.19,2.66-10.8.66-20.26a24.58,24.58,0,0,0-1-3.22c.06,0,.11,0,.17,0C116.87,26.4,118.88,31.15,122.28,33.19Z"/>
                <path class="cls-6" d="M145,25.25a2.49,2.49,0,0,1,.84.88c2.7,5,10,10.38,16.36,12.45.6.2,1.89.64,3.65,1.15A66.6,66.6,0,0,0,174,41.56c6,.94,7.06,2.78,7.8,6.32.44,2.08-.49,6-1.33,8.79-.58,2-1.11,3.42-1.11,3.42L179.2,60c-.76-.4-3.87-2.08-5-3.39-.87-1-4.26-3.17-7.55-5.28-1.6-1-3.19-2-4.44-2.9-3.36-2.3-14.2-7.35-21.52-9.26a26,26,0,0,0-2.69-.59,44,44,0,0,1-15.71-5.39c-3.4-2-5.41-6.79-6.61-6.88-.06,0-.11,0-.17,0-1.1-.31-1.72-2.55-1.72-2.55l.62-.05C118.34,23.34,140,21.78,145,25.25Z"/>
              </g>
              <path class="cls-9" d="M93.72,257.9c-.1.38-1.57,1.87-1.58,1.47-.08-11.77,1.56-52.87,13.9-98.55,15-55.73,15.36-93.08,16.83-102L139,72.37s.27,23.53,1.34,39.59-20.36,70.28-24,101.31C113.2,240.61,97.5,243.46,93.72,257.9Z"/>
              <path class="cls-10" d="M97.16,315.42c4.32,9.85,19.18,17.75,15.43,67.26-.62,8.29-7.93,28.22-7.81,32.68s4.23,3.51,5.72,3.51a72.68,72.68,0,0,0,5.5-12.64c3.89-11.15,11.9-38.42,12.28-49.2s18.89-69.55,23.17-98.45c4.07-27.43,5.44-50.6,1-71.46-4.59-21.57-12.64-48.34-11.9-77l-.29.95.06.86c1.07,16-20.36,70.28-24,101.31-2.84,24.51-18.28,26.61-24.26,44.86C91.37,260.37,89.83,298.7,97.16,315.42Z"/>
              <path id="BF_PC" data-name="BF PC" class="cls-11" d="M58,165.82,76.22,312.68s-7.87,27.73-11.52,34.58c-3.57,6.69-14.25,22.38-10.64,48.16a6.17,6.17,0,0,1-.15,1.66c.19,3.53-.21,2.87-.21,2.87s1.17,3.39-1.24-3.38c-4.41-12.39-12.64-39.19-23.83-91.51C21.4,227.54,58,165.82,58,165.82Z"/>
              <g>
                <path id="BF_PL" data-name="BF PL" class="cls-11" d="M119.53,98.06C92.57,160.37,91.86,236.44,92,274.12c.19,42.94-14.5,46.9-29,75s-8.77,50.11-8.77,50.11S52,392.91,52,400c-13.3-31.23-15.14-104.85-8.07-145.37s21.19-96.67,52.61-138.5,28.44-44.16,28.44-44.16l-4.27,26"/>
                <path id="BF_INS" data-name="BF INS" class="cls-12" d="M123.61,61.54l10.09,10.4s-3.17,1.76-7.61,13.54c-1.84,4.38-25.61,51.27-31,120,0,0-2.86,42.3-3,52.7s-2.31,4.65-3-3.16,2.09-74.16,13.2-112.1c9.91-33.83,10.65-34.7,10.13-37.58s-4.59-2.1-5.2-1.4a104.49,104.49,0,0,1-7.6,7.66s19.56-28.33,21.8-37.92C124.31,65,123.61,61.54,123.61,61.54Z"/>
                <path id="BF_INS_DISTAL" data-name="BF INS DISTAL" class="cls-12" d="M49.51,232.09c-5.33,0-9,41.92-10.61,78.32a357.45,357.45,0,0,0,1.07,42c1.06,7.07,5.7,20.7,6.76,34s-4.9,13.39-4.53,17.29c8.62-6.82,14.07-.87,14.07-.87A139.79,139.79,0,0,0,51.87,387c-2.92-8.61-4.4-22.53-7.37-45.67a428.33,428.33,0,0,1,1.21-49.53C48,266,51.7,232.09,49.51,232.09Z"/>
              </g>
            </g>
            <g>
              <g class="cls-13">
                <path id="ST" class="cls-12" d="M111.32,312.85c-13.54-9.43-24.06-66.38-11.13-144.45,9.31-46.92,13.65-54.47,21.14-72.22,8-18.93,9.42-24.43,10.44-26.94,1.54,2,2.81,1.74,6.22,4.6-.62,5.07-6.44,23.3-6.28,28.41.35,10.78,4,58.65,3.42,74.91-1.31,37-12.13,112.58-7.75,134.79,5.38,27.23-.2,22.37-3.18,22.12S121.85,320.18,111.32,312.85Z"/>
              </g>
              <path class="cls-12" d="M131.72,69l3.41,2.91s-4.59,11.67-6.37,17.56-8.54,21.26-10.77,24.07c-2.84,4.25-4.1,4.52-6.59,7.91,0-2.56,4.47-12.23,10.4-26.72S131.72,69,131.72,69Z"/>
              <path class="cls-12" d="M125,288.28c-.91,7.17,1.74,28.42,2.84,41.93s-.13,36.7-1.42,49.07a126.58,126.58,0,0,1-11.81,40.84c-1.22,2.36,3,1.65,6.47-2.85s11.49-23.59,11.67-57.54c.16-28.92-4.8-74.74-6-76.69S125.55,284,125,288.28Z"/>
            </g>
          </g>
          <g>
            <path class="cls-2" d="M582.63,0V119.67s-5.63,117.2-27.75,192-26.07,82.15-24.09,94.54,6,28.23,6,28.23H425.4s.15-36.18.35-48.59c.17-10.28-37.81-143.29-12.13-275.72,2.5-12.57.64-27.52-1.07-38.21S406.85,0,406.85,0Z"/>
            <g>
              <path class="cls-3" d="M468.33,6.54s1.24,10.66-5,16.61-9.66,5.7-16.6,3.72-12.4-6.15-19.09,1.26-5.95,11.13-6.2,16.59S419,64.3,428.42,73.22s12.4,41.89,13.14,50.07,12.89,164.83,13.63,178,4.54,18.94-6.11,45.21-4.68,28.84.41,33.61c2.86,2.68,8.43,6.69,20.33,5,7.93-1.24,7.19-3.72,8.92-9.67s.62-6.32,5.83-6.81,6.32,9.29,7.8,11.52,7.69,7.39,19.34,5.31S524.1,364,522.37,358.27s-27.95-23.92-34.64-74.67S473.23,90.08,476.57,84.5s6.32-8.92,6.69-10.78.46-3.44-2.09-5.86-6.83-4.09-7.76-4.55c.37-1.12,7.63-15.06,17.48-21.2,5-1.11,11.71.38,13.75-.18s3.72-8.37-4-20.64S475,6.79,468.33,6.54Z"/>
              <path class="cls-4" d="M490.7,7.16s9.3,8.28,12.18,12.65S510.45,38,510.45,38l-5.81,3.91-6.13-9.76-11.43-9.58-15-7.25-2.84-1-1.06-1.67.16-6.11Z"/>
              <path class="cls-5" d="M492.5,30.22c-4-3.94-12-10.65-18.47-12.65s-6.66-1.23-6.66-1.23l.8-3.69s11.31,3.07,16.64,5.92,18.1,16.48,19.09,18.59a10.57,10.57,0,0,1,.74,4.77h-1.86S500.06,37.65,492.5,30.22Z"/>
              <path class="cls-6" d="M453.64,434.46H443.42s-1-8.55-6.63-14.32-6.14-11.37-5.58-13.91,4.65-6.54,9.2-6.07,7.35-1.21,10.23,1.67S462.26,420,462.26,420a12.19,12.19,0,0,0-4.84,3.25c-1.67,2.14-3.53,4.65-3.71,6.41A44,44,0,0,0,453.64,434.46Z"/>
              <path class="cls-3" d="M463.37,434.12s-6.19-19.83-14.62-29.25S445,378.35,445,378.35a59,59,0,0,0,10.41,7.52c4,2.17,15.12,2.08,18.84,0a27.83,27.83,0,0,0,6.89-6s0,2.73,1.91,3.72c1.61.84,6.57-.49,6.32-3.72s0,12.15,30.18,6c2.73,5-2.17,15.28-3.66,18S503,419.24,499.56,434.12Z"/>
              <g>
                <path class="cls-7" d="M556.82,59.46c-1.61,3.35-5.45,5.46-12.39,4.71s-12.65-5.45-13.76-15.86a28.53,28.53,0,0,1,.51-9.14c7.32,1.91,18.15,7,21.52,9.26,1.25.86,2.83,1.87,4.44,2.9C557.31,55.44,557.26,58.56,556.82,59.46Z"/>
                <path class="cls-8" d="M504.67,5.68c8.6-3.8,31,18.77,31,18.77l-.14.8c-5-3.47-26.66-1.91-30.59-1.59a28.25,28.25,0,0,0-4.56-7c-.62-.67-8.71-8.77-10.56-9.49C487.63,6.3,503.17,6.34,504.67,5.68Z"/>
                <path class="cls-3" d="M512.77,33.19a44.13,44.13,0,0,0,15.72,5.39,27.22,27.22,0,0,1,2.69.59,28.53,28.53,0,0,0-.51,9.14c1.11,10.41,6.82,15.12,13.76,15.86s10.78-1.36,12.39-4.71c.44-.9.49-4,.32-8.13,3.29,2.11,6.68,4.28,7.55,5.28,1.14,1.31,4.25,3,5,3.39-2.2,5.55-4.32,10.1-5.94,11.94-5.7,6.49-12.92,11.93-27,9.46s-27-19.58-27.76-23.3c-.34-1.7-2.7-3.44-2.66-8.36,0-4.19,2.66-10.8.66-20.26a23.33,23.33,0,0,0-1-3.22c.06,0,.11,0,.17,0C507.37,26.4,509.37,31.15,512.77,33.19Z"/>
                <path class="cls-6" d="M535.49,25.25a2.44,2.44,0,0,1,.85.88c2.7,5,10,10.38,16.36,12.45.59.2,1.88.64,3.65,1.15a66.82,66.82,0,0,0,8.15,1.83c6,.94,7.07,2.78,7.81,6.32.44,2.08-.49,6-1.33,8.79-.58,2-1.12,3.42-1.12,3.42L569.7,60c-.76-.4-3.87-2.08-5-3.39-.87-1-4.26-3.17-7.55-5.28-1.61-1-3.19-2-4.44-2.9-3.37-2.3-14.2-7.35-21.52-9.26a27.22,27.22,0,0,0-2.69-.59,44.13,44.13,0,0,1-15.72-5.39c-3.4-2-5.4-6.79-6.61-6.88-.06,0-.11,0-.17,0-1.09-.31-1.72-2.55-1.72-2.55l.63-.05C508.83,23.34,530.47,21.78,535.49,25.25Z"/>
              </g>
              <path class="cls-12" d="M484.22,257.9c-.1.38-1.58,1.87-1.58,1.47-.09-11.77,1.56-52.87,13.89-98.55,15.05-55.73,15.36-93.08,16.84-102l16.1,13.55s.26,23.53,1.33,39.59-20.35,70.28-23.94,101.31C503.69,240.61,488,243.46,484.22,257.9Z"/>
              <path class="cls-11" d="M487.66,315.42c4.31,9.85,19.17,17.75,15.43,67.26-.63,8.29-7.94,28.22-7.81,32.68s4.23,3.51,5.72,3.51a74.28,74.28,0,0,0,5.5-12.64c3.89-11.15,11.9-38.42,12.27-49.2s18.9-69.55,23.18-98.45c4.07-27.43,5.43-50.6,1-71.46-4.59-21.57-12.64-48.34-11.9-77l-.29.95c0,.28,0,.57,0,.86,1.07,16-20.35,70.28-23.94,101.31-2.84,24.51-18.29,26.61-24.26,44.86C481.87,260.37,480.33,298.7,487.66,315.42Z"/>
              <path id="BF_PC-2" data-name="BF PC" class="cls-11" d="M448.5,165.82l18.22,146.86s-7.87,27.73-11.53,34.58c-3.56,6.69-14.24,22.38-10.64,48.16a6.29,6.29,0,0,1-.14,1.66c.19,3.53-.21,2.87-.21,2.87s1.17,3.39-1.24-3.38c-4.42-12.39-12.65-39.19-23.83-91.51C411.89,227.54,448.5,165.82,448.5,165.82Z"/>
              <g>
                <path id="BF_PL-2" data-name="BF PL" class="cls-11" d="M510,98.06c-27,62.31-27.67,138.38-27.51,176.06.19,42.94-14.51,46.9-29,75s-8.77,50.11-8.77,50.11-2.29-6.29-2.29.77c-13.3-31.23-15.14-104.85-8.08-145.37s21.2-96.67,52.61-138.5,28.45-44.16,28.45-44.16l-4.28,26"/>
                <path id="BF_INS-2" data-name="BF INS" class="cls-12" d="M514.11,61.54l10.09,10.4S521,73.7,516.58,85.48c-1.84,4.38-25.6,51.27-31,120,0,0-2.85,42.3-2.94,52.7s-2.31,4.65-3.05-3.16,2.09-74.16,13.2-112.1c9.9-33.83,10.65-34.7,10.13-37.58s-4.6-2.1-5.21-1.4a103.17,103.17,0,0,1-7.59,7.66s19.55-28.33,21.8-37.92C514.81,65,514.11,61.54,514.11,61.54Z"/>
                <path id="BF_INS_DISTAL-2" data-name="BF INS DISTAL" class="cls-12" d="M440,232.09c-5.34,0-9,41.92-10.61,78.32a357.45,357.45,0,0,0,1.07,42c1,7.07,5.7,20.7,6.75,34s-4.89,13.39-4.52,17.29c8.61-6.82,14.07-.87,14.07-.87a142.4,142.4,0,0,0-4.4-15.86c-2.92-8.61-4.4-22.53-7.38-45.67a429.71,429.71,0,0,1,1.22-49.53C438.45,266,442.2,232.09,440,232.09Z"/>
              </g>
            </g>
            <g>
              <path id="ST-2" data-name="ST" class="cls-14" d="M501.82,312.85c-13.55-9.43-24.07-66.38-11.13-144.45,9.3-46.92,13.64-54.47,21.13-72.22,8-18.93,9.42-24.43,10.45-26.94,1.54,2,2.81,1.74,6.22,4.6-.63,5.07-6.44,23.3-6.28,28.41.34,10.78,4,58.65,3.42,74.91-1.32,37-12.13,112.58-7.75,134.79,5.38,27.23-.2,22.37-3.19,22.12S512.35,320.18,501.82,312.85Z"/>
              <path class="cls-9" d="M522.22,69l3.41,2.91S521,83.61,519.26,89.5s-8.54,21.26-10.77,24.07c-2.85,4.25-4.1,4.52-6.6,7.91,0-2.56,4.48-12.23,10.41-26.72S522.22,69,522.22,69Z"/>
              <path class="cls-9" d="M515.5,288.28c-.92,7.17,1.74,28.42,2.83,41.93s-.12,36.7-1.41,49.07a126.86,126.86,0,0,1-11.81,40.84c-1.22,2.36,3,1.65,6.47-2.85s11.49-23.59,11.67-57.54c.15-28.92-4.8-74.74-6-76.69S516.05,284,515.5,288.28Z"/>
            </g>
          </g>
          <g>
            <path class="cls-15" d="M309.8,93c3,0,4.36-.26,4.28-1.39S311.75,89,309.8,87.9s-4.11-2.25-5-2-2.38,1.9-.48,4.46S307.34,93,309.8,93Z"/>
            <path class="cls-16" d="M285.78,88.36c3.28-1.85,5.19-3.29,8.71-3s6.12,2.79,3.64,4.08-4.13.71-5.33.77-4.08,1.1-5.35,1.27-4.85-.86-3.17-2.39A5.77,5.77,0,0,1,285.78,88.36Z"/>
            <path class="cls-14" d="M322.92,77.43c3.29,1.08,9.09,5.44,9.78,6.61s2.16,3.77-2.34,2.82A14.47,14.47,0,0,0,320.49,88c-2.42,1.12-5.8,1.73-8.57-.52s-8.31-8.14-2.16-9.35S321.68,77,322.92,77.43Z"/>
            <path class="cls-15" d="M310.23,80.71c-.13,2-.08,2.73,1.61,4.64s3.85,4.76.43,3.37-6.75-4-8.36-4.67,1.17-4.37,2.43-4.81S310.36,78.77,310.23,80.71Z"/>
          </g>
          <g>
            <path class="cls-15" d="M299.43,119.85s-6-.67-9.93,2.56-13.1,20.71-12.74,25.43,3.46,6.33,3.46,6.33,22.27-7.87,25.77-6.93,22.28.61,29.75-7.13,3.56-8.56,3.52-11.47C337.83,128.78,299.43,119.85,299.43,119.85Z"/>
            <path class="cls-14" d="M313.19,115.9c4.49,0,16,.36,23,7s3.05,12.92,0,16-12.21,7.36-18.67,7.54c-2.87,0-3.18-1-4-1.16a9.8,9.8,0,0,0-3.86.67,8.34,8.34,0,0,1-3.77.27c-.72-.14-3.1-.36-3.86-4.94s-2.51-5-3-6.5a34,34,0,0,0-2.06-6.15c-1.89-4.35-1.62-2.11-1.26-7.58S313.19,115.9,313.19,115.9Z"/>
            <path class="cls-17" d="M294.89,129.9c.88,2.67,2.51,6.82,3.32,8.79s2.15,5,0,5.84a30.61,30.61,0,0,1-8.15,1.88c-4,.45-7.91,2.33-10.16,3.05s-5.65,4.13-4.49-3.41,5.3-17.68,8.08-20.28,5.83-5.56,8.08-5.29a3.24,3.24,0,0,1,2.87,3.23C294.44,124.7,294.26,128,294.89,129.9Z"/>
            <path class="cls-14" d="M334.68,121.33s5.37-.87,7,2.29-1.28,11.31-1.28,11.31S342.56,125.37,334.68,121.33Z"/>
            <ellipse class="cls-16" cx="300.35" cy="146.12" rx="4.1" ry="2.22"/>
          </g>
          <g>
            <path class="cls-14" d="M316.6,284.28c-4.13.32-12.8-.47-16.14-1.9a6.83,6.83,0,0,1-4.21-5.33c0-.79,1.35-8.19,4.85-12.56a116.09,116.09,0,0,0,8.82-12.72c1.67-2.94,8.11-6.44,13.2-6.92s15.82.32,17.41,3.9,3.16,13.22,1.2,18C339.48,272.27,333,283,316.6,284.28Z"/>
            <path class="cls-14" d="M356.16,304.24a121.83,121.83,0,0,1-27.66,0c-10-1.07-17.06-1.43-16.58-5.84s1.75-8.49,10.49-13.16,19.4-8.43,21.95-27.75c1.59-9.62,2.26-8.94,8.1-7.51s16.82,11.39,19.5,15.92,3.32,5.47,4.2,15.09,2.18,10.37-5,16.81S362.11,303.61,356.16,304.24Z"/>
            <path class="cls-15" d="M251.34,266.8h-1.92s-3.56,10.79-5.41,16.51-1.37,6,0,6.62,19.57,5.25,19.57,5.25l1.44-6.36Z"/>
            <path class="cls-15" d="M337.62,268.11c1.31-1.66,3.1-4.18,2.38-6.38s-1.9-3-4.17-3.1a18.08,18.08,0,0,0-7.87,1.13c-1.19-.06-1.19-.12-.42-.6s6.56-3.57,10.14-2.56,4.41,3.74,4.35,6.25-4,6.87-6.14,8.24-1.67.42-1.37,0S336.83,269.1,337.62,268.11Z"/>
            <path class="cls-17" d="M269,324c-3.11-5.95-7.63-14.42-9.9-17.17s-9.3-11.56-12.28-13.95-3.66-2.78-3.44-4.11a30.33,30.33,0,0,1,2-6.28c.81-1.58,2-.62,2.78-.06s27.66,17.88,30.52,23.29,2.54,7.15,1.75,14.63-1.73,10.75-3,12.9-1.26,2.62-1.91,2.44S270.08,326.11,269,324Z"/>
            <path class="cls-17" d="M286,242.59c-8.34-.32-20.39,1.55-29,11.92s-8.71,15.74-9.66,20.87-1.26,4.65,1.49,6.47,18.54,12.26,23.31,17.56c2.33.66,6.68-.27,9.21-1.37s8.56-4.29,10.23-6.28,1.59-8.19,1.91-14.95,7.84-12.56,10.4-18.44,2-7.47,1.12-9.54S303.57,243.26,286,242.59Z"/>
            <path class="cls-15" d="M292.05,274.51c-.68,1.08-.48,2.22-5.33,3.89s-5,2.31-4.45,2.59a12.64,12.64,0,0,0,6.6-1c1.9-1.11,6.2-2.22,5.48-11.21s-1.19-5.09-1.19-5.09S293.64,272,292.05,274.51Z"/>
            <path class="cls-15" d="M338,287.43c-2.87-.62-6.68-1.14-7.87-.72a30.9,30.9,0,0,1-7.58,1.37,5.33,5.33,0,0,0-4.83,2.92c-.53.84-2.08.3-1.31-.71s3.7-4.53,6.8-4.36,4-.53,7.33-.89,6.2-1.07,10.44,1.85S338.85,287.6,338,287.43Z"/>
          </g>
          <g>
            <path class="cls-14" d="M317.59,369.27c-5.8,4.75-9.34,10.1-10.21,16.5s.66,15.31,6.63,20.74,12.37,9.88,20.08,9.88,19.65,1.74,30.62-10.42,13.35-12.05,11.29-22.48-9.77-12.16-11.73-11.18a20.4,20.4,0,0,1-10.75,2.28c-5.1-.32-12.81-4.32-14-7.42s-4.82-5.61-9.63-4.74S318.33,368.66,317.59,369.27Z"/>
            <path class="cls-14" d="M350.27,363.08c3.66.85,10.49,3.91,8.39,6.59s-5.06,2.39-6.8,2.32-9.26-.81-9.48-4.82S344.33,361.71,350.27,363.08Z"/>
            <path class="cls-15" d="M255.24,379.66s6.08-8.72,10-11.84,8.72-7.66,11.78-7.9S279.27,374,279.27,374s-1,5.75-1.38,5.68-21.28.94-21.28.94S254.86,379.8,255.24,379.66Z"/>
            <path class="cls-15" d="M350.71,366.63a15.54,15.54,0,0,1,5.17,1.12c2.1,1,2.34,2.47,2,2.74a4.85,4.85,0,0,1-2.81,1.54c-1.77.32-8.25-.12-9.73-1s-2.91-2.09-2.83-3.1c1.74,1.44,1.49,2.49,5.07,2.45s8.76.87,5-2.1A15.85,15.85,0,0,1,350.71,366.63Z"/>
            <path class="cls-15" d="M363.3,408.41c-3.19,2.3-9.29,7-14.28,8.06a63.82,63.82,0,0,1-16,.84,10.89,10.89,0,0,1-4.93-1.84s8,.81,9.54.59,6.13.38,9.72-.87,6.13-3.36,8.41-4.28a44.34,44.34,0,0,0,9.5-6.63c1.9-1.9,4-3.93,4.82-4.08s.23,1.26.23,1.26S364.42,407.6,363.3,408.41Z"/>
            <path class="cls-17" d="M287.19,357.22c6.41-1,14.26-1.74,17,.87s1.56,6-1.37,8.58-4.46,5.75-9.78,7.7-12.81,2.07-17.69-1.3-8.57-5.13-6.3-7.6C271.73,362.58,277.2,358.74,287.19,357.22Z"/>
            <path class="cls-17" d="M279.05,413c-.29-8.72,3.37-20.62,5.64-25s3.37-10.09,0-11.07-11.79-2.94-15.37-7.6c-2.4-2.69-8.08,3.69-8.08,3.69s-9.55,9.23-9.44,16-.22,15,8.25,23.34S270.8,423.12,273,424.42,279.59,429.2,279.05,413Z"/>
          </g>
          <g>
            <path class="cls-14" d="M352.14,194.77s18.28,5.89,22.48,11.6,3.92,13-2.14,13-15.7.11-23.46,1.36-8.33,1-8.33,1,11.36-8,12.49-14.48A27.49,27.49,0,0,0,352.14,194.77Z"/>
            <path class="cls-15" d="M310.32,192.72s-10.19-1.78-10.73-1.43-8,18.65-6.15,21.86,3.48,7.18,13.11,6.22S310.32,192.72,310.32,192.72Z"/>
            <path class="cls-14" d="M314.4,189.15c4.46-1.43,9.64-3.39,16-2.68s11.51,2.5,14.36,2.68,6.52,5.26,7,8.48.8,11.32-3.66,16.14-8.47,8.48-10.25,8.83-3.7,2.68-5,3.3a14.72,14.72,0,0,1-10.6.54c-4.81-1.7-6.24.27-12.22-1.87s-14.09-7.32-14.63-8.21,5.09-17.13,7.85-19.72S310.76,190.32,314.4,189.15Z"/>
            <path class="cls-17" d="M286.27,179.75c-11.79,3.62-16.41,7.5-18.31,9s-9.52,8.45-8.69,17.61,10,13.2,11.78,13,7-2.73,8.8-3,2.88-2,4.49-3.6,3.48-.36,4.37-.09a18.84,18.84,0,0,0,4.73.45c.36-.18,4.46-12.49,6-14s6.15-6,9.36-8.56,6.25-3.66,3.3-6.25S298.46,176,286.27,179.75Z"/>
            <path class="cls-15" d="M334.12,189.15a113.88,113.88,0,0,0-8,8.12c-2.14,2.68-4.19,6.24-2,8.21s6.42,1.51,9.27,1.51,6.16,2.86,6.78,3.75,2.32,4.19,3.48,5.35.2.87.2.87a62.05,62.05,0,0,1-5.93-5.46c-1.72-2-5.89-2.55-6.55-2.57s-6.72,1.1-9.39-3.59S327.43,193.83,334.12,189.15Z"/>
          </g>
          <line class="cls-18" x1="192.12" y1="99.66" x2="16.61" y2="99.66"/>
          <line class="cls-18" x1="192.12" y1="142.93" x2="16.61" y2="142.93"/>
          <line class="cls-18" x1="192.12" y1="257.48" x2="16.61" y2="257.48"/>
          <line class="cls-18" x1="192.12" y1="320.43" x2="16.61" y2="320.43"/>
          <line class="cls-18" x1="192.12" y1="197.05" x2="16.61" y2="197.05"/>
          <line class="cls-18" x1="581.42" y1="99.66" x2="405.91" y2="99.66"/>
          <line class="cls-18" x1="192.12" y1="71.86" x2="16.61" y2="71.86"/>
          <line class="cls-18" x1="581.42" y1="71.86" x2="405.91" y2="71.86"/>
          <line class="cls-18" x1="581.42" y1="142.93" x2="405.91" y2="142.93"/>
          <line class="cls-18" x1="581.42" y1="257.48" x2="405.91" y2="257.48"/>
          <line class="cls-18" x1="581.42" y1="320.43" x2="405.91" y2="320.43"/>
          <line class="cls-18" x1="581.42" y1="197.05" x2="405.91" y2="197.05"/>
          <g>
            <path class="cls-15" d="M304.52,29.83a9.13,9.13,0,0,0-5.11,3.1c-.68,1.16-3.9,3.14-3,6.37s.11,4.54,2,4.93,5.61-2.64,6-3.53S308.23,29.15,304.52,29.83Z"/>
            <path class="cls-15" d="M298.57,45.85a4.13,4.13,0,0,0,.22,3.92,5.06,5.06,0,0,0,4.87,2.73c2.35-.3,5.09-3.57,5.14-5.33s-1.94-5.74-2.3-6.34S299.47,43,298.57,45.85Z"/>
            <path class="cls-3" d="M328.67,26.06c-5.35-1.66-14.53-1.38-17.43-1s-7.46.87-8.68,4.37-.45,7.92.88,12.08,1.74,8.92,3.93,9.91,8.09-1.34,11.81-6.73S334.5,27.87,328.67,26.06Z"/>
          </g>
        </g>
      </g>
    </g>
  </g>
</svg>
