<svg xmlns="http://www.w3.org/2000/svg" viewBox="0 0 586.28 434.72">
  <defs>
    <style>
      .cls-1 {
        fill: #4d4c4c;
      }

      .cls-2, .cls-3 {
        fill: none;
      }

      .cls-2 {
        stroke: #f6e81d;
        stroke-width: 2px;
      }

      .cls-2, .cls-3, .cls-7, .cls-8, .cls-9 {
        stroke-miterlimit: 10;
      }

      .cls-3, .cls-7, .cls-8 {
        stroke: #7f7f78;
      }

      .cls-4 {
        fill: #fefcfb;
      }

      .cls-5, .cls-9 {
        fill: #c54950;
      }

      .cls-6 {
        fill: #424242;
      }

      .cls-7 {
        fill: #bab9aa;
      }

      .cls-8 {
        fill: #a09e8b;
      }

      .cls-9 {
        stroke: #451119;
        stroke-width: 0.25px;
      }

      .cls-10 {
        fill: #d8d8d7;
      }
    </style>
  </defs>
  <g id="Capa_2" data-name="Capa 2">
    <g id="Capa_1-2" data-name="Capa 1">
      <g>
        <rect class="cls-1" y="0.5" width="586.28" height="433.99" transform="translate(586.28 434.99) rotate(-180)"/>
        <line class="cls-2" x1="234.35" y1="86.96" x2="306.9" y2="177.71"/>
        <line class="cls-2" x1="223.31" y1="174" x2="306.9" y2="207.91"/>
        <line class="cls-2" x1="218.75" y1="254.72" x2="306.9" y2="239.39"/>
        <line class="cls-2" x1="212.24" y1="324.48" x2="306.9" y2="269.5"/>
        <line class="cls-2" x1="223.31" y1="399.42" x2="306.9" y2="302.6"/>
        <path class="cls-3" d="M439.14,353.86s7.66-1.89,7.92-11.39,2.6-17.09-7.92-26.17"/>
        <g>
          <path class="cls-4" d="M161.2,39.13,159.73,37s-14.45,4.35-22.09,6.71-7.55,3.07-7.2,5,9.22,25.3,9.22,25.3l8-3.3Z"/>
          <path class="cls-5" d="M112.4,102c4.1-7.93,9.87-19.3,11.13-23.86s5.49-18.93,5.81-24,.24-6.1,1.85-6.88a40,40,0,0,1,8.37-2.59c2.33-.33,2.19,1.68,2.18,3s1.64,43.72-2.06,51-5.84,8.22-14.58,13-13,6.32-16.3,6.59-3.81.64-4.11-.21S111,104.74,112.4,102Z"/>
          <path class="cls-5" d="M214,58.42c-6-9.32-17.23-21-35.06-22.43s-23.76,2.54-30.06,5.41-6,2.18-5.9,6.55.8,29.51-1.33,38.75c1.06,3,5.39,7,8.52,9s11.19,6,14.63,6.33,10.11-4.51,17.71-9.32,19.64-1,28-2.75,9.65-3.52,11.23-6.05S226.61,78,214,58.42Z"/>
          <path class="cls-4" d="M183.84,89.28c-1.7.09-2.78,1.18-8.3-2.82s-6.32-3.69-6.2-2.87,3.45,5.19,6.11,6.42,7.15,5,16.38-2.59,4.62-5.17,4.62-5.17S187.82,89.07,183.84,89.28Z"/>
        </g>
        <g>
          <path class="cls-4" d="M136.87,245s13.32-4.68,19.95-5,15.36-1.49,18.83.62-8.47,16.91-8.47,16.91-5.6,5.38-5.9,5.05-23.66-15.5-23.66-15.5S136.35,244.86,136.87,245Z"/>
          <path class="cls-5" d="M188.72,245.62c7.66,3.92,16.72,9.2,17.66,14.14s-3,7.65-8.14,8.18-9.26,2.74-16.51.72-15.41-7.72-18.06-15.14-5.25-12.19-.89-13.08C167.9,239.39,176.78,239.51,188.72,245.62Z"/>
          <path class="cls-5" d="M136.63,299.44c6.46-9.63,19.64-19.62,25.47-22.53s11.46-8.27,8.59-11.93S160.27,252.65,160,244.85c-.49-4.75-11.56-2.29-11.56-2.29s-17.46,2.53-22.57,9.87-6.47,17.07-9.23,31.56c-3,15.52,3.24,19.93,4.57,23S124.66,317.29,136.63,299.44Z"/>
        </g>
        <g>
          <path class="cls-4" d="M144.19,331.21s13-5.51,19.6-6.24a6.49,6.49,0,0,1,3.94.75c1-2.52,12-2.83,14.89-1.31,2.15,1.13-7.5,3.32-10.31,8-1.9,3.13,2.91,9.44,2.91,9.44s-5.25,5.73-5.56,5.42-24.59-14-24.59-14S143.66,331.1,144.19,331.21Z"/>
          <path class="cls-5" d="M184,325.32c4.34,1.49,9.58,4,10.46,6.53s-1,4.27-3.68,4.94-4.78.66-8.67,1.64c-4.82,1.22-9.44-2.34-11.41-6.06s-3-6.6-.75-7.4C172.52,324,177.17,323,184,325.32Z"/>
          <path class="cls-5" d="M148.82,368.41c13.74-7,17.27-8,21.76-11.65,3.28-2.65,3.9-5.49,7.52-12.53,1.88-3.66-6.18-6.17-10.6-15.81-.7-4.18-10.89-1.25-10.89-1.25s-14.81,3.51-19.39,10c-5.77,8.14-7.58,15.07-5.34,20.57s14,11.69,16.94,10.7c14.59-4.94,16.53-9.21,21.76-11.65,1.33-2.5,2.58-4.2,6.93-11"/>
        </g>
        <g>
          <path class="cls-5" d="M121,152.27c.2,7.6.8,16.6-1.6,24.8s-1.6,18.59-9,23.39c-1.6,1.2,3.82,10,5.41,10.6s44-14,40.79-26.79-4.8-20.2-5.2-24.6-4.4-20.4-6.6-21.8-3.6-1.6-18.6,1.8C117.44,141.67,121,152.27,121,152.27Z"/>
          <path class="cls-5" d="M181.83,191.06c9.45-5.59,14-8,20.8-8.79s9.8-2.4,9.6-4.6-14-19.8-23.4-26.4-13.39-7.4-22.79-9.4-15-4.4-16.6-2.8-2.5-2.51,0,10.9,4,23.75,6.29,30.62,7.51,16.07,9.31,17.47S173.27,196.14,181.83,191.06Z"/>
          <path class="cls-4" d="M131.84,138.55s9.06-3.05,16-2.45,19.09,6,19.09,6-9.88-2.55-12.49-3-6.44.21-6.22,1.41,1.38,11.77,3,17.73,2.12,7.39,2.12,7.39.23,2-1.65-3.9-2.25-10.2-3-13.35-.75-5.47-3.15-7.27-5.25-3.45-7.87-2.93A30.24,30.24,0,0,1,131.84,138.55Z"/>
        </g>
        <g>
          <path class="cls-5" d="M156.94,404.05c1.92,2.15,7.51,7.05,11,8.51s17.88-.81,22.92-7.24,6.05-10.19-3.66-13.28-15.47-1.35-24,2.52S154.81,401.67,156.94,404.05Z"/>
          <path class="cls-4" d="M156.45,399.42s1.38-2.9,7-5.25a50.09,50.09,0,0,1,12.33-3.59c3-.47,8.61.32,10.55,1.34a33,33,0,0,1-6.56.61c-4.62-.46-10.05,1.56-13.08,3A104,104,0,0,1,156.45,399.42Z"/>
        </g>
        <g>
          <path class="cls-6" d="M569.49.5H320.6c-3.26,57.46-4.5,135.43,4.75,209,4.21,38,13.78,50.21,9,68.8-11.77,45.82,7.29,96.69,4.89,126-.78,9.62.11,20.42,1.46,29.91H497.25c-1.44-28.26-3.21-71.44-1.46-83.75C497.8,336.44,562.85,181.7,569.49.5Z"/>
          <g>
            <path class="cls-7" d="M389.77,434.22a51.7,51.7,0,0,1-2-6.05c-1.08-4.44-7.31-14.88-8-16.38s-1.65-12,1-13.14,2.89-3.85,3.93-14.82,6.5-12.87,9.62-15.62,7-2.11,20-2.32c0,0,12.34,1.16,20.3-1.37s1.79-10.23,1.53-13.4c4.68,8.86,11.3,9.5,14,10.78,2.08,0,14.75-.18,18,0s5.46,3.94,5.52,6.68-2.47,4.86-2.14,8.39.32,12.55-6.17,18.36-13.26,8.33-13,11.07,2.86,19,6.24,26c.34.7.65,1.31.93,1.86Z"/>
            <path class="cls-8" d="M346,324.11c.67,5.47,3.11,18.36,4.41,21.31s4.94,9.29,8.06,9.5,13.26-4.85,11.18-13.08S375.85,311,375.85,311s-.52-3.59-8.05-4-15.86,2.11-18.2,4.85A14.82,14.82,0,0,0,346,324.11Z"/>
            <path class="cls-8" d="M443.37,434.22a53.7,53.7,0,0,0-3.06-10.51c-3.12-6.54-16.9-17.31-20.79-21.84s-.91-7.81,4.15-8.23,4.81-9.29,7.05-12.56,10-3.69,13.1-2.84,6.88,5.27,11.43,11.5,5.33,31.54,9.23,38.19a26.59,26.59,0,0,1,2.27,6.29Z"/>
            <path class="cls-7" d="M468.77,318.73c-2.34-1-6.83-.32-9.17-1.26s-26.31-13.61-37.74-74.81C413.17,196.17,412,72.43,415.07.5H372.16c-.05,1-.07,2.05-.07,3,0,19.3-4.29,113-3.51,127.87S371.7,213,372.48,233s1.16,82-2.34,87-6.24,10.76-6.24,15.82,9.51,18.36,12.74,19.63,9.35,3.53,13.05,3.37,7.54-.42,9.23,1,17.67,2.9,24.75,1.52,12.54-3.69,15.47-7.49c1.56,1.75,3.51,4,9.55,3.64s17.15.32,23.39-13.61S471.1,319.68,468.77,318.73Z"/>
          </g>
          <g>
            <path class="cls-9" d="M522.72.5H469.85c-4.19,16.25-8.29,34.23-10.57,46.77-3,16.39-14,103.79-12.44,125.31-1.17-14.87-9.35-54.4-12.19-63.85-1.45-4.86-9.74-23.43-13.25-41S413,46.37,411.46,47.16s-6.24,8.13-8.84,38.94c-14.55,84.82.52,192.86,5.2,206.36s20.27,49.8,20.27,49.8,2.6-22.37,7.8-35.29,52-104.08,60.55-115.79,22.23-31,26.9-64.57,7.32-73.6,2.21-112.68A125.77,125.77,0,0,0,522.72.5Z"/>
            <path class="cls-10" d="M482.41,139.27c.1,18.68-3.51,43.36-5.07,50s-3.51,27.53-14,49.37-25.73,80.82-27.68,96.43-.39,51.07,0,53.92-.07,12.66-4.91,12.66-6-5.7-5.62-15.51-3.82-61.4-7.37-83.88,7.37-111.09,6.2-135.15,2.34-21.2,5.07-18a64.73,64.73,0,0,1,16.77,39.57c1.94-9.18,10.66-35.45,15.85-49.38,2.08-6.65,5.06-9.34,7.15-14.35s4.15-9.18,6.36-9S482.39,135.37,482.41,139.27Z"/>
            <path class="cls-10" d="M412.5,41.15s3.38,2.32,1.56,13.29S411.33,77,406.78,82.72s-5.15,9.5-5.15,9.5,1.25-26.59,3.85-36.3S410.42,41.57,412.5,41.15Z"/>
          </g>
        </g>
        <line class="cls-2" x1="561.78" y1="177.71" x2="306.9" y2="177.71"/>
        <line class="cls-2" x1="561.78" y1="302.6" x2="306.9" y2="302.6"/>
        <line class="cls-2" x1="561.78" y1="269.5" x2="306.9" y2="269.5"/>
        <line class="cls-2" x1="561.78" y1="239.39" x2="306.9" y2="239.39"/>
        <line class="cls-2" x1="561.78" y1="207.91" x2="306.9" y2="207.91"/>
      </g>
    </g>
  </g>
</svg>
