<svg xmlns="http://www.w3.org/2000/svg" viewBox="0 0 595.28 449.43">
  <defs>
    <style>
      .cls-1 {
        fill: #555454;
      }

      .cls-2 {
        fill: #4d4c4c;
      }

      .cls-13, .cls-3, .cls-8 {
        fill: #bab9aa;
      }

      .cls-11, .cls-3, .cls-4, .cls-5, .cls-8 {
        stroke: #7f7f78;
      }

      .cls-11, .cls-16, .cls-17, .cls-18, .cls-3, .cls-4, .cls-5, .cls-7, .cls-8 {
        stroke-miterlimit: 10;
      }

      .cls-11, .cls-4 {
        fill: #a09e8b;
      }

      .cls-12, .cls-18, .cls-5 {
        fill: none;
      }

      .cls-6 {
        fill: #d8d8d7;
      }

      .cls-21, .cls-7 {
        fill: #c54950;
      }

      .cls-16, .cls-17, .cls-7 {
        stroke: #451119;
      }

      .cls-11, .cls-16, .cls-17, .cls-7, .cls-8 {
        stroke-width: 0.25px;
      }

      .cls-9 {
        fill: #c2e3e5;
      }

      .cls-10 {
        fill: #fff;
      }

      .cls-14, .cls-15 {
        fill: #afafaf;
      }

      .cls-15 {
        opacity: 0.6;
      }

      .cls-16 {
        fill: #d86c74;
      }

      .cls-17 {
        fill: #b03e52;
      }

      .cls-18 {
        stroke: #f6e81d;
        stroke-width: 2px;
      }

      .cls-19 {
        fill: #fefcfb;
      }

      .cls-20 {
        fill: #c9cc2e;
      }
    </style>
  </defs>
  <g id="Capa_2" data-name="Capa 2">
    <g id="Capa_1-2" data-name="Capa 1">
      <rect class="cls-1" y="39.44" width="595.28" height="409.49"/>
      <g>
        <path class="cls-2" d="M503.75,448.93c-.94-18.51-2.1-46.8-.95-54.86,1.45-10.18,53.68-133.67,48.23-268.46-.58-12.81,17.08-19.31,24.2-39.16,6.8-19,10.18-53.17,10.18-53.17H400.33L393,107.75s-13.38,102.19-1.84,194c2.76,24.87,9,32.88,5.9,45.06-7.7,30,4.78,63.33,3.21,82.51a91.71,91.71,0,0,0,1,19.59"/>
        <g>
          <g>
            <path class="cls-3" d="M433.35,448.93a35.17,35.17,0,0,1-1.3-4c-.7-2.9-4.79-9.74-5.24-10.73s-1.08-7.87.64-8.6,1.9-2.52,2.58-9.71,4.25-8.43,6.3-10.23,4.59-1.38,13.1-1.52c0,0,8.09.76,13.3-.89s1.17-6.71,1-8.78c3.07,5.8,7.41,6.22,9.19,7.06,1.37,0,9.66-.12,11.79,0s3.58,2.58,3.62,4.38-1.62,3.18-1.4,5.49.21,8.22-4.05,12-8.68,5.46-8.51,7.26,1.87,12.44,4.09,17c.22.46.42.86.61,1.22Z"/>
            <path class="cls-4" d="M404.66,376.81c.45,3.58,2,12,2.9,14s3.23,6.08,5.27,6.22,8.69-3.18,7.32-8.57,4.09-20.18,4.09-20.18-.34-2.35-5.28-2.63-10.38,1.39-11.91,3.18A9.7,9.7,0,0,0,404.66,376.81Z"/>
            <path class="cls-3" d="M577.61,1c-.59.55-2.05,4.21-11.79,4.15-6.17,0-10.93,6.15-12.12,7.67s-6.13,6.77-9.2,7.6S536.59,24.25,525,24s-13.44-1.1-13.44-1.1l3.91-2.49s-6.81,2.9-7.49,7.88-4.26,12.3,3.4,18.65,7.49,7.19,7.15,8.16S518,60.32,515,60.32s-4.6,1.38-5.11,3.73-2.38,6.77,1.19,10.78,7.32,13,3.41,18-10.09,9.64-21.19,5.49S480.5,90.41,480,89s2.3-10.88.64-12.44-2.56-7.67-4.6-8.18-6.26-1.46-6.13-4,3.45-2.28,3.71-11.19.12-17.62-8.81-21.56S445,25.94,440,29.36s-6.9,9.54-6.9,9.54l-1.4,4.56s-4.09-2.9-2.68-9.33,5.62-8.4,5.74-11.2a75.67,75.67,0,0,0-1.66-13.37c-.63-2.48-.76-7.36,2.56-9.12"/>
            <path class="cls-3" d="M433,83.68c0,10.37-1,25.7-3.07,34s-8.17,36.49-8.17,49.14-2.81,74-2.3,83.75,2,53.48,2.56,66.54.76,53.7-1.53,57-4.09,7.05-4.09,10.37,6.23,12,8.35,12.85,6.12,2.32,8.54,2.21,4.94-.27,6.05.66,11.57,1.9,16.21,1,8.21-2.42,10.13-4.9c1,1.14,2.3,2.59,6.26,2.38s11.23.21,15.32-8.91-.64-15.86-2.17-16.48-4.47-.21-6-.83-17.23-8.92-24.72-49-6.5-167.78-1.72-190.44,7.81-23.64,13.17-26.64,5.87-10.27,4.72-12.44-2.17-2.08-2.68-4.15,1.28-9.33,2-14a60,60,0,0,0-.25-22.49c1.53-7.36.51-17.83-8.94-21.15S443,28.53,440.16,30.71,430.2,39,431.86,47c-1.79,2.08-5.36,6.43-4.09,11.4S433,75.59,433,83.68Z"/>
            <path class="cls-5" d="M465.69,396.3s5-1.25,5.19-7.47,1.7-11.19-5.19-17.13"/>
            <path class="cls-4" d="M468.46,448.93a35.59,35.59,0,0,0-2-6.89c-2-4.28-11.07-11.33-13.62-14.3s-.6-5.12,2.72-5.39,3.15-6.08,4.62-8.22,6.53-2.42,8.57-1.87,4.51,3.45,7.49,7.53,3.49,20.66,6.05,25a17.1,17.1,0,0,1,1.48,4.12Z"/>
            <path class="cls-5" d="M431.86,47a17.61,17.61,0,0,1,10.08-4.9c6-.56,15.15-.14,17.71,1.24s9.73,4.16,10.48,6.64"/>
            <path class="cls-5" d="M457.91,114.48s1.91-10.61,3.69-14.59"/>
          </g>
          <g>
            <path class="cls-6" d="M508,101.23c-.44,6.07.85,30.82,4.6,40.08-8-.69-17.2-.56-17.2-.56l-2.38.56s4.6-13.89,5.87-21.36,2.17-26,2.05-29.33.8-8.91,1.87-9.54,3-3,6.81-1.14,2.81,4.25,1.78,7.47S508.8,90.17,508,101.23Z"/>
            <path class="cls-7" d="M478.88,195.48c3-16.24,10.56-46.43,14.13-54.17s5.87-19.33,9.79-19.75,6.23,11.54,9.79,19.75c4.49,10.35,8.87,25.95,9.7,32.34,3.34,25.6,1.62,51.82-1.45,73.8s-12,34.62-17.62,42.29S467,357.12,463.56,365.58s-5.1,23.12-5.1,23.12-10.22-23.78-13.28-32.62-12.94-79.61-3.41-135.17c1.71-20.17,4.77-25,5.79-25.5s4.21,2,6.51,13.48,7.73,23.67,8.68,26.85c1.86,6.19,7.22,32.08,8,41.82C469.71,263.46,476.93,206.22,478.88,195.48Z"/>
            <path class="cls-6" d="M494,255.74a186.87,186.87,0,0,1-3.32,32.76c-1,4.35-2.3,18-9.19,32.34S464.67,373.77,463.39,384s-.25,33.44,0,35.31-.05,8.29-3.21,8.29-3.94-3.73-3.68-10.16-2.51-40.22-4.83-54.93,4.83-72.77,4.06-88.53,1.53-13.88,3.32-11.81a42.35,42.35,0,0,1,11,25.91c1.28-6,7-23.22,10.39-32.34,1.36-4.35,3.31-6.12,4.68-9.4s2.72-6,4.17-5.87S494,253.19,494,255.74Z"/>
            <path class="cls-6" d="M448.24,191.48s2.21,1.52,1,8.7S447.48,215,444.5,218.7s-3.38,6.22-3.38,6.22.82-17.41,2.53-23.77S446.88,191.75,448.24,191.48Z"/>
          </g>
        </g>
      </g>
      <g>
        <path class="cls-2" d="M193.74,39.44v93.95s-5.64,117.2-27.75,192-26.08,82.15-24.1,94.54,6,28.23,6,28.23H36.5s.16-36.18.36-48.59C37,389.31-.95,256.3,24.73,123.87c2.5-12.57.63-27.52-1.07-38.21S18,39.44,18,39.44Z"/>
        <g>
          <path class="cls-8" d="M79.44,20.26s1.23,10.66-5,16.61-9.67,5.7-16.61,3.72-12.39-6.15-19.08,1.26S32.84,53,32.59,58.44,30.11,78,39.53,86.94,51.92,128.83,52.67,137,65.56,301.84,66.3,315s4.54,18.94-6.12,45.21S55.5,389,60.6,393.8c2.86,2.68,8.43,6.69,20.32,5,7.93-1.24,7.19-3.72,8.93-9.67s.62-6.32,5.82-6.81,6.32,9.29,7.81,11.52,7.68,7.39,19.33,5.31,12.4-21.42,10.66-27.12-27.95-23.92-34.64-74.67S84.33,103.8,87.68,98.22,94,89.3,94.37,87.44s.45-3.44-2.1-5.86S85.45,77.49,84.52,77C84.89,75.91,92.14,62,102,55.83c5-1.11,11.71.37,13.76-.18s3.72-8.37-4-20.64S86.13,20.51,79.44,20.26Z"/>
          <path class="cls-9" d="M101.81,20.88S111.1,29.16,114,33.52s7.58,18.22,7.58,18.22l-5.81,3.91-6.14-9.76L98.18,36.31l-15-7.25-2.85-1-1-1.67.16-6.11Z"/>
          <path class="cls-10" d="M103.6,43.94c-4-3.94-12-10.66-18.46-12.65s-6.67-1.23-6.67-1.23l.81-3.69s11.31,3.07,16.64,5.92S114,48.77,115,50.88a10.49,10.49,0,0,1,.75,4.77h-1.86S111.16,51.37,103.6,43.94Z"/>
          <path class="cls-11" d="M64.75,448.18H54.52s-1-8.55-6.63-14.32S41.76,422.49,42.32,420s4.64-6.54,9.2-6.07,7.34-1.21,10.22,1.67,11.62,18.13,11.62,18.13a12.11,12.11,0,0,0-4.83,3.25c-1.67,2.14-3.53,4.65-3.72,6.41A45.72,45.72,0,0,0,64.75,448.18Z"/>
          <path class="cls-8" d="M74.48,447.84S68.28,428,59.85,418.59s-3.71-26.52-3.71-26.52a58.55,58.55,0,0,0,10.41,7.52c4,2.17,15.12,2.07,18.83,0a27.83,27.83,0,0,0,6.89-6s0,2.73,1.91,3.72c1.62.84,6.57-.49,6.32-3.72s0,12.15,30.19,6c2.72,5-2.18,15.28-3.66,18S114.14,433,110.67,447.84Z"/>
          <g>
            <path class="cls-12" d="M167.92,73.18c-1.61,3.35-5.45,5.46-12.39,4.71S142.89,72.44,141.77,62a28.82,28.82,0,0,1,.51-9.14c7.32,1.91,18.16,7,21.52,9.26,1.26.86,2.84,1.87,4.44,2.9C168.41,69.16,168.36,72.28,167.92,73.18Z"/>
            <path class="cls-13" d="M115.78,19.4c8.6-3.8,30.95,18.77,30.95,18.77l-.13.8c-5-3.47-26.66-1.91-30.6-1.59a28,28,0,0,0-4.56-7c-.61-.67-8.7-8.77-10.56-9.49C98.74,20,114.27,20.06,115.78,19.4Z"/>
            <path class="cls-8" d="M123.88,46.91a44.19,44.19,0,0,0,15.71,5.39,26,26,0,0,1,2.69.59,28.82,28.82,0,0,0-.51,9.14c1.12,10.41,6.82,15.12,13.76,15.86s10.78-1.36,12.39-4.71c.44-.9.49-4,.32-8.13,3.29,2.11,6.68,4.28,7.55,5.28,1.14,1.31,4.26,3,5,3.39-2.2,5.55-4.31,10.1-5.94,11.94-5.7,6.49-12.92,11.93-27,9.46s-27-19.58-27.76-23.3c-.34-1.7-2.71-3.44-2.67-8.37,0-4.18,2.66-10.79.66-20.25a24.13,24.13,0,0,0-1-3.22c.06,0,.11.05.17.05C118.47,40.12,120.48,44.86,123.88,46.91Z"/>
            <path class="cls-11" d="M146.6,39a2.49,2.49,0,0,1,.84.88c2.7,5,10,10.38,16.36,12.45.6.19,1.89.64,3.65,1.15a67,67,0,0,0,8.16,1.83c5.95.94,7.06,2.78,7.81,6.32.44,2.08-.5,6-1.34,8.79-.58,2-1.11,3.42-1.11,3.42l-.17-.09c-.75-.4-3.87-2.08-5-3.39-.87-1-4.26-3.17-7.55-5.28-1.6-1-3.18-2-4.44-2.9-3.36-2.3-14.2-7.35-21.52-9.26a26,26,0,0,0-2.69-.59,44.19,44.19,0,0,1-15.71-5.39c-3.4-2-5.41-6.79-6.61-6.88-.06,0-.11,0-.17-.05-1.1-.31-1.72-2.55-1.72-2.55l.62,0C119.94,37.06,141.58,35.5,146.6,39Z"/>
          </g>
          <path class="cls-14" d="M95.32,271.62c-.1.38-1.57,1.87-1.57,1.47-.09-11.77,1.56-52.87,13.89-98.55,15-55.73,15.36-93.08,16.83-102l16.1,13.55s.27,23.53,1.34,39.59S121.56,196,118,227C114.8,254.33,99.1,257.18,95.32,271.62Z"/>
          <path class="cls-15" d="M98.76,329.14c4.32,9.84,19.18,17.75,15.44,67.26-.63,8.29-7.94,28.22-7.82,32.68s4.24,3.51,5.72,3.51A73.68,73.68,0,0,0,117.61,420c3.88-11.15,11.9-38.42,12.27-49.2s18.89-69.55,23.18-98.45c4.06-27.43,5.43-50.6,1-71.46-4.59-21.57-12.64-48.34-11.89-77l-.3.94.06.87C143,141.73,121.56,196,118,227c-2.83,24.51-18.28,26.61-24.25,44.86C93,274.09,91.43,312.42,98.76,329.14Z"/>
          <path id="BF_PC" data-name="BF PC" class="cls-16" d="M57.87,197.79,77.82,326.4S70,354.13,66.3,361c-3.57,6.69-14.24,22.38-10.64,48.16a6.76,6.76,0,0,1-.14,1.66c.18,3.53-.22,2.87-.22,2.87s1.17,3.39-1.24-3.38c-4.41-12.39-12.64-39.19-23.83-91.51C23,241.26,57.87,197.79,57.87,197.79Z"/>
          <g>
            <path id="BF_PL" data-name="BF PL" class="cls-7" d="M121.13,111.78c-27,62.31-27.67,138.38-27.5,176.06.18,42.94-14.51,46.9-29,75s-8.77,50.11-8.77,50.11-2.29-6.29-2.29.77c-13.31-31.23-15.15-104.85-8.08-145.37s21.19-96.67,52.61-138.5,28.44-44.16,28.44-44.16l-4.27,26"/>
            <path id="BF_INS" data-name="BF INS" class="cls-6" d="M125.21,75.26l10.09,10.4s-3.17,1.76-7.61,13.54c-1.84,4.38-25.6,51.27-31,120,0,0-2.86,42.3-2.94,52.7s-2.31,4.65-3.06-3.16,2.09-74.16,13.2-112.1c9.91-33.83,10.65-34.7,10.13-37.58s-4.59-2.1-5.2-1.4a105.39,105.39,0,0,1-7.59,7.66S120.74,96.94,123,87.35C125.91,78.76,125.21,75.26,125.21,75.26Z"/>
            <path id="BF_INS_DISTAL" data-name="BF INS DISTAL" class="cls-6" d="M51.11,245.8c-5.33,0-9,41.93-10.61,78.33a357.45,357.45,0,0,0,1.07,42c1.06,7.07,5.7,20.7,6.76,34s-4.9,13.39-4.53,17.29c8.62-6.82,14.07-.87,14.07-.87a139.79,139.79,0,0,0-4.4-15.86c-2.91-8.61-4.39-22.53-7.37-45.67a428.33,428.33,0,0,1,1.21-49.53C49.56,279.76,53.3,245.8,51.11,245.8Z"/>
          </g>
        </g>
        <g>
          <path id="ST" class="cls-17" d="M112.92,326.57c-13.54-9.43-24.06-66.38-11.12-144.45,9.3-46.92,13.64-54.47,21.13-72.22,8-18.93,9.42-24.43,10.44-26.94,1.54,2,2.81,1.74,6.22,4.6-.62,5.07-6.44,23.3-6.28,28.41.35,10.78,4,58.65,3.42,74.91-1.31,37-12.13,112.58-7.74,134.79,5.37,27.23-.2,22.37-3.19,22.12S123.46,333.9,112.92,326.57Z"/>
          <path class="cls-6" d="M100.42,190.92c0-2.56,8.19-56,23-82.49,5.88-14.35,9.93-25.73,9.93-25.73l3.4,2.92s-5.58,9.95-7.36,15.83c0,0-11,25.83-14.91,42C108,169.79,101.31,192.85,100.42,190.92Z"/>
          <path class="cls-14" d="M126.61,302c-.92,7.17,1.73,28.42,2.83,41.93s-.13,36.7-1.42,49.06a126.59,126.59,0,0,1-11.81,40.85c-1.22,2.36,3,1.65,6.47-2.85s11.5-23.59,11.67-57.54c.16-28.92-4.8-74.74-6-76.69S127.15,297.73,126.61,302Z"/>
        </g>
      </g>
      <line class="cls-18" x1="203.76" y1="113.26" x2="14.29" y2="113.26"/>
      <line class="cls-18" x1="203.76" y1="156.53" x2="14.29" y2="156.53"/>
      <line class="cls-18" x1="203.76" y1="271.08" x2="14.29" y2="271.08"/>
      <line class="cls-18" x1="203.76" y1="334.03" x2="14.29" y2="334.03"/>
      <line class="cls-18" x1="203.76" y1="210.65" x2="14.29" y2="210.65"/>
      <g>
        <path class="cls-19" d="M306.92,78.48c3,0,4.36-.26,4.28-1.38s-2.33-2.6-4.28-3.72-4.11-2.25-5-2-2.38,1.9-.47,4.45S304.47,78.48,306.92,78.48Z"/>
        <path class="cls-20" d="M282.9,73.84c3.29-1.86,5.19-3.29,8.71-3s6.12,2.79,3.64,4.08-4.13.71-5.32.76-4.09,1.1-5.36,1.27-4.84-.85-3.17-2.39A6,6,0,0,1,282.9,73.84Z"/>
        <path class="cls-21" d="M320,62.9c3.29,1.09,9.09,5.45,9.78,6.62s2.17,3.77-2.34,2.82a14.5,14.5,0,0,0-9.86,1.12c-2.43,1.13-5.81,1.73-8.58-.52s-8.31-8.13-2.16-9.35S318.8,62.49,320,62.9Z"/>
        <path class="cls-19" d="M307.36,66.19c-.14,2-.09,2.73,1.6,4.63s3.85,4.76.43,3.38-6.75-4-8.35-4.68,1.17-4.37,2.42-4.8S307.49,64.24,307.36,66.19Z"/>
      </g>
      <g>
        <path class="cls-19" d="M296.55,105.33s-6-.68-9.92,2.55-13.11,20.72-12.75,25.44,3.46,6.33,3.46,6.33,22.28-7.87,25.78-6.93,22.27.6,29.74-7.14,3.56-8.56,3.53-11.46C335,114.25,296.55,105.33,296.55,105.33Z"/>
        <path class="cls-17" d="M310.32,101.38c4.48,0,16,.36,23,7s3,12.92,0,16-12.2,7.36-18.67,7.54c-2.87,0-3.18-1-4-1.17a10.18,10.18,0,0,0-3.86.67,8.06,8.06,0,0,1-3.77.27c-.71-.13-3.09-.36-3.86-4.93s-2.51-5-3.05-6.51a33.12,33.12,0,0,0-2.06-6.14c-1.88-4.36-1.62-2.11-1.26-7.59S310.32,101.38,310.32,101.38Z"/>
        <path class="cls-21" d="M292,115.38c.88,2.67,2.51,6.82,3.32,8.79s2.15,5,0,5.83a30,30,0,0,1-8.14,1.89c-4,.45-7.92,2.33-10.17,3.05s-5.65,4.13-4.48-3.41,5.29-17.68,8.07-20.28,5.84-5.57,8.08-5.3a3.24,3.24,0,0,1,2.87,3.23C291.56,110.17,291.38,113.47,292,115.38Z"/>
        <path class="cls-15" d="M331.8,106.81s5.37-.88,7,2.28-1.28,11.31-1.28,11.31S339.68,110.84,331.8,106.81Z"/>
        <ellipse class="cls-20" cx="297.47" cy="131.59" rx="4.1" ry="2.22"/>
      </g>
      <g>
        <path class="cls-17" d="M313.72,287.21c-4.12.31-12.8-.48-16.14-1.91a6.83,6.83,0,0,1-4.21-5.33c0-.79,1.35-8.19,4.85-12.56A114.7,114.7,0,0,0,307,254.69c1.67-2.94,8.11-6.44,13.2-6.92s15.82.32,17.41,3.9,3.16,13.22,1.2,18C336.6,275.19,330.13,286,313.72,287.21Z"/>
        <path class="cls-15" d="M353.28,307.16a121.83,121.83,0,0,1-27.66,0c-10-1.07-17.05-1.43-16.58-5.84s1.76-8.49,10.5-13.16,19.39-8.43,21.94-27.75c1.59-9.62,2.26-8.94,8.11-7.51s16.81,11.39,19.5,15.92,3.31,5.47,4.19,15.09,2.18,10.37-5,16.81S359.24,306.53,353.28,307.16Z"/>
        <path class="cls-19" d="M248.46,269.72h-1.92s-3.56,10.79-5.41,16.51-1.37,6,0,6.62,19.58,5.25,19.58,5.25l1.43-6.36Z"/>
        <path class="cls-19" d="M334.74,271c1.31-1.66,3.1-4.18,2.39-6.38s-1.91-3-4.18-3.1a18.13,18.13,0,0,0-7.87,1.13c-1.19-.06-1.19-.12-.42-.6s6.56-3.57,10.14-2.56,4.41,3.74,4.35,6.25-4,6.87-6.14,8.24-1.67.42-1.37,0S334,272,334.74,271Z"/>
        <path class="cls-21" d="M266.11,327c-3.11-6-7.63-14.43-9.89-17.18s-9.31-11.56-12.29-13.95-3.65-2.78-3.44-4.11a30,30,0,0,1,2-6.28c.8-1.58,2-.62,2.77-.06s27.66,17.88,30.52,23.29,2.55,7.16,1.75,14.63-1.73,10.75-3,12.9-1.25,2.62-1.91,2.44S267.2,329,266.11,327Z"/>
        <path class="cls-21" d="M283.17,245.51c-8.35-.32-20.4,1.55-29,11.92s-8.71,15.74-9.66,20.87-1.25,4.65,1.49,6.47,18.54,12.26,23.31,17.56c2.33.66,6.68-.27,9.21-1.37s8.56-4.29,10.23-6.28,1.59-8.19,1.91-14.95,7.84-12.56,10.4-18.44,2-7.47,1.13-9.54S300.7,246.18,283.17,245.51Z"/>
        <path class="cls-19" d="M289.17,277.43c-.68,1.08-.48,2.22-5.33,3.89s-5,2.31-4.45,2.59a12.52,12.52,0,0,0,6.6-1c1.91-1.11,6.2-2.22,5.48-11.21s-1.19-5.09-1.19-5.09S290.76,274.88,289.17,277.43Z"/>
        <path class="cls-19" d="M335.16,290.35c-2.87-.62-6.68-1.14-7.87-.72a30.79,30.79,0,0,1-7.57,1.37,5.32,5.32,0,0,0-4.83,2.92c-.54.84-2.09.3-1.32-.71s3.7-4.53,6.8-4.36,4-.53,7.34-.89,6.2-1.07,10.43,1.85S336,290.52,335.16,290.35Z"/>
      </g>
      <g>
        <path class="cls-17" d="M314.71,376.36c-5.8,4.74-9.33,10.09-10.2,16.5s.65,15.31,6.62,20.74,12.38,9.87,20.08,9.87,19.65,1.74,30.62-10.42,13.35-12.05,11.29-22.47-9.77-12.16-11.72-11.18a20.65,20.65,0,0,1-10.75,2.28c-5.11-.33-12.81-4.32-14-7.43s-4.82-5.6-9.63-4.73S315.45,375.75,314.71,376.36Z"/>
        <path class="cls-15" d="M347.39,370.17c3.66.85,10.5,3.91,8.4,6.59s-5.07,2.38-6.81,2.31-9.26-.8-9.48-4.82S341.46,368.79,347.39,370.17Z"/>
        <path class="cls-19" d="M252.36,386.74s6.08-8.72,10-11.83,8.73-7.67,11.78-7.9,2.26,14.05,2.26,14.05-1.05,5.76-1.38,5.68-21.27.94-21.27.94S252,386.89,252.36,386.74Z"/>
        <path class="cls-19" d="M347.83,373.72a15.27,15.27,0,0,1,5.17,1.12c2.1,1,2.35,2.47,2,2.74a5,5,0,0,1-2.82,1.54c-1.77.31-8.25-.12-9.73-1s-2.91-2.1-2.82-3.1c1.73,1.44,1.48,2.49,5.06,2.45s8.76.87,5-2.1A15.85,15.85,0,0,1,347.83,373.72Z"/>
        <path class="cls-19" d="M360.42,415.5c-3.19,2.29-9.28,7-14.28,8.06a64.29,64.29,0,0,1-16,.84,10.89,10.89,0,0,1-4.93-1.84s8,.81,9.54.59,6.14.38,9.72-.87,6.13-3.36,8.41-4.29a43.94,43.94,0,0,0,9.5-6.62c1.9-1.9,4-3.94,4.82-4.09s.23,1.27.23,1.27S361.54,414.68,360.42,415.5Z"/>
        <path class="cls-21" d="M284.31,364.31c6.41-1,14.27-1.74,17,.87s1.55,6-1.38,8.57-4.45,5.76-9.77,7.71-12.81,2.06-17.7-1.3-8.57-5.14-6.3-7.6C268.85,369.66,274.33,365.83,284.31,364.31Z"/>
        <path class="cls-21" d="M276.17,420.11c-.29-8.72,3.37-20.63,5.65-25s3.36-10.1,0-11.07-11.8-2.95-15.38-7.6c-2.39-2.69-8.07,3.69-8.07,3.69s-9.56,9.23-9.45,16-.21,15,8.25,23.34,10.75,10.75,12.92,12.05S276.72,436.29,276.17,420.11Z"/>
      </g>
      <g>
        <path class="cls-15" d="M349.26,181.25s18.29,5.88,22.48,11.59,3.93,13-2.14,13-15.7.11-23.46,1.36-8.33,1-8.33,1,11.36-8,12.49-14.48A27.46,27.46,0,0,0,349.26,181.25Z"/>
        <path class="cls-19" d="M307.45,179.2s-10.2-1.79-10.73-1.43-8,18.64-6.16,21.85,3.48,7.19,13.12,6.23S307.45,179.2,307.45,179.2Z"/>
        <path class="cls-17" d="M311.53,175.63c4.46-1.43,9.63-3.39,16-2.68s11.51,2.5,14.37,2.68,6.51,5.26,6.95,8.47.81,11.33-3.65,16.15-8.48,8.47-10.26,8.83-3.69,2.68-5,3.3a14.75,14.75,0,0,1-10.59.54c-4.82-1.7-6.25.26-12.22-1.88s-14.1-7.31-14.63-8.2,5.08-17.13,7.85-19.72S307.88,176.8,311.53,175.63Z"/>
        <path class="cls-21" d="M283.4,166.23c-11.8,3.61-16.42,7.49-18.32,9s-9.52,8.45-8.68,17.6,10,13.21,11.77,13,7-2.74,8.8-3,2.89-2,4.49-3.59,3.48-.36,4.37-.09a18.85,18.85,0,0,0,4.73.44c.36-.17,4.46-12.49,6-14s6.15-6,9.37-8.57,6.24-3.65,3.3-6.24S295.59,162.5,283.4,166.23Z"/>
        <path class="cls-19" d="M331.24,175.63a113.88,113.88,0,0,0-8,8.12c-2.14,2.67-4.19,6.24-2,8.2s6.42,1.52,9.28,1.52,6.15,2.85,6.78,3.75,2.32,4.19,3.48,5.35.2.87.2.87A62.32,62.32,0,0,1,335,198c-1.71-2-5.88-2.54-6.55-2.56s-6.71,1.09-9.39-3.59S324.55,180.31,331.24,175.63Z"/>
      </g>
      <rect class="cls-1" y="0.44" width="595.28" height="39.52"/>
      <g>
        <path class="cls-10" d="M54.25,25.45v-15h4a11.79,11.79,0,0,1,2.92.22A3.35,3.35,0,0,1,63,12.12a5.52,5.52,0,0,1,.71,2.94,5.54,5.54,0,0,1-.62,2.73,3.63,3.63,0,0,1-1.53,1.55,8,8,0,0,1-3.18.44H56.73v5.67ZM56.73,13v4.27H58.1A6.05,6.05,0,0,0,60,17.05a1.7,1.7,0,0,0,.82-.71,2.32,2.32,0,0,0,.32-1.25,2.27,2.27,0,0,0-.33-1.26,1.66,1.66,0,0,0-.81-.69A7.44,7.44,0,0,0,57.94,13Z"/>
        <path class="cls-10" d="M65.23,18A10.63,10.63,0,0,1,66,13.61,5.91,5.91,0,0,1,68.1,11a5.46,5.46,0,0,1,3.11-.85,5.32,5.32,0,0,1,4.31,2,8.8,8.8,0,0,1,1.66,5.75,8.92,8.92,0,0,1-1.76,5.89,5.13,5.13,0,0,1-4.2,1.88A5.2,5.2,0,0,1,67,23.85,8.85,8.85,0,0,1,65.23,18Zm2.56-.1a6.37,6.37,0,0,0,1,3.89,2.95,2.95,0,0,0,4.88,0,6.62,6.62,0,0,0,1-3.95A6.43,6.43,0,0,0,73.68,14a3,3,0,0,0-4.93,0A6.45,6.45,0,0,0,67.79,17.93Z"/>
        <path class="cls-10" d="M78.51,20.55l2.43-.28c.27,1.92,1.17,2.88,2.68,2.88a2.55,2.55,0,0,0,1.78-.59A1.89,1.89,0,0,0,86,21.1a1.49,1.49,0,0,0-.91-1.46,19.25,19.25,0,0,0-2.23-.78,7.45,7.45,0,0,1-2.33-1,4,4,0,0,1-1.18-1.48,4.54,4.54,0,0,1-.43-2,4.36,4.36,0,0,1,.56-2.22,3.6,3.6,0,0,1,1.54-1.48,5.26,5.26,0,0,1,2.43-.5,4.65,4.65,0,0,1,3.39,1.18,4.67,4.67,0,0,1,1.3,3.37l-2.5.13a2.66,2.66,0,0,0-.7-1.69,2.28,2.28,0,0,0-1.55-.48,2.49,2.49,0,0,0-1.55.42,1.26,1.26,0,0,0-.54,1,1.29,1.29,0,0,0,.49,1,6.84,6.84,0,0,0,2.27.92,9.54,9.54,0,0,1,2.71,1.15,3.78,3.78,0,0,1,1.27,1.55,5.3,5.3,0,0,1,.44,2.3,4.75,4.75,0,0,1-1.2,3.29,4.83,4.83,0,0,1-3.77,1.33Q79,25.71,78.51,20.55Z"/>
        <path class="cls-10" d="M93.4,25.45V13H89.73V10.42h9.8V13H95.88V25.45Z"/>
        <path class="cls-10" d="M101.15,25.45v-15h9.14V13h-6.66V16.3h6.19v2.53h-6.19v4.08h6.89v2.54Z"/>
        <path class="cls-10" d="M112.63,25.45v-15h5.24a7.26,7.26,0,0,1,2.87.41,3.19,3.19,0,0,1,1.42,1.4,4.89,4.89,0,0,1,.55,2.4,4.5,4.5,0,0,1-.84,2.84,3.8,3.8,0,0,1-2.41,1.35,5.9,5.9,0,0,1,1.32,1.26,17.29,17.29,0,0,1,1.43,2.44l1.5,2.93h-3l-1.8-3.27A23.08,23.08,0,0,0,117.62,20a2,2,0,0,0-.74-.61,3.44,3.44,0,0,0-1.25-.17h-.52v6.27Zm2.48-8.67H117a9.12,9.12,0,0,0,2.15-.15,1.37,1.37,0,0,0,.75-.6,2.22,2.22,0,0,0,.29-1.2,2.06,2.06,0,0,0-.29-1.15,1.46,1.46,0,0,0-.78-.6,9.52,9.52,0,0,0-2-.11h-2Z"/>
        <path class="cls-10" d="M125,25.45v-15h2.48v15Z"/>
        <path class="cls-10" d="M129.34,18a10.63,10.63,0,0,1,.79-4.42A5.91,5.91,0,0,1,132.21,11a5.45,5.45,0,0,1,3.1-.85,5.31,5.31,0,0,1,4.31,2,8.74,8.74,0,0,1,1.67,5.75,9,9,0,0,1-1.76,5.89,5.69,5.69,0,0,1-8.43,0A8.79,8.79,0,0,1,129.34,18Zm2.56-.1a6.44,6.44,0,0,0,1,3.89,3,3,0,0,0,2.45,1.3,2.92,2.92,0,0,0,2.43-1.29,6.55,6.55,0,0,0,1-3.95,6.43,6.43,0,0,0-.94-3.87,3,3,0,0,0-2.46-1.25A3,3,0,0,0,132.85,14,6.52,6.52,0,0,0,131.9,17.93Z"/>
        <path class="cls-10" d="M143.25,25.45v-15h5.24a7.26,7.26,0,0,1,2.87.41,3.19,3.19,0,0,1,1.42,1.4,4.89,4.89,0,0,1,.55,2.4,4.45,4.45,0,0,1-.85,2.84,3.75,3.75,0,0,1-2.4,1.35,6.12,6.12,0,0,1,1.32,1.26,17.29,17.29,0,0,1,1.43,2.44l1.49,2.93h-3l-1.81-3.27A19.38,19.38,0,0,0,148.23,20a2,2,0,0,0-.73-.61,3.47,3.47,0,0,0-1.26-.17h-.51v6.27Zm2.48-8.67h1.85a9.12,9.12,0,0,0,2.15-.15,1.37,1.37,0,0,0,.75-.6,2.22,2.22,0,0,0,.29-1.2,2.06,2.06,0,0,0-.29-1.15,1.46,1.46,0,0,0-.78-.6,9.59,9.59,0,0,0-2-.11h-2Z"/>
      </g>
      <g>
        <path class="cls-10" d="M434.78,25.45V10.55h2.48V22.91h6.19v2.54Z"/>
        <path class="cls-10" d="M456.35,25.45h-2.7l-1.08-3.4h-4.93l-1,3.4H444l4.8-15h2.64Zm-4.58-5.94-1.7-5.58-1.67,5.58Z"/>
        <path class="cls-10" d="M459.17,25.45V13h-3.66V10.42h9.79V13h-3.65V25.45Z"/>
        <path class="cls-10" d="M466.92,25.45v-15h9.15V13H469.4V16.3h6.2v2.53h-6.2v4.08h6.89v2.54Z"/>
        <path class="cls-10" d="M478.41,25.45v-15h5.24a7.3,7.3,0,0,1,2.87.41,3.22,3.22,0,0,1,1.41,1.4,4.89,4.89,0,0,1,.56,2.4,4.51,4.51,0,0,1-.85,2.84,3.77,3.77,0,0,1-2.41,1.35,6,6,0,0,1,1.33,1.26A17.5,17.5,0,0,1,488,22.52l1.5,2.93h-3l-1.8-3.27A23.08,23.08,0,0,0,483.39,20a2,2,0,0,0-.74-.61,3.44,3.44,0,0,0-1.25-.17h-.51v6.27Zm2.48-8.67h1.84a9.23,9.23,0,0,0,2.16-.15,1.39,1.39,0,0,0,.74-.6,2.13,2.13,0,0,0,.29-1.2,2,2,0,0,0-.29-1.15,1.47,1.47,0,0,0-.77-.6,9.71,9.71,0,0,0-2-.11h-1.94Z"/>
        <path class="cls-10" d="M502,25.45h-2.7l-1.08-3.4h-4.93l-1,3.4h-2.65l4.8-15H497Zm-4.58-5.94-1.7-5.58L494,19.51Z"/>
        <path class="cls-10" d="M503.32,25.45V10.55h2.48V22.91H512v2.54Z"/>
      </g>
    </g>
  </g>
</svg>
