<svg xmlns="http://www.w3.org/2000/svg" viewBox="0 0 586.28 434.99">
  <defs>
    <style>
      .cls-1 {
        fill: #4d4c4c;
      }

      .cls-2 {
        fill: #424242;
      }

      .cls-13, .cls-3, .cls-8 {
        fill: #bab9aa;
      }

      .cls-11, .cls-3, .cls-4, .cls-5, .cls-8 {
        stroke: #7f7f78;
      }

      .cls-11, .cls-16, .cls-17, .cls-18, .cls-3, .cls-4, .cls-5, .cls-7, .cls-8 {
        stroke-miterlimit: 10;
      }

      .cls-11, .cls-4 {
        fill: #a09e8b;
      }

      .cls-12, .cls-18, .cls-5 {
        fill: none;
      }

      .cls-6 {
        fill: #d8d8d7;
      }

      .cls-21, .cls-7 {
        fill: #c54950;
      }

      .cls-16, .cls-17, .cls-7 {
        stroke: #451119;
      }

      .cls-11, .cls-16, .cls-17, .cls-7, .cls-8 {
        stroke-width: 0.25px;
      }

      .cls-9 {
        fill: #c2e3e5;
      }

      .cls-10 {
        fill: #fff;
      }

      .cls-14, .cls-15 {
        fill: #afafaf;
      }

      .cls-15 {
        opacity: 0.6;
      }

      .cls-16 {
        fill: #d86c74;
      }

      .cls-17 {
        fill: #b03e52;
      }

      .cls-18 {
        stroke: #f6e81d;
        stroke-width: 2px;
      }

      .cls-19 {
        fill: #fefcfb;
      }

      .cls-20 {
        fill: #c9cc2e;
      }
    </style>
  </defs>
  <g id="Capa_2" data-name="Capa 2">
    <g id="Capa_1-2" data-name="Capa 1">
      <g>
        <rect class="cls-1" y="0.5" width="586.28" height="433.99" transform="translate(586.28 434.99) rotate(-180)"/>
        <g>
          <path class="cls-2" d="M502.47,434.49c-.94-18.52-2.11-46.8-1-54.86C503,369.44,555.19,246,549.74,111.17,549.16,98.36,566.83,91.86,574,72,580.75,53,584.12.5,584.12.5H399.05l-7.33,92.81s-13.38,102.18-1.84,194c2.76,24.88,9,32.89,5.9,45.07-7.71,30,4.78,63.33,3.21,82.5a91.15,91.15,0,0,0,.95,19.6"/>
          <g>
            <g>
              <path class="cls-3" d="M432.07,434.49a35.17,35.17,0,0,1-1.3-4c-.71-2.9-4.79-9.74-5.24-10.73s-1.08-7.88.64-8.6,1.89-2.52,2.58-9.71,4.25-8.43,6.29-10.23,4.6-1.38,13.11-1.52c0,0,8.09.76,13.3-.9s1.17-6.7,1-8.77c3.06,5.8,7.4,6.22,9.19,7.06,1.36,0,9.66-.12,11.79,0s3.57,2.58,3.62,4.37-1.62,3.18-1.41,5.5.22,8.22-4,12-8.68,5.46-8.51,7.26,1.87,12.43,4.08,17l.61,1.22Z"/>
              <path class="cls-4" d="M403.38,362.37c.44,3.57,2,12,2.9,14s3.23,6.08,5.27,6.21,8.68-3.17,7.32-8.56S423,353.8,423,353.8s-.34-2.35-5.28-2.63-10.38,1.38-11.92,3.18A9.7,9.7,0,0,0,403.38,362.37Z"/>
              <path class="cls-3" d="M550.54.5c-2.06,2.13-5.15,4.92-7.32,5.5-3.06.83-7.91,3.8-19.49,3.53s-13.45-1.11-13.45-1.11l3.92-2.49s-6.81,2.91-7.49,7.88-4.26,12.3,3.4,18.66,7.49,7.19,7.15,8.15-.51,5.26-3.57,5.26-4.6,1.38-5.11,3.73-2.38,6.77,1.19,10.78,7.32,13,3.41,18S503.09,88,492,83.85,479.22,76,478.71,74.52s2.29-10.88.63-12.44-2.55-7.67-4.59-8.19-6.26-1.45-6.13-4,3.45-2.28,3.7-11.2.13-17.62-8.81-21.56-19.79-5.59-24.76-2.17-6.9,9.53-6.9,9.53L430.45,29s-4.09-2.9-2.68-9.32,5.61-8.4,5.74-11.2a56.32,56.32,0,0,0-.7-8Z"/>
              <path class="cls-3" d="M431.72,69.23c0,10.38-1,25.71-3.06,34s-8.17,36.49-8.17,49.13-2.81,74-2.3,83.76,2,53.48,2.55,66.54.77,53.69-1.53,57-4.08,7.05-4.08,10.37,6.22,12,8.35,12.85,6.12,2.31,8.54,2.21,4.94-.28,6,.66,11.58,1.9,16.22,1,8.21-2.42,10.13-4.91c1,1.14,2.3,2.59,6.25,2.39s11.24.2,15.32-8.92-.64-15.86-2.17-16.48-4.47-.21-6-.83-17.23-8.91-24.72-49-6.51-167.78-1.72-190.45,7.8-23.63,13.16-26.64,5.88-10.26,4.73-12.44-2.17-2.07-2.68-4.14,1.27-9.33,2-14a59.84,59.84,0,0,0-.26-22.49c1.54-7.36.52-17.83-8.93-21.14s-17.75-3.63-20.56-1.45-9.95,8.29-8.29,16.27c-1.79,2.07-5.37,6.43-4.09,11.4S431.69,61.15,431.72,69.23Z"/>
              <path class="cls-5" d="M464.41,381.85s5-1.24,5.19-7.46,1.7-11.19-5.19-17.14"/>
              <path class="cls-4" d="M467.18,434.49a35.28,35.28,0,0,0-2-6.89c-2-4.29-11.06-11.33-13.61-14.31s-.6-5.11,2.72-5.39,3.15-6.08,4.61-8.22,6.54-2.42,8.58-1.86,4.51,3.45,7.49,7.53,3.49,20.66,6,25a17.32,17.32,0,0,1,1.49,4.13Z"/>
              <path class="cls-5" d="M430.58,32.54a17.62,17.62,0,0,1,10.08-4.91c6-.55,15.15-.14,17.7,1.25s9.73,4.15,10.49,6.64"/>
              <path class="cls-5" d="M456.63,100s1.9-10.61,3.69-14.59"/>
            </g>
            <g>
              <path class="cls-6" d="M506.71,86.78c-.45,6.08.85,30.82,4.59,40.08-8-.69-17.19-.55-17.19-.55l-2.38.55s4.59-13.89,5.87-21.35,2.17-26,2-29.33.81-8.92,1.88-9.54,3-3,6.81-1.14,2.8,4.25,1.78,7.46S507.52,75.73,506.71,86.78Z"/>
              <path class="cls-7" d="M477.6,181c3-16.25,10.55-46.44,14.13-54.18s5.87-19.33,9.79-19.74,6.22,11.54,9.78,19.74c4.5,10.36,8.87,26,9.71,32.34,3.34,25.6,1.61,51.83-1.45,73.81s-12,34.62-17.62,42.29-36.26,67.38-39.66,75.84-5.11,23.11-5.11,23.11S447,350.48,443.9,341.64,431,262,440.49,206.47c1.7-20.18,4.77-25,5.79-25.5s4.21,2,6.51,13.48,7.73,23.66,8.68,26.84c1.86,6.19,7.21,32.08,8,41.83C468.43,249,475.65,191.77,477.6,181Z"/>
              <path class="cls-6" d="M492.75,241.3a186.62,186.62,0,0,1-3.32,32.75c-1,4.36-2.3,18-9.19,32.34s-16.85,52.94-18.13,63.16-.26,33.45,0,35.31-.05,8.3-3.22,8.3S455,409.43,455.21,403s-2.5-40.22-4.82-54.94,4.82-72.76,4.06-88.52,1.53-13.89,3.32-11.82a42.39,42.39,0,0,1,11,25.92c1.27-6,7-23.22,10.39-32.34,1.35-4.36,3.31-6.12,4.67-9.4s2.73-6,4.17-5.87S492.74,238.74,492.75,241.3Z"/>
              <path class="cls-6" d="M447,177s2.21,1.52,1,8.71-1.79,14.78-4.77,18.52-3.37,6.22-3.37,6.22.82-17.42,2.52-23.77S445.6,177.31,447,177Z"/>
            </g>
          </g>
        </g>
        <g>
          <path class="cls-2" d="M192.46.54v118.4s-5.64,117.21-27.76,192-26.07,82.15-24.09,94.54,6,28.22,6,28.22H35.22s.16-36.18.35-48.58c.17-10.28-37.81-143.29-12.12-275.72,2.49-12.57.63-27.52-1.07-38.21S16.67.54,16.67.54Z"/>
          <g>
            <path class="cls-8" d="M78.15,5.82s1.24,10.66-5,16.61-9.67,5.7-16.61,3.72S44.2,20,37.5,27.41,31.55,38.54,31.31,44,28.83,63.57,38.25,72.5s12.39,41.89,13.13,50.07S64.27,287.4,65,300.54s4.54,18.94-6.12,45.21-4.68,28.84.42,33.61c2.86,2.68,8.42,6.69,20.32,5,7.93-1.24,7.19-3.72,8.92-9.67s.62-6.32,5.83-6.82,6.32,9.3,7.81,11.53,7.68,7.39,19.33,5.3,12.39-21.41,10.66-27.11-27.95-23.92-34.64-74.67S83.05,89.35,86.39,83.78s6.33-8.93,6.7-10.79.45-3.44-2.1-5.85-6.83-4.09-7.76-4.56c.38-1.11,7.63-15.06,17.48-21.19,5-1.12,11.71.37,13.76-.19s3.71-8.36-4-20.63S84.85,6.07,78.15,5.82Z"/>
            <path class="cls-9" d="M100.52,6.44s9.3,8.27,12.18,12.64,7.57,18.22,7.57,18.22l-5.8,3.9-6.14-9.76L96.9,21.87l-15-7.25-2.85-1L78,11.92l.16-6.1Z"/>
            <path class="cls-10" d="M102.32,29.49c-4-3.93-12-10.65-18.47-12.64s-6.66-1.23-6.66-1.23l.8-3.7S89.31,15,94.64,17.84s18.09,16.49,19.08,18.59a10.66,10.66,0,0,1,.75,4.77h-1.86S109.88,36.93,102.32,29.49Z"/>
            <path class="cls-11" d="M63.47,433.73H53.24s-1-8.55-6.63-14.31S40.48,408.05,41,405.51s4.65-6.54,9.21-6.07,7.34-1.21,10.22,1.67,11.62,18.12,11.62,18.12a12.19,12.19,0,0,0-4.83,3.26c-1.68,2.13-3.54,4.64-3.72,6.41A42.83,42.83,0,0,0,63.47,433.73Z"/>
            <path class="cls-8" d="M73.2,433.39S67,413.56,58.57,404.14s-3.72-26.52-3.72-26.52a58.77,58.77,0,0,0,10.41,7.53c4,2.17,15.12,2.07,18.84,0a27.83,27.83,0,0,0,6.89-6s0,2.73,1.91,3.72c1.61.83,6.57-.5,6.32-3.72s0,12.15,30.18,6c2.73,5-2.17,15.28-3.66,18s-12.89,15.37-16.36,30.24Z"/>
            <g>
              <path class="cls-12" d="M166.64,58.74c-1.61,3.35-5.45,5.45-12.39,4.71S141.61,58,140.49,47.59a28.88,28.88,0,0,1,.51-9.15c7.32,1.92,18.15,7,21.52,9.27,1.25.85,2.84,1.87,4.44,2.9C167.13,54.72,167.08,57.84,166.64,58.74Z"/>
              <path class="cls-13" d="M114.49,5c8.6-3.79,31,18.78,31,18.78l-.13.79c-5-3.46-26.66-1.9-30.6-1.59a28.62,28.62,0,0,0-4.56-7c-.61-.66-8.71-8.76-10.56-9.49C97.45,5.58,113,5.62,114.49,5Z"/>
              <path class="cls-8" d="M122.59,32.47a44.53,44.53,0,0,0,15.72,5.39c.82.13,1.73.33,2.69.58a28.88,28.88,0,0,0-.51,9.15c1.12,10.41,6.82,15.12,13.76,15.86s10.78-1.36,12.39-4.71c.44-.9.49-4,.32-8.13,3.29,2.11,6.68,4.28,7.55,5.28a22.77,22.77,0,0,0,5,3.39c-2.2,5.55-4.31,10.1-5.94,11.94-5.7,6.48-12.92,11.93-27,9.46s-27-19.58-27.76-23.3c-.34-1.7-2.7-3.45-2.66-8.37,0-4.18,2.66-10.79.66-20.25a24.67,24.67,0,0,0-1-3.23.85.85,0,0,0,.17.06C117.19,25.68,119.2,30.42,122.59,32.47Z"/>
              <path class="cls-11" d="M145.32,24.52a2.67,2.67,0,0,1,.84.88c2.7,5,10,10.38,16.36,12.46.59.19,1.89.64,3.65,1.15a66.6,66.6,0,0,0,8.16,1.83c5.94.93,7.06,2.78,7.8,6.31.44,2.09-.49,6-1.33,8.8-.58,1.95-1.11,3.41-1.11,3.41l-.17-.08a22.77,22.77,0,0,1-5-3.39c-.87-1-4.26-3.17-7.55-5.28-1.6-1-3.19-2-4.44-2.9-3.37-2.3-14.2-7.35-21.52-9.27-1-.25-1.87-.45-2.69-.58a44.53,44.53,0,0,1-15.72-5.39c-3.39-2-5.4-6.79-6.6-6.88a.85.85,0,0,1-.17-.06c-1.1-.3-1.73-2.54-1.73-2.54l.63-.06C118.66,22.62,140.29,21.06,145.32,24.52Z"/>
            </g>
            <path class="cls-14" d="M94,257.17c-.1.38-1.57,1.87-1.58,1.48-.08-11.78,1.56-52.88,13.89-98.55,15.05-55.73,15.36-93.09,16.84-102l16.1,13.56s.27,23.53,1.34,39.58-20.36,70.29-23.95,101.32C113.52,239.88,97.82,242.73,94,257.17Z"/>
            <path class="cls-15" d="M97.48,314.69c4.32,9.85,19.18,17.75,15.43,67.27-.62,8.29-7.93,28.21-7.81,32.68s4.23,3.51,5.72,3.51a73.47,73.47,0,0,0,5.5-12.64c3.89-11.15,11.9-38.42,12.27-49.2s18.9-69.55,23.18-98.46c4.07-27.42,5.43-50.59,1-71.46-4.59-21.56-12.64-48.33-11.9-77l-.29.94.06.86c1.07,16-20.36,70.29-23.95,101.32-2.84,24.5-18.28,26.61-24.26,44.86C91.69,259.65,90.15,298,97.48,314.69Z"/>
            <path id="BF_PC" data-name="BF PC" class="cls-16" d="M56.59,183.34,76.54,312S68.67,339.69,65,346.54c-3.57,6.69-14.25,22.37-10.64,48.16a6.23,6.23,0,0,1-.15,1.66c.19,3.53-.21,2.87-.21,2.87s1.17,3.39-1.24-3.38c-4.42-12.4-12.64-39.19-23.83-91.51C21.71,226.82,56.59,183.34,56.59,183.34Z"/>
            <g>
              <path id="BF_PL" data-name="BF PL" class="cls-7" d="M119.85,97.33c-27,62.32-27.67,138.38-27.51,176.06.19,42.95-14.5,46.91-29,75s-8.78,50.11-8.78,50.11-2.29-6.29-2.29.77C39,368,37.13,294.4,44.2,253.87s21.19-96.66,52.61-138.49,28.44-44.16,28.44-44.16l-4.27,26"/>
              <path id="BF_INS" data-name="BF INS" class="cls-6" d="M123.93,60.81,134,71.22S130.85,73,126.4,84.76c-1.83,4.38-25.6,51.27-31,120,0,0-2.86,42.29-3,52.7s-2.31,4.64-3-3.16,2.09-74.16,13.2-112.1c9.91-33.84,10.65-34.7,10.13-37.58s-4.6-2.1-5.21-1.4a102,102,0,0,1-7.59,7.65s19.55-28.33,21.8-37.91C124.63,64.32,123.93,60.81,123.93,60.81Z"/>
              <path id="BF_INS_DISTAL" data-name="BF INS DISTAL" class="cls-6" d="M49.83,231.36c-5.34,0-9,41.93-10.61,78.33a357.45,357.45,0,0,0,1.07,42c1.05,7.06,5.7,20.7,6.76,34s-4.9,13.38-4.53,17.29c8.62-6.82,14.07-.87,14.07-.87a139.79,139.79,0,0,0-4.4-15.86c-2.92-8.62-4.4-22.54-7.37-45.67A428.33,428.33,0,0,1,46,291C48.28,265.32,52,231.36,49.83,231.36Z"/>
            </g>
          </g>
          <g>
            <path id="ST" class="cls-17" d="M111.64,312.12c-13.55-9.42-24.06-66.37-11.13-144.45,9.31-46.91,13.64-54.47,21.13-72.21,8-18.93,9.43-24.44,10.45-26.95,1.54,2,2.81,1.75,6.22,4.61-.63,5.06-6.44,23.29-6.28,28.4.34,10.79,4,58.65,3.42,74.91-1.32,37-12.13,112.58-7.75,134.79,5.38,27.24-.2,22.38-3.18,22.12S122.17,319.45,111.64,312.12Z"/>
            <path class="cls-6" d="M99.13,176.47c0-2.55,8.2-56,23-82.48C128,79.64,132,68.26,132,68.26l3.41,2.91s-5.58,10-7.37,15.84c0,0-11,25.82-14.9,42C106.76,155.34,100,178.4,99.13,176.47Z"/>
            <path class="cls-14" d="M125.32,287.56c-.91,7.17,1.74,28.42,2.83,41.93s-.12,36.7-1.41,49.06a126.68,126.68,0,0,1-11.81,40.85c-1.22,2.35,3,1.64,6.47-2.85S132.89,393,133.07,359c.15-28.91-4.8-74.73-6-76.68S125.87,283.29,125.32,287.56Z"/>
          </g>
        </g>
        <line class="cls-18" x1="202.47" y1="98.82" x2="13.01" y2="98.82"/>
        <line class="cls-18" x1="202.47" y1="71.22" x2="13.01" y2="71.22"/>
        <line class="cls-18" x1="202.47" y1="142.08" x2="13.01" y2="142.08"/>
        <line class="cls-18" x1="202.47" y1="256.64" x2="13.01" y2="256.64"/>
        <line class="cls-18" x1="202.47" y1="319.59" x2="13.01" y2="319.59"/>
        <line class="cls-18" x1="202.47" y1="196.21" x2="13.01" y2="196.21"/>
        <g>
          <path class="cls-19" d="M305.64,64c3,0,4.36-.26,4.28-1.38s-2.33-2.6-4.28-3.73-4.11-2.25-5-2-2.38,1.91-.48,4.46S303.18,64,305.64,64Z"/>
          <path class="cls-20" d="M281.62,59.39c3.28-1.85,5.19-3.29,8.71-3s6.12,2.79,3.64,4.08-4.13.71-5.33.77-4.08,1.1-5.35,1.27-4.85-.85-3.17-2.39A5.77,5.77,0,0,1,281.62,59.39Z"/>
          <path class="cls-21" d="M318.76,48.46c3.29,1.09,9.09,5.44,9.78,6.62s2.16,3.77-2.34,2.81A14.47,14.47,0,0,0,316.33,59c-2.42,1.12-5.8,1.73-8.57-.52s-8.31-8.14-2.16-9.35S317.52,48.05,318.76,48.46Z"/>
          <path class="cls-19" d="M306.07,51.75c-.13,2-.08,2.72,1.61,4.63s3.85,4.76.43,3.38-6.75-4-8.36-4.68,1.17-4.37,2.43-4.8S306.2,49.8,306.07,51.75Z"/>
        </g>
        <g>
          <path class="cls-19" d="M295.27,90.88s-6-.67-9.93,2.56-13.1,20.72-12.74,25.43,3.46,6.34,3.46,6.34,22.27-7.88,25.77-6.94,22.28.61,29.75-7.13,3.56-8.56,3.52-11.46C333.67,99.81,295.27,90.88,295.27,90.88Z"/>
          <path class="cls-17" d="M309,86.93c4.49,0,16,.36,23,7s3.05,12.93,0,16-12.21,7.36-18.67,7.53c-2.87,0-3.18-1-4-1.16a10,10,0,0,0-3.86.67,8.34,8.34,0,0,1-3.77.27c-.72-.13-3.1-.36-3.86-4.94s-2.51-5-3.05-6.5a34,34,0,0,0-2.06-6.15c-1.89-4.35-1.62-2.11-1.26-7.58S309,86.93,309,86.93Z"/>
          <path class="cls-21" d="M290.73,100.93c.88,2.67,2.51,6.82,3.32,8.8s2.15,5,0,5.83a29.85,29.85,0,0,1-8.15,1.88c-4,.45-7.91,2.34-10.16,3.06s-5.65,4.12-4.48-3.41,5.29-17.68,8.07-20.28,5.83-5.57,8.08-5.3a3.24,3.24,0,0,1,2.87,3.23C290.28,95.73,290.1,99,290.73,100.93Z"/>
          <path class="cls-15" d="M330.52,92.36s5.37-.87,7,2.29S336.22,106,336.22,106,338.4,96.4,330.52,92.36Z"/>
          <ellipse class="cls-20" cx="296.19" cy="117.15" rx="4.1" ry="2.22"/>
        </g>
        <g>
          <path class="cls-17" d="M312.44,272.76c-4.13.31-12.8-.47-16.14-1.91a6.83,6.83,0,0,1-4.21-5.32c0-.8,1.35-8.19,4.85-12.56a117.06,117.06,0,0,0,8.82-12.72c1.67-2.94,8.11-6.44,13.2-6.92s15.82.32,17.41,3.9,3.16,13.22,1.2,18C335.32,260.75,328.85,271.52,312.44,272.76Z"/>
          <path class="cls-15" d="M352,292.72a121.83,121.83,0,0,1-27.66,0c-10-1.08-17.06-1.43-16.58-5.85s1.76-8.48,10.49-13.15,19.4-8.43,21.95-27.75c1.59-9.62,2.26-8.94,8.11-7.51s16.81,11.39,19.49,15.92,3.32,5.46,4.2,15.08,2.18,10.38-5,16.82S358,292.09,352,292.72Z"/>
          <path class="cls-19" d="M247.18,255.27h-1.92s-3.56,10.79-5.41,16.52-1.37,6,0,6.62,19.57,5.24,19.57,5.24l1.44-6.36Z"/>
          <path class="cls-19" d="M333.46,256.58c1.31-1.65,3.1-4.17,2.38-6.38s-1.9-3-4.17-3.1a18,18,0,0,0-7.87,1.14c-1.19-.06-1.19-.12-.42-.6s6.56-3.58,10.14-2.56,4.41,3.74,4.35,6.25-4.05,6.87-6.14,8.24-1.67.42-1.37,0S332.67,257.58,333.46,256.58Z"/>
          <path class="cls-21" d="M264.83,312.51c-3.11-5.95-7.63-14.43-9.9-17.17s-9.3-11.57-12.28-13.95-3.66-2.78-3.44-4.12a30.45,30.45,0,0,1,2-6.27c.81-1.58,2-.63,2.78-.06s27.66,17.88,30.52,23.29,2.54,7.15,1.75,14.62-1.73,10.76-3,12.9-1.25,2.63-1.91,2.45S265.92,314.59,264.83,312.51Z"/>
          <path class="cls-21" d="M281.88,231.06c-8.34-.32-20.39,1.55-29,11.93s-8.71,15.74-9.66,20.87-1.26,4.65,1.49,6.47,18.54,12.25,23.31,17.56c2.33.65,6.68-.27,9.21-1.37s8.56-4.3,10.23-6.29,1.59-8.18,1.91-14.94,7.84-12.56,10.4-18.44,2-7.48,1.12-9.54S299.41,231.74,281.88,231.06Z"/>
          <path class="cls-19" d="M287.89,263c-.68,1.09-.48,2.23-5.33,3.9s-5,2.3-4.45,2.58a12.51,12.51,0,0,0,6.6-1c1.9-1.11,6.2-2.23,5.48-11.21s-1.19-5.09-1.19-5.09S289.48,260.44,287.89,263Z"/>
          <path class="cls-19" d="M333.88,275.9c-2.87-.62-6.68-1.13-7.87-.71a31.39,31.39,0,0,1-7.58,1.37,5.31,5.31,0,0,0-4.83,2.92c-.53.83-2.08.3-1.31-.72s3.7-4.53,6.8-4.35,4-.54,7.33-.89,6.2-1.08,10.44,1.85S334.69,276.08,333.88,275.9Z"/>
        </g>
        <g>
          <path class="cls-17" d="M313.43,361.91c-5.8,4.75-9.34,10.1-10.2,16.51s.65,15.3,6.62,20.73S322.22,409,329.93,409s19.65,1.74,30.62-10.42,13.35-12.05,11.29-22.47S362.07,364,360.11,365a20.39,20.39,0,0,1-10.74,2.28c-5.11-.32-12.82-4.31-14-7.42s-4.82-5.6-9.63-4.74S314.17,361.31,313.43,361.91Z"/>
          <path class="cls-15" d="M346.11,355.73c3.66.85,10.49,3.9,8.39,6.58s-5.06,2.39-6.8,2.32-9.26-.81-9.48-4.82S340.17,354.35,346.11,355.73Z"/>
          <path class="cls-19" d="M251.08,372.3s6.08-8.72,10-11.83,8.73-7.67,11.78-7.91,2.26,14.06,2.26,14.06-1.05,5.75-1.38,5.68-21.28.94-21.28.94S250.7,372.45,251.08,372.3Z"/>
          <path class="cls-19" d="M346.55,359.27a15.54,15.54,0,0,1,5.17,1.12c2.1,1,2.34,2.47,2,2.74a4.79,4.79,0,0,1-2.81,1.54c-1.77.32-8.25-.11-9.73-1s-2.91-2.1-2.83-3.1c1.74,1.44,1.49,2.48,5.07,2.45s8.76.86,5-2.1A15.44,15.44,0,0,1,346.55,359.27Z"/>
          <path class="cls-19" d="M359.14,401.05c-3.19,2.3-9.29,7-14.28,8.07a64.23,64.23,0,0,1-16,.83,10.89,10.89,0,0,1-4.93-1.84s8,.81,9.54.6,6.13.38,9.72-.87,6.13-3.37,8.41-4.29a43.94,43.94,0,0,0,9.5-6.62c1.9-1.9,4-3.94,4.82-4.09s.23,1.26.23,1.26S360.26,400.24,359.14,401.05Z"/>
          <path class="cls-21" d="M283,349.86c6.41-1,14.26-1.73,17,.87s1.56,6-1.37,8.58-4.46,5.75-9.78,7.71-12.81,2.06-17.69-1.31-8.57-5.13-6.3-7.6C267.57,355.22,273,351.38,283,349.86Z"/>
          <path class="cls-21" d="M274.89,405.67c-.29-8.73,3.37-20.63,5.65-25s3.36-10.1,0-11.08-11.8-2.94-15.38-7.59c-2.4-2.69-8.07,3.68-8.07,3.68s-9.56,9.23-9.45,16-.22,15,8.25,23.34,10.75,10.75,12.92,12.06S275.43,421.84,274.89,405.67Z"/>
        </g>
        <g>
          <path class="cls-15" d="M348,166.8s18.28,5.89,22.48,11.6,3.92,13-2.14,13-15.7.1-23.46,1.35-8.33,1-8.33,1,11.36-8,12.49-14.48A27.49,27.49,0,0,0,348,166.8Z"/>
          <path class="cls-19" d="M306.17,164.75S296,163,295.44,163.32s-8,18.65-6.16,21.86,3.48,7.19,13.11,6.23S306.17,164.75,306.17,164.75Z"/>
          <path class="cls-17" d="M310.24,161.18c4.46-1.43,9.64-3.39,16-2.67s11.51,2.5,14.36,2.67,6.52,5.27,7,8.48.8,11.33-3.66,16.14-8.47,8.48-10.25,8.84-3.7,2.67-5,3.3a14.73,14.73,0,0,1-10.6.53c-4.81-1.69-6.24.27-12.22-1.87s-14.09-7.32-14.63-8.21,5.09-17.13,7.85-19.71S306.6,162.35,310.24,161.18Z"/>
          <path class="cls-21" d="M282.11,151.79c-11.79,3.61-16.41,7.49-18.31,9s-9.52,8.44-8.69,17.6,10,13.2,11.78,13,7-2.74,8.8-3,2.89-2,4.49-3.6,3.48-.35,4.37-.09a18.84,18.84,0,0,0,4.73.45c.36-.18,4.46-12.49,6-14s6.15-6,9.36-8.57,6.25-3.66,3.3-6.24S294.31,148.06,282.11,151.79Z"/>
          <path class="cls-19" d="M330,161.18s-5.89,5.45-8,8.12-4.19,6.25-2.05,8.21,6.42,1.52,9.28,1.52,6.15,2.85,6.77,3.74,2.32,4.19,3.48,5.35.2.87.2.87a62.05,62.05,0,0,1-5.93-5.46c-1.71-2-5.89-2.54-6.55-2.56s-6.72,1.09-9.39-3.6S323.27,165.87,330,161.18Z"/>
        </g>
        <g>
          <path class="cls-19" d="M294.67,13.49a9.17,9.17,0,0,0-5.11,3.09c-.68,1.17-3.9,3.14-3,6.38s.11,4.53,2,4.92,5.61-2.64,6-3.53S298.38,12.81,294.67,13.49Z"/>
          <path class="cls-19" d="M288.72,29.51a4.13,4.13,0,0,0,.22,3.92,5.07,5.07,0,0,0,4.87,2.73c2.35-.31,5.09-3.57,5.14-5.34s-1.94-5.73-2.3-6.33S289.62,26.64,288.72,29.51Z"/>
          <path class="cls-8" d="M318.82,9.72c-5.35-1.67-14.53-1.38-17.43-1s-7.46.87-8.68,4.37-.45,7.92.88,12.08,1.74,8.91,3.93,9.91,8.09-1.34,11.81-6.74S324.65,11.53,318.82,9.72Z"/>
        </g>
      </g>
    </g>
  </g>
</svg>
