<svg xmlns="http://www.w3.org/2000/svg" viewBox="0 0 586.28 434.99">
  <defs>
    <style>
      .cls-1 {
        fill: #4d4c4c;
      }

      .cls-2 {
        fill: #424242;
      }

      .cls-13, .cls-3, .cls-8 {
        fill: #bab9aa;
      }

      .cls-11, .cls-3, .cls-4, .cls-5, .cls-8 {
        stroke: #7f7f78;
      }

      .cls-11, .cls-16, .cls-17, .cls-18, .cls-3, .cls-4, .cls-5, .cls-7, .cls-8 {
        stroke-miterlimit: 10;
      }

      .cls-11, .cls-4 {
        fill: #a09e8b;
      }

      .cls-12, .cls-18, .cls-5 {
        fill: none;
      }

      .cls-6 {
        fill: #d8d8d7;
      }

      .cls-21, .cls-7 {
        fill: #c54950;
      }

      .cls-16, .cls-17, .cls-7 {
        stroke: #451119;
      }

      .cls-11, .cls-16, .cls-17, .cls-7, .cls-8 {
        stroke-width: 0.25px;
      }

      .cls-9 {
        fill: #c2e3e5;
      }

      .cls-10 {
        fill: #fff;
      }

      .cls-14, .cls-15 {
        fill: #afafaf;
      }

      .cls-15 {
        opacity: 0.6;
      }

      .cls-16 {
        fill: #d86c74;
      }

      .cls-17 {
        fill: #b03e52;
      }

      .cls-18 {
        stroke: #f6e81d;
        stroke-width: 2px;
      }

      .cls-19 {
        fill: #fefcfb;
      }

      .cls-20 {
        fill: #c9cc2e;
      }
    </style>
  </defs>
  <g id="Capa_2" data-name="Capa 2">
    <g id="Capa_1-2" data-name="Capa 1">
      <g>
        <rect class="cls-1" y="0.5" width="586.28" height="433.99"/>
        <g>
          <path class="cls-2" d="M435.73,434.49c.94-18.52,2.1-46.8.95-54.86C435.23,369.44,383,246,388.46,111.17,389,98.36,371.37,91.86,364.25,72,357.45,53,354.08.5,354.08.5H539.15l7.33,92.81s13.38,102.18,1.84,194c-2.76,24.88-9,32.89-5.9,45.07,7.7,30-4.78,63.33-3.21,82.5a91.8,91.8,0,0,1-1,19.6"/>
          <g>
            <g>
              <path class="cls-3" d="M506.13,434.49a35.17,35.17,0,0,0,1.3-4c.7-2.9,4.79-9.74,5.24-10.73s1.08-7.88-.64-8.6-1.9-2.52-2.58-9.71-4.25-8.43-6.3-10.23-4.59-1.38-13.1-1.52c0,0-8.09.76-13.3-.9s-1.17-6.7-1-8.77c-3.07,5.8-7.41,6.22-9.19,7.06-1.37,0-9.66-.12-11.79,0s-3.58,2.58-3.62,4.37,1.62,3.18,1.41,5.5-.22,8.22,4,12,8.68,5.46,8.51,7.26-1.87,12.43-4.09,17c-.22.46-.42.86-.61,1.22Z"/>
              <path class="cls-4" d="M534.82,362.37c-.44,3.57-2.05,12-2.9,14s-3.23,6.08-5.27,6.21-8.69-3.17-7.32-8.56-4.09-20.18-4.09-20.18.34-2.35,5.28-2.63,10.38,1.38,11.91,3.18A9.67,9.67,0,0,1,534.82,362.37Z"/>
              <path class="cls-3" d="M387.66.5c2,2.13,5.15,4.92,7.32,5.5,3.06.83,7.91,3.8,19.49,3.53s13.45-1.11,13.45-1.11L424,5.93s6.81,2.91,7.49,7.88,4.26,12.3-3.4,18.66-7.49,7.19-7.15,8.15.51,5.26,3.57,5.26,4.6,1.38,5.11,3.73,2.38,6.77-1.19,10.78-7.32,13-3.41,18,10.09,9.64,21.19,5.5S459,76,459.49,74.52s-2.3-10.88-.64-12.44,2.56-7.67,4.6-8.19,6.26-1.45,6.13-4-3.45-2.28-3.7-11.2-.13-17.62,8.8-21.56,19.79-5.59,24.77-2.17,6.9,9.53,6.9,9.53l1.4,4.56s4.09-2.9,2.68-9.32-5.62-8.4-5.74-11.2a54.86,54.86,0,0,1,.7-8Z"/>
              <path class="cls-3" d="M506.47,69.23c0,10.38,1,25.71,3.07,34s8.17,36.49,8.17,49.13,2.81,74,2.3,83.76-2,53.48-2.56,66.54-.76,53.69,1.54,57,4.08,7.05,4.08,10.37-6.23,12-8.35,12.85-6.12,2.31-8.54,2.21-4.94-.28-6.05.66-11.57,1.9-16.21,1-8.21-2.42-10.13-4.91c-1,1.14-2.3,2.59-6.25,2.39s-11.24.2-15.33-8.92.64-15.86,2.18-16.48,4.46-.21,6-.83,17.23-8.91,24.72-49,6.5-167.78,1.72-190.45S479,94.94,473.66,91.93s-5.87-10.26-4.72-12.44,2.17-2.07,2.68-4.14-1.28-9.33-2-14a60,60,0,0,1,.25-22.49c-1.53-7.36-.51-17.83,8.94-21.14s17.75-3.63,20.55-1.45,10,8.29,8.3,16.27c1.79,2.07,5.37,6.43,4.09,11.4S506.51,61.15,506.47,69.23Z"/>
              <path class="cls-5" d="M473.79,381.85s-5-1.24-5.19-7.46-1.7-11.19,5.19-17.14"/>
              <path class="cls-4" d="M471,434.49a35.37,35.37,0,0,1,2-6.89c2.05-4.29,11.07-11.33,13.62-14.31s.6-5.11-2.72-5.39-3.15-6.08-4.62-8.22-6.53-2.42-8.57-1.86-4.51,3.45-7.49,7.53-3.49,20.66-6.05,25a17.37,17.37,0,0,0-1.48,4.13Z"/>
              <path class="cls-5" d="M507.62,32.54a17.62,17.62,0,0,0-10.08-4.91c-6-.55-15.15-.14-17.71,1.25s-9.72,4.15-10.48,6.64"/>
              <path class="cls-5" d="M481.57,100s-1.91-10.61-3.69-14.59"/>
            </g>
            <g>
              <path class="cls-6" d="M431.49,86.78c.44,6.08-.85,30.82-4.6,40.08,8-.69,17.2-.55,17.2-.55l2.38.55s-4.6-13.89-5.87-21.35-2.17-26-2.05-29.33-.8-8.92-1.87-9.54-3-3-6.81-1.14-2.81,4.25-1.78,7.46S430.68,75.73,431.49,86.78Z"/>
              <path class="cls-7" d="M460.6,181c-3-16.25-10.56-46.44-14.13-54.18s-5.87-19.33-9.79-19.74-6.23,11.54-9.79,19.74c-4.49,10.36-8.87,26-9.7,32.34-3.34,25.6-1.62,51.83,1.45,73.81s12,34.62,17.62,42.29,36.25,67.38,39.66,75.84S481,374.25,481,374.25s10.21-23.77,13.27-32.61,12.94-79.61,3.41-135.17c-1.7-20.18-4.77-25-5.79-25.5s-4.21,2-6.51,13.48-7.73,23.66-8.68,26.84c-1.86,6.19-7.22,32.08-8,41.83C469.77,249,462.55,191.77,460.6,181Z"/>
              <path class="cls-6" d="M445.45,241.3a186.62,186.62,0,0,0,3.32,32.75c1,4.36,2.3,18,9.19,32.34s16.85,52.94,18.13,63.16.25,33.45,0,35.31.05,8.3,3.21,8.3,3.94-3.73,3.68-10.16,2.51-40.22,4.83-54.94-4.83-72.76-4.06-88.52-1.53-13.89-3.32-11.82a42.39,42.39,0,0,0-11,25.92c-1.28-6-7-23.22-10.39-32.34-1.36-4.36-3.31-6.12-4.67-9.4s-2.73-6-4.18-5.87S445.46,238.74,445.45,241.3Z"/>
              <path class="cls-6" d="M491.24,177s-2.21,1.52-1,8.71S492,200.52,495,204.26s3.38,6.22,3.38,6.22-.82-17.42-2.53-23.77S492.6,177.31,491.24,177Z"/>
            </g>
          </g>
        </g>
        <g>
          <path class="cls-2" d="M19.65.5V118.94S25.28,236.15,47.4,311s26.07,82.15,24.09,94.54-6,28.22-6,28.22h111.4s-.15-36.18-.35-48.58c-.17-10.28,37.81-143.29,12.13-275.72-2.5-12.57-.64-27.52,1.07-38.21S195.43.5,195.43.5Z"/>
          <g>
            <path class="cls-8" d="M134,5.82s-1.24,10.66,5,16.61,9.66,5.7,16.6,3.72,12.4-6.15,19.09,1.26,6,11.13,6.2,16.58,2.47,19.58-6.94,28.51-12.4,41.89-13.14,50.07-12.89,164.83-13.63,178-4.54,18.94,6.11,45.21,4.68,28.84-.41,33.61c-2.86,2.68-8.43,6.69-20.33,5-7.93-1.24-7.19-3.72-8.92-9.67s-.62-6.32-5.83-6.82-6.32,9.3-7.8,11.53-7.69,7.39-19.34,5.3-12.39-21.41-10.66-27.11,28-23.92,34.64-74.67,14.5-193.53,11.16-199.1S119.39,74.85,119,73s-.45-3.44,2.1-5.85,6.83-4.09,7.76-4.56c-.37-1.11-7.63-15.06-17.48-21.19-5-1.12-11.71.37-13.75-.19s-3.72-8.36,4-20.63S127.26,6.07,134,5.82Z"/>
            <path class="cls-9" d="M111.58,6.44s-9.3,8.27-12.18,12.64S91.83,37.3,91.83,37.3l5.81,3.9,6.13-9.76,11.43-9.57,15-7.25,2.85-1,1.06-1.68L134,5.82Z"/>
            <path class="cls-10" d="M109.78,29.49c4-3.93,12-10.65,18.47-12.64s6.66-1.23,6.66-1.23l-.8-3.7S122.79,15,117.47,17.84,99.37,34.33,98.38,36.43a10.58,10.58,0,0,0-.74,4.77H99.5S102.22,36.93,109.78,29.49Z"/>
            <path class="cls-11" d="M148.64,433.73h10.22s1-8.55,6.63-14.31,6.13-11.37,5.58-13.91-4.65-6.54-9.2-6.07-7.35-1.21-10.23,1.67S140,419.23,140,419.23a12.26,12.26,0,0,1,4.84,3.26c1.67,2.13,3.53,4.64,3.71,6.41A43.78,43.78,0,0,1,148.64,433.73Z"/>
            <path class="cls-8" d="M138.91,433.39s6.19-19.83,14.62-29.25,3.72-26.52,3.72-26.52a58.77,58.77,0,0,1-10.41,7.53c-4,2.17-15.12,2.07-18.84,0a27.83,27.83,0,0,1-6.89-6s0,2.73-1.91,3.72c-1.61.83-6.57-.5-6.32-3.72s0,12.15-30.18,6c-2.73,5,2.17,15.28,3.66,18s12.89,15.37,16.36,30.24Z"/>
            <g>
              <path class="cls-12" d="M45.46,58.74c1.61,3.35,5.45,5.45,12.39,4.71S70.49,58,71.61,47.59a28.59,28.59,0,0,0-.51-9.15c-7.32,1.92-18.15,7-21.52,9.27-1.25.85-2.83,1.87-4.44,2.9C45,54.72,45,57.84,45.46,58.74Z"/>
              <path class="cls-13" d="M97.61,5c-8.6-3.79-31,18.78-31,18.78l.14.79c5-3.46,26.66-1.9,30.59-1.59a28.62,28.62,0,0,1,4.56-7c.62-.66,8.71-8.76,10.56-9.49C114.65,5.58,99.11,5.62,97.61,5Z"/>
              <path class="cls-8" d="M89.51,32.47a44.53,44.53,0,0,1-15.72,5.39c-.81.13-1.72.33-2.69.58a28.59,28.59,0,0,1,.51,9.15C70.49,58,64.79,62.71,57.85,63.45s-10.78-1.36-12.39-4.71c-.44-.9-.49-4-.32-8.13-3.29,2.11-6.68,4.28-7.55,5.28a22.77,22.77,0,0,1-5,3.39c2.2,5.55,4.32,10.1,5.94,11.94,5.7,6.48,12.92,11.93,27,9.46s27-19.58,27.76-23.3C93.64,55.68,96,53.93,96,49c0-4.18-2.66-10.79-.66-20.25a23.41,23.41,0,0,1,1-3.23,1.15,1.15,0,0,1-.17.06C94.91,25.68,92.91,30.42,89.51,32.47Z"/>
              <path class="cls-11" d="M66.79,24.52a2.61,2.61,0,0,0-.85.88c-2.7,5-10,10.38-16.36,12.46-.59.19-1.88.64-3.65,1.15a66.82,66.82,0,0,1-8.15,1.83c-6,.93-7.07,2.78-7.81,6.31-.44,2.09.49,6,1.33,8.8.58,1.95,1.12,3.41,1.12,3.41l.16-.08a22.77,22.77,0,0,0,5-3.39c.87-1,4.26-3.17,7.55-5.28,1.61-1,3.19-2,4.44-2.9,3.37-2.3,14.2-7.35,21.52-9.27,1-.25,1.88-.45,2.69-.58a44.53,44.53,0,0,0,15.72-5.39c3.4-2,5.4-6.79,6.61-6.88a1.15,1.15,0,0,0,.17-.06C97.38,25.23,98,23,98,23l-.63-.06C93.45,22.62,71.81,21.06,66.79,24.52Z"/>
            </g>
            <path class="cls-14" d="M118.06,257.17c.1.38,1.58,1.87,1.58,1.48.09-11.78-1.56-52.88-13.89-98.55-15-55.73-15.36-93.09-16.84-102L72.81,71.65s-.26,23.53-1.33,39.58,20.35,70.29,23.94,101.32C98.59,239.88,114.28,242.73,118.06,257.17Z"/>
            <path class="cls-15" d="M114.62,314.69c-4.31,9.85-19.17,17.75-15.43,67.27.63,8.29,7.94,28.21,7.81,32.68s-4.23,3.51-5.72,3.51a74.28,74.28,0,0,1-5.5-12.64c-3.89-11.15-11.9-38.42-12.27-49.2s-18.9-69.55-23.18-98.46c-4.07-27.42-5.43-50.59-1-71.46,4.59-21.56,12.64-48.33,11.9-77l.29.94c0,.29,0,.58,0,.86-1.07,16,20.35,70.29,23.94,101.32,2.84,24.5,18.29,26.61,24.26,44.86C120.41,259.65,122,298,114.62,314.69Z"/>
            <path id="BF_PC" data-name="BF PC" class="cls-16" d="M155.51,183.34,135.56,312s7.87,27.73,11.53,34.58c3.56,6.69,14.24,22.37,10.64,48.16a6.39,6.39,0,0,0,.14,1.66c-.19,3.53.21,2.87.21,2.87s-1.17,3.39,1.24-3.38c4.42-12.4,12.65-39.19,23.83-91.51C190.39,226.82,155.51,183.34,155.51,183.34Z"/>
            <g>
              <path id="BF_PL" data-name="BF PL" class="cls-7" d="M92.25,97.33c27,62.32,27.67,138.38,27.51,176.06-.19,42.95,14.51,46.91,29,75s8.77,50.11,8.77,50.11,2.29-6.29,2.29.77C173.13,368,175,294.4,167.91,253.87s-21.2-96.66-52.61-138.49S86.85,71.22,86.85,71.22l4.27,26"/>
              <path id="BF_INS" data-name="BF INS" class="cls-6" d="M88.17,60.81,78.08,71.22S81.26,73,85.7,84.76c1.84,4.38,25.6,51.27,31,120,0,0,2.85,42.29,2.94,52.7s2.31,4.64,3-3.16-2.09-74.16-13.2-112.1c-9.9-33.84-10.65-34.7-10.13-37.58s4.6-2.1,5.21-1.4a102,102,0,0,0,7.59,7.65S92.65,82.49,90.4,72.91C87.47,64.32,88.17,60.81,88.17,60.81Z"/>
              <path id="BF_INS_DISTAL" data-name="BF INS DISTAL" class="cls-6" d="M162.27,231.36c5.34,0,9,41.93,10.61,78.33a357.45,357.45,0,0,1-1.07,42c-1.05,7.06-5.7,20.7-6.75,34S170,399.06,169.58,403c-8.61-6.82-14.07-.87-14.07-.87a142.4,142.4,0,0,1,4.4-15.86c2.92-8.62,4.4-22.54,7.38-45.67A429.71,429.71,0,0,0,166.07,291C163.83,265.32,160.08,231.36,162.27,231.36Z"/>
            </g>
          </g>
          <g>
            <path id="ST" class="cls-17" d="M100.46,312.12c13.55-9.42,24.07-66.37,11.13-144.45C102.29,120.76,98,113.2,90.46,95.46,82.47,76.53,81,71,80,68.51c-1.54,2-2.81,1.75-6.22,4.61.63,5.06,6.44,23.29,6.28,28.4-.34,10.79-4,58.65-3.42,74.91C78,213.48,88.78,289,84.4,311.22c-5.38,27.24.2,22.38,3.19,22.12S89.93,319.45,100.46,312.12Z"/>
            <path class="cls-6" d="M113,176.47c0-2.55-8.2-56-23-82.48-5.87-14.35-9.92-25.73-9.92-25.73l-3.41,2.91S82.23,81.13,84,87c0,0,11,25.82,14.9,42C105.34,155.34,112.08,178.4,113,176.47Z"/>
            <path class="cls-14" d="M86.78,287.56C87.7,294.73,85,316,84,329.49s.12,36.7,1.41,49.06A127,127,0,0,0,97.17,419.4c1.22,2.35-3,1.64-6.47-2.85S79.21,393,79,359c-.15-28.91,4.8-74.73,6-76.68S86.23,283.29,86.78,287.56Z"/>
          </g>
        </g>
        <line class="cls-18" x1="9.63" y1="98.82" x2="199.09" y2="98.82"/>
        <line class="cls-18" x1="9.63" y1="71.22" x2="199.09" y2="71.22"/>
        <line class="cls-18" x1="9.63" y1="142.08" x2="199.09" y2="142.08"/>
        <line class="cls-18" x1="9.63" y1="256.64" x2="199.09" y2="256.64"/>
        <line class="cls-18" x1="9.63" y1="319.59" x2="199.09" y2="319.59"/>
        <line class="cls-18" x1="9.63" y1="196.21" x2="199.09" y2="196.21"/>
        <g>
          <path class="cls-19" d="M280.64,64c-3,0-4.36-.26-4.28-1.38s2.33-2.6,4.28-3.73,4.11-2.25,5-2,2.38,1.91.48,4.46S283.1,64,280.64,64Z"/>
          <path class="cls-20" d="M304.66,59.39c-3.28-1.85-5.19-3.29-8.71-3s-6.12,2.79-3.64,4.08,4.13.71,5.33.77,4.08,1.1,5.35,1.27,4.85-.85,3.17-2.39A5.77,5.77,0,0,0,304.66,59.39Z"/>
          <path class="cls-21" d="M267.52,48.46c-3.29,1.09-9.09,5.44-9.78,6.62s-2.16,3.77,2.34,2.81A14.47,14.47,0,0,1,270,59c2.42,1.12,5.8,1.73,8.57-.52s8.31-8.14,2.16-9.35S268.76,48.05,267.52,48.46Z"/>
          <path class="cls-19" d="M280.21,51.75c.13,2,.08,2.72-1.61,4.63s-3.85,4.76-.43,3.38,6.75-4,8.35-4.68-1.16-4.37-2.42-4.8S280.08,49.8,280.21,51.75Z"/>
        </g>
        <g>
          <path class="cls-19" d="M291,90.88s6-.67,9.93,2.56,13.1,20.72,12.74,25.43-3.46,6.34-3.46,6.34-22.27-7.88-25.77-6.94-22.28.61-29.75-7.13-3.56-8.56-3.52-11.46C252.61,99.81,291,90.88,291,90.88Z"/>
          <path class="cls-17" d="M277.24,86.93c-4.48,0-16,.36-23,7s-3.05,12.93,0,16,12.21,7.36,18.67,7.53c2.87,0,3.18-1,4-1.16a10,10,0,0,1,3.86.67,8.34,8.34,0,0,0,3.77.27c.72-.13,3.09-.36,3.86-4.94s2.51-5,3.05-6.5a34,34,0,0,1,2.06-6.15c1.89-4.35,1.62-2.11,1.26-7.58S277.24,86.93,277.24,86.93Z"/>
          <path class="cls-21" d="M295.55,100.93c-.88,2.67-2.51,6.82-3.32,8.8s-2.15,5,0,5.83a29.75,29.75,0,0,0,8.15,1.88c4,.45,7.91,2.34,10.16,3.06s5.65,4.12,4.48-3.41S309.73,99.41,307,96.81s-5.84-5.57-8.08-5.3A3.24,3.24,0,0,0,296,94.74C296,95.73,296.18,99,295.55,100.93Z"/>
          <path class="cls-15" d="M255.76,92.36s-5.37-.87-7,2.29S250.05,106,250.05,106,247.88,96.4,255.76,92.36Z"/>
          <ellipse class="cls-20" cx="290.09" cy="117.15" rx="4.1" ry="2.22"/>
        </g>
        <g>
          <path class="cls-17" d="M273.84,272.76c4.13.31,12.8-.48,16.14-1.91a6.83,6.83,0,0,0,4.21-5.32c0-.8-1.35-8.19-4.85-12.56a115.65,115.65,0,0,1-8.82-12.72c-1.67-2.94-8.11-6.44-13.2-6.92s-15.82.32-17.41,3.9-3.16,13.22-1.2,18C251,260.75,257.43,271.52,273.84,272.76Z"/>
          <path class="cls-15" d="M234.28,292.72a121.83,121.83,0,0,0,27.66,0c10-1.08,17.06-1.43,16.58-5.85s-1.76-8.48-10.5-13.15-19.39-8.43-21.94-27.75c-1.59-9.62-2.26-8.94-8.11-7.51s-16.81,11.39-19.49,15.92-3.32,5.46-4.2,15.08-2.18,10.38,5,16.82S228.33,292.09,234.28,292.72Z"/>
          <path class="cls-19" d="M339.1,255.27H341s3.56,10.79,5.41,16.52,1.37,6,0,6.62-19.58,5.24-19.58,5.24l-1.43-6.36Z"/>
          <path class="cls-19" d="M252.82,256.58c-1.31-1.65-3.1-4.17-2.38-6.38s1.9-3,4.17-3.1a18,18,0,0,1,7.87,1.14c1.19-.06,1.19-.12.42-.6s-6.56-3.58-10.14-2.56-4.41,3.74-4.35,6.25,4.05,6.87,6.14,8.24,1.67.42,1.37,0S253.61,257.58,252.82,256.58Z"/>
          <path class="cls-21" d="M321.45,312.51c3.11-5.95,7.63-14.43,9.9-17.17s9.3-11.57,12.28-13.95,3.66-2.78,3.44-4.12a30.45,30.45,0,0,0-2-6.27c-.81-1.58-2-.63-2.78-.06s-27.66,17.88-30.52,23.29-2.54,7.15-1.75,14.62,1.73,10.76,3,12.9,1.25,2.63,1.91,2.45S320.36,314.59,321.45,312.51Z"/>
          <path class="cls-21" d="M304.4,231.06c8.34-.32,20.39,1.55,29,11.93s8.71,15.74,9.66,20.87,1.26,4.65-1.49,6.47S323,282.58,318.23,287.89c-2.33.65-6.68-.27-9.21-1.37s-8.56-4.3-10.23-6.29-1.59-8.18-1.91-14.94-7.84-12.56-10.4-18.44-2-7.48-1.12-9.54S286.87,231.74,304.4,231.06Z"/>
          <path class="cls-19" d="M298.39,263c.68,1.09.48,2.23,5.33,3.9s5,2.3,4.45,2.58a12.51,12.51,0,0,1-6.6-1c-1.9-1.11-6.2-2.23-5.48-11.21s1.19-5.09,1.19-5.09S296.8,260.44,298.39,263Z"/>
          <path class="cls-19" d="M252.4,275.9c2.87-.62,6.68-1.13,7.87-.71a31.39,31.39,0,0,0,7.58,1.37,5.33,5.33,0,0,1,4.83,2.92c.53.83,2.08.3,1.31-.72s-3.7-4.53-6.8-4.35-4-.54-7.33-.89-6.2-1.08-10.44,1.85S251.59,276.08,252.4,275.9Z"/>
        </g>
        <g>
          <path class="cls-17" d="M272.85,361.91c5.8,4.75,9.34,10.1,10.2,16.51s-.65,15.3-6.62,20.73S264.06,409,256.35,409s-19.65,1.74-30.62-10.42-13.35-12.05-11.29-22.47S224.21,364,226.17,365a20.39,20.39,0,0,0,10.74,2.28c5.11-.32,12.81-4.31,14-7.42s4.82-5.6,9.63-4.74S272.11,361.31,272.85,361.91Z"/>
          <path class="cls-15" d="M240.17,355.73c-3.66.85-10.49,3.9-8.39,6.58s5.06,2.39,6.8,2.32,9.26-.81,9.48-4.82S246.11,354.35,240.17,355.73Z"/>
          <path class="cls-19" d="M335.2,372.3s-6.08-8.72-10-11.83-8.73-7.67-11.78-7.91-2.26,14.06-2.26,14.06,1.05,5.75,1.38,5.68,21.28.94,21.28.94S335.58,372.45,335.2,372.3Z"/>
          <path class="cls-19" d="M239.73,359.27a15.54,15.54,0,0,0-5.17,1.12c-2.1,1-2.34,2.47-2,2.74a4.83,4.83,0,0,0,2.82,1.54c1.77.32,8.25-.11,9.73-1s2.91-2.1,2.83-3.1c-1.74,1.44-1.49,2.48-5.07,2.45s-8.76.86-5-2.1A15.44,15.44,0,0,0,239.73,359.27Z"/>
          <path class="cls-19" d="M227.14,401.05c3.19,2.3,9.29,7,14.28,8.07a64.23,64.23,0,0,0,16,.83,10.89,10.89,0,0,0,4.93-1.84s-8,.81-9.54.6-6.13.38-9.72-.87-6.13-3.37-8.41-4.29a43.94,43.94,0,0,1-9.5-6.62c-1.9-1.9-4-3.94-4.82-4.09s-.23,1.26-.23,1.26S226,400.24,227.14,401.05Z"/>
          <path class="cls-21" d="M303.25,349.86c-6.41-1-14.26-1.73-17,.87s-1.56,6,1.37,8.58,4.45,5.75,9.77,7.71,12.82,2.06,17.7-1.31,8.57-5.13,6.3-7.6C318.71,355.22,313.23,351.38,303.25,349.86Z"/>
          <path class="cls-21" d="M311.39,405.67c.29-8.73-3.37-20.63-5.65-25s-3.36-10.1,0-11.08,11.8-2.94,15.38-7.59c2.4-2.69,8.07,3.68,8.07,3.68s9.56,9.23,9.45,16,.22,15-8.25,23.34-10.75,10.75-12.92,12.06S310.85,421.84,311.39,405.67Z"/>
        </g>
        <g>
          <path class="cls-15" d="M238.3,166.8s-18.29,5.89-22.48,11.6-3.92,13,2.14,13,15.7.11,23.46,1.36,8.33,1,8.33,1-11.36-8-12.49-14.48A27.49,27.49,0,0,1,238.3,166.8Z"/>
          <path class="cls-19" d="M280.11,164.75s10.2-1.78,10.73-1.43,8,18.65,6.16,21.86-3.48,7.19-13.11,6.22S280.11,164.75,280.11,164.75Z"/>
          <path class="cls-17" d="M276,161.18c-4.46-1.43-9.64-3.39-16-2.67s-11.51,2.5-14.36,2.67-6.52,5.27-7,8.48-.81,11.33,3.66,16.14,8.47,8.48,10.25,8.84,3.7,2.67,5,3.3a14.71,14.71,0,0,0,10.59.53c4.82-1.69,6.25.27,12.23-1.87s14.09-7.32,14.63-8.21-5.09-17.13-7.85-19.71S279.68,162.35,276,161.18Z"/>
          <path class="cls-21" d="M304.17,151.79c11.79,3.61,16.41,7.49,18.31,9s9.52,8.44,8.69,17.6-10,13.2-11.78,13-7-2.74-8.8-3-2.89-2-4.49-3.6-3.48-.35-4.37-.09a18.84,18.84,0,0,1-4.73.45c-.36-.18-4.46-12.49-6-14s-6.15-6-9.36-8.57-6.25-3.66-3.3-6.24S292,148.06,304.17,151.79Z"/>
          <path class="cls-19" d="M256.32,161.18s5.89,5.45,8,8.12,4.19,6.25,2,8.21S260,179,257.12,179s-6.15,2.85-6.78,3.74-2.31,4.19-3.47,5.35-.21.87-.21.87a61.76,61.76,0,0,0,5.94-5.46c1.71-2,5.88-2.54,6.55-2.56s6.72,1.09,9.39-3.6S263,165.87,256.32,161.18Z"/>
        </g>
        <g>
          <path class="cls-19" d="M291.6,13.49a9.16,9.16,0,0,1,5.12,3.09c.68,1.17,3.9,3.14,3,6.38s-.11,4.53-2,4.92-5.61-2.64-6-3.53S287.9,12.81,291.6,13.49Z"/>
          <path class="cls-19" d="M297.56,29.51a4.1,4.1,0,0,1-.23,3.92,5,5,0,0,1-4.86,2.73c-2.36-.31-5.09-3.57-5.14-5.34s1.94-5.73,2.3-6.33S296.65,26.64,297.56,29.51Z"/>
          <path class="cls-8" d="M267.46,9.72c5.35-1.67,14.53-1.38,17.43-1s7.46.87,8.67,4.37.46,7.92-.87,12.08-1.74,8.91-3.93,9.91-8.09-1.34-11.81-6.74S261.63,11.53,267.46,9.72Z"/>
        </g>
      </g>
    </g>
  </g>
</svg>
