<svg xmlns="http://www.w3.org/2000/svg" viewBox="0 0 595.28 449.43">
  <defs>
    <style>
      .cls-1 {
        fill: #555454;
      }

      .cls-2 {
        fill: #4d4c4c;
      }

      .cls-13, .cls-3, .cls-8 {
        fill: #bab9aa;
      }

      .cls-11, .cls-3, .cls-4, .cls-5, .cls-8 {
        stroke: #7f7f78;
      }

      .cls-11, .cls-16, .cls-17, .cls-18, .cls-3, .cls-4, .cls-5, .cls-7, .cls-8 {
        stroke-miterlimit: 10;
      }

      .cls-11, .cls-4 {
        fill: #a09e8b;
      }

      .cls-12, .cls-18, .cls-5 {
        fill: none;
      }

      .cls-6 {
        fill: #d8d8d7;
      }

      .cls-21, .cls-7 {
        fill: #c54950;
      }

      .cls-16, .cls-17, .cls-7 {
        stroke: #451119;
      }

      .cls-11, .cls-16, .cls-17, .cls-7, .cls-8 {
        stroke-width: 0.25px;
      }

      .cls-9 {
        fill: #c2e3e5;
      }

      .cls-10, .cls-22 {
        fill: #fff;
      }

      .cls-14, .cls-15 {
        fill: #afafaf;
      }

      .cls-15 {
        opacity: 0.6;
      }

      .cls-16 {
        fill: #d86c74;
      }

      .cls-17 {
        fill: #b03e52;
      }

      .cls-18 {
        stroke: #f6e81d;
        stroke-width: 2px;
      }

      .cls-19 {
        fill: #fefcfb;
      }

      .cls-20 {
        fill: #c9cc2e;
      }

      .cls-22 {
        font-size: 21px;
        font-family: ArialNarrow-Bold, Arial;
        font-weight: 700;
      }

      .cls-23 {
        letter-spacing: -0.06em;
      }

      .cls-24 {
        letter-spacing: -0.01em;
      }
    </style>
  </defs>
  <g id="Capa_2" data-name="Capa 2">
    <g id="Capa_1-2" data-name="Capa 1">
      <rect class="cls-1" y="39.44" width="595.28" height="409.49"/>
      <g>
        <path class="cls-2" d="M461.12,448.93c.94-18.51,2.11-46.8,1-54.86-1.46-10.18-53.68-133.67-48.23-268.46.58-12.81-17.09-19.31-24.2-39.16-6.81-19-10.18-53.17-10.18-53.17H564.54l7.33,74.47s13.39,102.19,1.84,194c-2.75,24.87-9,32.88-5.9,45.06,7.71,30-4.78,63.33-3.2,82.51a91.71,91.71,0,0,1-1,19.59"/>
        <g>
          <g>
            <path class="cls-3" d="M531.52,448.93a37.68,37.68,0,0,0,1.31-4c.7-2.9,4.78-9.74,5.23-10.73s1.08-7.87-.64-8.6-1.89-2.52-2.57-9.71-4.26-8.43-6.3-10.23-4.6-1.38-13.11-1.52c0,0-8.08.76-13.3-.89s-1.17-6.71-1-8.78c-3.06,5.8-7.4,6.22-9.19,7.06-1.36,0-9.66-.12-11.79,0s-3.57,2.58-3.62,4.38,1.62,3.18,1.41,5.49-.21,8.22,4,12,8.68,5.46,8.51,7.26-1.87,12.44-4.08,17l-.61,1.22Z"/>
            <path class="cls-4" d="M560.21,376.81c-.44,3.58-2,12-2.89,14s-3.24,6.08-5.28,6.22-8.68-3.18-7.32-8.57-4.09-20.18-4.09-20.18.34-2.35,5.28-2.63,10.38,1.39,11.92,3.18A9.7,9.7,0,0,1,560.21,376.81Z"/>
            <path class="cls-3" d="M387.26,1c.6.55,2.06,4.21,11.8,4.15,6.16,0,10.93,6.15,12.12,7.67s6.13,6.77,9.19,7.6,7.92,3.8,19.49,3.52,13.45-1.1,13.45-1.1l-3.92-2.49s6.81,2.9,7.49,7.88,4.26,12.3-3.4,18.65-7.49,7.19-7.15,8.16.51,5.25,3.57,5.25,4.6,1.38,5.11,3.73,2.38,6.77-1.19,10.78-7.32,13-3.4,18,10.08,9.64,21.19,5.49,12.76-7.88,13.28-9.33-2.3-10.88-.64-12.44,2.55-7.67,4.59-8.18,6.26-1.46,6.13-4-3.45-2.28-3.7-11.19-.13-17.62,8.81-21.56,19.79-5.6,24.77-2.18,6.89,9.54,6.89,9.54l1.4,4.56s4.09-2.9,2.69-9.33-5.62-8.4-5.75-11.2a75.67,75.67,0,0,1,1.66-13.37c.64-2.48.77-7.36-2.55-9.12"/>
            <path class="cls-3" d="M531.87,83.68c0,10.37,1,25.7,3.06,34s8.17,36.49,8.17,49.14,2.81,74,2.3,83.75-2,53.48-2.55,66.54-.77,53.7,1.53,57,4.08,7.05,4.08,10.37-6.22,12-8.34,12.85-6.12,2.32-8.55,2.21-4.94-.27-6,.66-11.58,1.9-16.22,1-8.21-2.42-10.13-4.9c-1,1.14-2.29,2.59-6.25,2.38s-11.24.21-15.32-8.91.64-15.86,2.17-16.48,4.47-.21,6-.83,17.23-8.92,24.72-49S517,155.68,512.22,133s-7.8-23.64-13.16-26.64-5.88-10.27-4.73-12.44,2.17-2.08,2.68-4.15-1.27-9.33-2-14a60.06,60.06,0,0,1,.26-22.49c-1.54-7.36-.51-17.83,8.93-21.15s17.75-3.63,20.56-1.45S534.68,39,533,47c1.78,2.08,5.36,6.43,4.08,11.4S531.91,75.59,531.87,83.68Z"/>
            <path class="cls-5" d="M499.18,396.3s-5-1.25-5.19-7.47-1.7-11.19,5.19-17.13"/>
            <path class="cls-4" d="M496.41,448.93a36.22,36.22,0,0,1,2-6.89c2-4.28,11.06-11.33,13.62-14.3s.59-5.12-2.73-5.39-3.15-6.08-4.61-8.22-6.54-2.42-8.58-1.87-4.51,3.45-7.49,7.53-3.49,20.66-6,25a17.06,17.06,0,0,0-1.49,4.12Z"/>
            <path class="cls-5" d="M533,47a17.62,17.62,0,0,0-10.09-4.9c-6-.56-15.15-.14-17.7,1.24S495.5,47.48,494.75,50"/>
            <path class="cls-5" d="M507,114.48s-1.9-10.61-3.69-14.59"/>
          </g>
          <g>
            <path class="cls-6" d="M456.88,101.23c.45,6.07-.85,30.82-4.59,40.08,8-.69,17.19-.56,17.19-.56l2.38.56S467.27,127.42,466,120s-2.17-26-2-29.33-.81-8.91-1.87-9.54-3-3-6.81-1.14-2.81,4.25-1.79,7.47S456.08,90.17,456.88,101.23Z"/>
            <path class="cls-7" d="M486,195.48c-3-16.24-10.55-46.43-14.13-54.17S466,122,462.08,121.56s-6.23,11.54-9.79,19.75c-4.49,10.35-8.87,25.95-9.71,32.34-3.34,25.6-1.61,51.82,1.45,73.8s12,34.62,17.62,42.29,36.26,67.38,39.66,75.84,5.11,23.12,5.11,23.12,10.21-23.78,13.28-32.62,12.93-79.61,3.4-135.17c-1.7-20.17-4.77-25-5.79-25.5s-4.21,2-6.51,13.48-7.73,23.67-8.68,26.85c-1.86,6.19-7.21,32.08-8,41.82C495.16,263.46,488,206.22,486,195.48Z"/>
            <path class="cls-6" d="M470.84,255.74a187.86,187.86,0,0,0,3.32,32.76c1,4.35,2.3,18,9.19,32.34s16.86,52.93,18.13,63.16.26,33.44,0,35.31,0,8.29,3.22,8.29,3.93-3.73,3.68-10.16,2.5-40.22,4.83-54.93-4.83-72.77-4.07-88.53-1.53-13.88-3.32-11.81a42.47,42.47,0,0,0-11,25.91c-1.27-6-7-23.22-10.38-32.34-1.36-4.35-3.32-6.12-4.68-9.4s-2.72-6-4.17-5.87S470.86,253.19,470.84,255.74Z"/>
            <path class="cls-6" d="M516.63,191.48s-2.21,1.52-1,8.7,1.79,14.78,4.77,18.52,3.37,6.22,3.37,6.22-.82-17.41-2.52-23.77S518,191.75,516.63,191.48Z"/>
          </g>
        </g>
      </g>
      <g>
        <path class="cls-2" d="M24.31,39.44v93.95s5.64,117.2,27.75,192S78.13,407.56,76.16,420s-6,28.23-6,28.23H181.55s-.16-36.18-.36-48.59C181,389.31,219,256.3,193.32,123.87c-2.5-12.57-.63-27.52,1.07-38.21s5.71-46.22,5.71-46.22Z"/>
        <g>
          <path class="cls-8" d="M138.61,20.26s-1.24,10.66,5,16.61,9.67,5.7,16.61,3.72,12.39-6.15,19.08,1.26,6,11.13,6.2,16.59,2.48,19.58-6.94,28.5S166.13,128.83,165.38,137s-12.89,164.83-13.63,178-4.54,18.94,6.12,45.21,4.67,28.84-.42,33.61c-2.86,2.68-8.43,6.69-20.32,5-7.94-1.24-7.19-3.72-8.93-9.67s-.62-6.32-5.82-6.81-6.32,9.29-7.81,11.52-7.68,7.39-19.33,5.31S82.84,377.69,84.58,372s27.94-23.92,34.64-74.67,14.5-193.52,11.15-199.1-6.32-8.92-6.69-10.78-.45-3.44,2.1-5.86,6.82-4.09,7.75-4.55c-.37-1.12-7.62-15.06-17.47-21.2-5-1.11-11.72.37-13.76-.18s-3.72-8.37,4-20.64S131.92,20.51,138.61,20.26Z"/>
          <path class="cls-9" d="M116.24,20.88S107,29.16,104.07,33.52s-7.58,18.22-7.58,18.22l5.81,3.91,6.13-9.76,11.44-9.58,15-7.25,2.84-1,1.06-1.67-.16-6.11Z"/>
          <path class="cls-10" d="M114.45,43.94c4-3.94,12-10.66,18.46-12.65s6.67-1.23,6.67-1.23l-.81-3.69s-11.31,3.07-16.64,5.92S104,48.77,103,50.88a10.57,10.57,0,0,0-.74,4.77h1.86S106.89,51.37,114.45,43.94Z"/>
          <path class="cls-11" d="M153.3,448.18h10.22s1-8.55,6.63-14.32,6.14-11.37,5.58-13.91-4.65-6.54-9.2-6.07-7.34-1.21-10.23,1.67-11.61,18.13-11.61,18.13a12.11,12.11,0,0,1,4.83,3.25c1.67,2.14,3.53,4.65,3.72,6.41A45.72,45.72,0,0,1,153.3,448.18Z"/>
          <path class="cls-8" d="M143.57,447.84s6.2-19.83,14.62-29.25,3.72-26.52,3.72-26.52a59,59,0,0,1-10.41,7.52c-4,2.17-15.12,2.07-18.84,0a27.9,27.9,0,0,1-6.88-6s0,2.73-1.92,3.72c-1.61.84-6.56-.49-6.32-3.72s0,12.15-30.18,6c-2.73,5,2.17,15.28,3.66,18s12.89,15.36,16.36,30.24Z"/>
          <g>
            <path class="cls-12" d="M50.12,73.18c1.61,3.35,5.46,5.46,12.4,4.71S75.16,72.44,76.27,62a28.84,28.84,0,0,0-.5-9.14c-7.32,1.91-18.16,7-21.53,9.26C53,63,51.41,64,49.8,65.05,49.63,69.16,49.69,72.28,50.12,73.18Z"/>
            <path class="cls-13" d="M102.27,19.4c-8.6-3.8-30.95,18.77-30.95,18.77l.13.8c5-3.47,26.66-1.91,30.59-1.59a28.29,28.29,0,0,1,4.57-7c.61-.67,8.7-8.77,10.56-9.49C119.31,20,103.78,20.06,102.27,19.4Z"/>
            <path class="cls-8" d="M94.17,46.91A44.27,44.27,0,0,1,78.46,52.3a26,26,0,0,0-2.69.59,28.84,28.84,0,0,1,.5,9.14c-1.11,10.41-6.81,15.12-13.75,15.86s-10.79-1.36-12.4-4.71c-.43-.9-.49-4-.32-8.13-3.28,2.11-6.67,4.28-7.55,5.28-1.14,1.31-4.25,3-5,3.39,2.19,5.55,4.31,10.1,5.93,11.94,5.7,6.49,12.92,11.93,27,9.46s27-19.58,27.76-23.3c.34-1.7,2.71-3.44,2.67-8.37,0-4.18-2.66-10.79-.66-20.25A21.49,21.49,0,0,1,101,40c-.06,0-.11.05-.17.05C99.57,40.12,97.57,44.86,94.17,46.91Z"/>
            <path class="cls-11" d="M71.45,39a2.62,2.62,0,0,0-.85.88c-2.69,5-10,10.38-16.36,12.45-.59.19-1.88.64-3.64,1.15a67.47,67.47,0,0,1-8.16,1.83c-5.95.94-7.06,2.78-7.81,6.32-.44,2.08.5,6,1.34,8.79.58,2,1.11,3.42,1.11,3.42l.17-.09c.75-.4,3.86-2.08,5-3.39.88-1,4.27-3.17,7.55-5.28,1.61-1,3.19-2,4.44-2.9,3.37-2.3,14.21-7.35,21.53-9.26a26,26,0,0,1,2.69-.59,44.27,44.27,0,0,0,15.71-5.39c3.4-2,5.4-6.79,6.61-6.88.06,0,.11,0,.17-.05,1.1-.31,1.72-2.55,1.72-2.55l-.63,0C98.11,37.06,76.47,35.5,71.45,39Z"/>
          </g>
          <path class="cls-14" d="M122.73,271.62c.1.38,1.57,1.87,1.57,1.47.09-11.77-1.56-52.87-13.89-98.55-15-55.73-15.36-93.08-16.83-102L77.48,86.09s-.27,23.53-1.34,39.59S96.49,196,100.09,227C103.25,254.33,119,257.18,122.73,271.62Z"/>
          <path class="cls-15" d="M119.29,329.14C115,339,100.11,346.89,103.85,396.4c.63,8.29,7.94,28.22,7.82,32.68s-4.24,3.51-5.73,3.51a74.28,74.28,0,0,1-5.5-12.64c-3.88-11.15-11.9-38.42-12.27-49.2S69.28,301.2,65,272.3c-4.06-27.43-5.43-50.6-1-71.46,4.6-21.57,12.65-48.34,11.9-77l.29.94c0,.29,0,.58,0,.87-1.07,16,20.35,70.28,24,101.31,2.83,24.51,18.28,26.61,24.25,44.86C125.07,274.09,126.62,312.42,119.29,329.14Z"/>
          <path id="BF_PC" data-name="BF PC" class="cls-16" d="M160.18,197.79l-20,128.61s7.88,27.73,11.53,34.58c3.57,6.69,14.24,22.38,10.64,48.16a6.76,6.76,0,0,0,.14,1.66c-.18,3.53.22,2.87.22,2.87s-1.17,3.39,1.23-3.38c4.42-12.39,12.65-39.19,23.83-91.51C195.05,241.26,160.18,197.79,160.18,197.79Z"/>
          <g>
            <path id="BF_PL" data-name="BF PL" class="cls-7" d="M96.92,111.78c27,62.31,27.67,138.38,27.5,176.06-.18,42.94,14.51,46.9,29,75s8.77,50.11,8.77,50.11,2.29-6.29,2.29.77c13.3-31.23,15.14-104.85,8.08-145.37S151.38,171.65,120,129.82,91.52,85.66,91.52,85.66l4.27,26"/>
            <path id="BF_INS" data-name="BF INS" class="cls-6" d="M92.84,75.26l-10.1,10.4s3.18,1.76,7.62,13.54c1.84,4.38,25.6,51.27,31,120,0,0,2.85,42.3,2.94,52.7s2.31,4.65,3.06-3.16-2.09-74.16-13.2-112.1c-9.91-33.83-10.65-34.7-10.13-37.58s4.59-2.1,5.2-1.4a105.39,105.39,0,0,0,7.59,7.66S97.31,96.94,95.06,87.35C92.14,78.76,92.84,75.26,92.84,75.26Z"/>
            <path id="BF_INS_DISTAL" data-name="BF INS DISTAL" class="cls-6" d="M166.93,245.8c5.34,0,9,41.93,10.62,78.33a356.69,356.69,0,0,1-1.08,42c-1.05,7.07-5.7,20.7-6.75,34s4.9,13.39,4.52,17.29c-8.61-6.82-14.06-.87-14.06-.87a139.79,139.79,0,0,1,4.4-15.86c2.91-8.61,4.39-22.53,7.37-45.67a431,431,0,0,0-1.21-49.53C168.49,279.76,164.75,245.8,166.93,245.8Z"/>
          </g>
        </g>
        <g>
          <path id="ST" class="cls-17" d="M105.13,326.57c13.54-9.43,24.06-66.38,11.12-144.45-9.3-46.92-13.64-54.47-21.13-72.22C87.13,91,85.7,85.47,84.68,83c-1.55,2-2.81,1.74-6.22,4.6.62,5.07,6.44,23.3,6.27,28.41-.34,10.78-4,58.65-3.41,74.91,1.31,37,12.12,112.58,7.74,134.79-5.37,27.23.2,22.37,3.19,22.12S94.59,333.9,105.13,326.57Z"/>
          <path class="cls-6" d="M117.63,190.92c0-2.56-8.2-56-23-82.49C88.77,94.08,84.72,82.7,84.72,82.7l-3.4,2.92s5.58,9.95,7.36,15.83c0,0,11,25.83,14.91,42C110,169.79,116.74,192.85,117.63,190.92Z"/>
          <path class="cls-14" d="M91.44,302c.92,7.17-1.73,28.42-2.83,41.93S88.73,380.63,90,393a126.31,126.31,0,0,0,11.81,40.85c1.22,2.36-3,1.65-6.48-2.85S83.87,407.4,83.69,373.45c-.15-28.92,4.81-74.74,6-76.69S90.9,297.73,91.44,302Z"/>
        </g>
      </g>
      <line class="cls-18" x1="14.29" y1="113.26" x2="203.76" y2="113.26"/>
      <line class="cls-18" x1="14.29" y1="156.53" x2="203.76" y2="156.53"/>
      <line class="cls-18" x1="14.29" y1="271.08" x2="203.76" y2="271.08"/>
      <line class="cls-18" x1="14.29" y1="334.03" x2="203.76" y2="334.03"/>
      <line class="cls-18" x1="14.29" y1="210.65" x2="203.76" y2="210.65"/>
      <g>
        <path class="cls-19" d="M307.56,78.48c-3,0-4.36-.26-4.28-1.38s2.33-2.6,4.28-3.72,4.11-2.25,5-2,2.38,1.9.48,4.45S310,78.48,307.56,78.48Z"/>
        <path class="cls-20" d="M331.59,73.84c-3.29-1.86-5.2-3.29-8.72-3s-6.12,2.79-3.63,4.08,4.13.71,5.32.76,4.08,1.1,5.35,1.27,4.85-.85,3.18-2.39A6.19,6.19,0,0,0,331.59,73.84Z"/>
        <path class="cls-21" d="M294.45,62.9c-3.29,1.09-9.09,5.45-9.79,6.62s-2.16,3.77,2.34,2.82a14.53,14.53,0,0,1,9.87,1.12c2.43,1.13,5.8,1.73,8.57-.52s8.31-8.13,2.17-9.35S295.68,62.49,294.45,62.9Z"/>
        <path class="cls-19" d="M307.13,66.19c.14,2,.09,2.73-1.6,4.63s-3.85,4.76-.43,3.38,6.75-4,8.35-4.68-1.17-4.37-2.42-4.8S307,64.24,307.13,66.19Z"/>
      </g>
      <g>
        <path class="cls-19" d="M317.93,105.33s6-.68,9.93,2.55S341,128.6,340.6,133.32s-3.45,6.33-3.45,6.33-22.28-7.87-25.78-6.93-22.28.6-29.75-7.14-3.55-8.56-3.52-11.46C279.54,114.25,317.93,105.33,317.93,105.33Z"/>
        <path class="cls-17" d="M304.17,101.38c-4.49,0-16,.36-23,7s-3.05,12.92,0,16,12.2,7.36,18.66,7.54c2.87,0,3.19-1,4-1.17a10.17,10.17,0,0,1,3.85.67,8.07,8.07,0,0,0,3.77.27c.72-.13,3.1-.36,3.86-4.93s2.51-5,3.05-6.51a33.57,33.57,0,0,1,2.07-6.14c1.88-4.36,1.61-2.11,1.25-7.59S304.17,101.38,304.17,101.38Z"/>
        <path class="cls-21" d="M322.48,115.38c-.89,2.67-2.52,6.82-3.32,8.79s-2.16,5,0,5.83a30,30,0,0,0,8.14,1.89c4,.45,7.92,2.33,10.16,3.05s5.66,4.13,4.49-3.41-5.3-17.68-8.08-20.28-5.83-5.57-8.07-5.3a3.24,3.24,0,0,0-2.88,3.23C322.92,110.17,323.1,113.47,322.48,115.38Z"/>
        <path class="cls-15" d="M282.68,106.81s-5.36-.88-7,2.28S277,120.4,277,120.4,274.81,110.84,282.68,106.81Z"/>
        <ellipse class="cls-20" cx="317.02" cy="131.59" rx="4.1" ry="2.22"/>
      </g>
      <g>
        <path class="cls-17" d="M300.76,287.21c4.13.31,12.8-.48,16.14-1.91a6.85,6.85,0,0,0,4.22-5.33c0-.79-1.36-8.19-4.85-12.56a115,115,0,0,1-8.83-12.72c-1.67-2.94-8.11-6.44-13.19-6.92s-15.83.32-17.42,3.9-3.16,13.22-1.2,18C277.88,275.19,284.35,286,300.76,287.21Z"/>
        <path class="cls-15" d="M261.2,307.16a121.92,121.92,0,0,0,27.67,0c10-1.07,17.05-1.43,16.57-5.84s-1.75-8.49-10.49-13.16-19.4-8.43-21.94-27.75c-1.59-9.62-2.27-8.94-8.11-7.51s-16.82,11.39-19.5,15.92-3.32,5.47-4.19,15.09-2.19,10.37,5,16.81S255.25,306.53,261.2,307.16Z"/>
        <path class="cls-19" d="M366,269.72h1.92s3.57,10.79,5.42,16.51,1.37,6,0,6.62-19.58,5.25-19.58,5.25l-1.43-6.36Z"/>
        <path class="cls-19" d="M279.75,271c-1.32-1.66-3.11-4.18-2.39-6.38s1.91-3,4.17-3.1a18.08,18.08,0,0,1,7.87,1.13c1.2-.06,1.2-.12.42-.6s-6.56-3.57-10.13-2.56-4.42,3.74-4.36,6.25,4.06,6.87,6.14,8.24,1.67.42,1.37,0S280.53,272,279.75,271Z"/>
        <path class="cls-21" d="M348.37,327c3.12-6,7.64-14.43,9.9-17.18s9.3-11.56,12.28-13.95,3.66-2.78,3.44-4.11a30.52,30.52,0,0,0-2-6.28c-.81-1.58-2-.62-2.77-.06s-27.66,17.88-30.53,23.29-2.54,7.16-1.74,14.63,1.72,10.75,3,12.9,1.25,2.62,1.9,2.44S347.29,329,348.37,327Z"/>
        <path class="cls-21" d="M331.32,245.51c8.35-.32,20.39,1.55,29,11.92S369,273.17,370,278.3s1.25,4.65-1.49,6.47S349.93,297,345.16,302.33c-2.33.66-6.68-.27-9.22-1.37s-8.55-4.29-10.22-6.28-1.59-8.19-1.91-14.95-7.85-12.56-10.4-18.44-2-7.47-1.13-9.54S313.79,246.18,331.32,245.51Z"/>
        <path class="cls-19" d="M325.32,277.43c.68,1.08.48,2.22,5.32,3.89s5,2.31,4.46,2.59a12.52,12.52,0,0,1-6.6-1c-1.91-1.11-6.2-2.22-5.49-11.21s1.2-5.09,1.2-5.09S323.73,274.88,325.32,277.43Z"/>
        <path class="cls-19" d="M279.33,290.35c2.87-.62,6.68-1.14,7.87-.72a30.69,30.69,0,0,0,7.57,1.37,5.33,5.33,0,0,1,4.83,2.92c.54.84,2.09.3,1.31-.71s-3.69-4.53-6.8-4.36-4-.53-7.33-.89-6.2-1.07-10.43,1.85S278.52,290.52,279.33,290.35Z"/>
      </g>
      <g>
        <path class="cls-17" d="M299.77,376.36c5.81,4.74,9.34,10.09,10.21,16.5s-.65,15.31-6.62,20.74-12.38,9.87-20.09,9.87-19.65,1.74-30.61-10.42S239.3,401,241.37,390.58s9.77-12.16,11.72-11.18a20.65,20.65,0,0,0,10.75,2.28c5.1-.33,12.81-4.32,14-7.43s4.83-5.6,9.64-4.73S299,375.75,299.77,376.36Z"/>
        <path class="cls-15" d="M267.1,370.17c-3.67.85-10.5,3.91-8.4,6.59s5.07,2.38,6.8,2.31,9.27-.8,9.48-4.82S273,368.79,267.1,370.17Z"/>
        <path class="cls-19" d="M362.13,386.74s-6.08-8.72-10-11.83-8.73-7.67-11.79-7.9-2.25,14.05-2.25,14.05,1,5.76,1.37,5.68,21.28.94,21.28.94S362.51,386.89,362.13,386.74Z"/>
        <path class="cls-19" d="M266.65,373.72a15.23,15.23,0,0,0-5.16,1.12c-2.1,1-2.35,2.47-2,2.74a5,5,0,0,0,2.81,1.54c1.78.31,8.25-.12,9.74-1s2.91-2.1,2.82-3.1c-1.74,1.44-1.48,2.49-5.07,2.45s-8.75.87-5-2.1A15.85,15.85,0,0,0,266.65,373.72Z"/>
        <path class="cls-19" d="M254.07,415.5c3.19,2.29,9.28,7,14.27,8.06a64.39,64.39,0,0,0,16,.84,10.81,10.81,0,0,0,4.92-1.84s-8,.81-9.54.59-6.13.38-9.71-.87-6.14-3.36-8.42-4.29a43.94,43.94,0,0,1-9.5-6.62c-1.9-1.9-4-3.94-4.81-4.09s-.23,1.27-.23,1.27S252.94,414.68,254.07,415.5Z"/>
        <path class="cls-21" d="M330.17,364.31c-6.4-1-14.26-1.74-17,.87s-1.55,6,1.38,8.57,4.45,5.76,9.77,7.71,12.81,2.06,17.7-1.3,8.56-5.14,6.29-7.6C345.63,369.66,340.16,365.83,330.17,364.31Z"/>
        <path class="cls-21" d="M338.31,420.11c.3-8.72-3.36-20.63-5.64-25s-3.37-10.1,0-11.07,11.79-2.95,15.38-7.6c2.39-2.69,8.07,3.69,8.07,3.69s9.55,9.23,9.44,16,.22,15-8.25,23.34-10.75,10.75-12.92,12.05S337.77,436.29,338.31,420.11Z"/>
      </g>
      <g>
        <path class="cls-15" d="M265.23,181.25s-18.29,5.88-22.48,11.59-3.93,13,2.14,13,15.7.11,23.46,1.36,8.32,1,8.32,1-11.35-8-12.48-14.48A27.46,27.46,0,0,1,265.23,181.25Z"/>
        <path class="cls-19" d="M307,179.2s10.19-1.79,10.73-1.43,8,18.64,6.15,21.85-3.48,7.19-13.11,6.23S307,179.2,307,179.2Z"/>
        <path class="cls-17" d="M303,175.63c-4.46-1.43-9.63-3.39-16-2.68s-11.51,2.5-14.36,2.68-6.51,5.26-7,8.47-.8,11.33,3.66,16.15,8.47,8.47,10.26,8.83,3.69,2.68,5,3.3a14.77,14.77,0,0,0,10.6.54c4.82-1.7,6.24.26,12.22-1.88s14.1-7.31,14.63-8.2-5.08-17.13-7.85-19.72S306.61,176.8,303,175.63Z"/>
        <path class="cls-21" d="M331.09,166.23c11.8,3.61,16.41,7.49,18.32,9s9.51,8.45,8.68,17.6-10,13.21-11.78,13-7-2.74-8.8-3-2.88-2-4.49-3.59-3.48-.36-4.37-.09a18.78,18.78,0,0,1-4.73.44c-.35-.17-4.46-12.49-6-14s-6.16-6-9.37-8.57-6.24-3.65-3.3-6.24S318.9,162.5,331.09,166.23Z"/>
        <path class="cls-19" d="M283.25,175.63s5.88,5.44,8,8.12,4.2,6.24,2.06,8.2-6.43,1.52-9.28,1.52-6.16,2.85-6.78,3.75-2.32,4.19-3.48,5.35-.2.87-.2.87a62.62,62.62,0,0,0,5.93-5.47c1.72-2,5.89-2.54,6.56-2.56s6.71,1.09,9.39-3.59S289.94,180.31,283.25,175.63Z"/>
      </g>
      <rect class="cls-1" y="0.44" width="595.28" height="39.52"/>
      <text class="cls-22" transform="translate(53 25.45)">POSTERIOR</text>
      <text class="cls-22" transform="translate(433.45 25.45)">L<tspan class="cls-23" x="10.52" y="0">A</tspan><tspan x="21.69" y="0">TERA</tspan><tspan class="cls-24" x="68.55" y="0">L</tspan></text>
    </g>
  </g>
</svg>
