<svg xmlns="http://www.w3.org/2000/svg" viewBox="0 0 625.74 517.36"><defs><style>.cls-1{font-size:16px;fill:#2d286d;font-family:Mohave-Regular, Mohave;}.cls-2{fill:#65b553;}.cls-3{fill:#d8d8d7;}.cls-18,.cls-4,.cls-9{fill:#c54950;}.cls-5{fill:#054959;}.cls-6{fill:#4d4c4c;}.cls-7{fill:#424242;}.cls-16,.cls-8{fill:#bab9aa;}.cls-9{opacity:0.4;}.cls-10{fill:#c2e3e5;}.cls-11,.cls-13{fill:#fff;}.cls-12,.cls-15{fill:#a09e8b;}.cls-13{opacity:0.27;}.cls-14,.cls-17{fill:none;}.cls-14{stroke:#ffd402;stroke-width:2px;}.cls-14,.cls-15,.cls-16,.cls-17{stroke-miterlimit:10;}.cls-15,.cls-16,.cls-17{stroke:#7f7f78;}.cls-18{opacity:0.47;}</style></defs><g id="Capa_2" data-name="Capa 2"><g id="Capa_1-2" data-name="Capa 1"><text class="cls-1" transform="translate(20.95 487.62)">TENDÓN DIRECTO / APONEUROSIS ANTERIOR</text><rect class="cls-2" x="5.74" y="474.58" width="13.3" height="13.3"/><text class="cls-1" transform="translate(20.95 510.91)">APONEUROSIS POSTERIOR</text><rect class="cls-3" x="5.74" y="497.87" width="13.3" height="13.3"/><rect class="cls-4" x="294.46" y="497.87" width="13.3" height="13.3"/><rect class="cls-5" x="294.15" y="474.58" width="13.3" height="13.3"/><rect class="cls-6" y="23.75" width="586.28" height="433.99" transform="translate(586.28 481.49) rotate(-180)"/><path class="cls-7" d="M210.75,24.09v99.67s-6.27,124.35-30.87,203.73-29,87.16-26.8,100.3,6.69,29.95,6.69,29.95H35.85s.18-38.39.4-51.55c.18-10.91-42.06-152-13.49-292.52,2.77-13.34.7-29.2-1.19-40.54s-6.35-49-6.35-49Z"/><path class="cls-8" d="M76.73,369.08c-.81-14.36-22.09-177.24-22.9-186.18s-4.07-45-14.37-54.73S31.61,103,31.88,97s-.54-10,6.77-18.13,13.18-3.19,20.87-1.38c8.39,2,12.85.34,18.15-4.07,6-5.18,6.45-7.94,6.45-7.94,5.75,2,22.09,9.6,28.48,15.1a87.55,87.55,0,0,1,11.45,12.29c-2.23.61-10.82.06-16.3,1.28-10.77,6.71-18.7,22-19.11,23.17,1,.51,5.69,2.34,8.48,5s2.7,4.37,2.29,6.4-3.65,5.69-7.31,11.79-5.3,162.7,2,218.18Z"/><path id="VE" class="cls-9" d="M59.8,119s.6-17.55-5-24.69-9.3-5.65-9.59-5.13-3.43,6.62-5,7.51-4.83,4.24-5,6.25,8,39-10.48,86,3,127.6,6.72,149.91,12.91,72,23.91,87.45,7.44,26.33,7.44,26.33H89.55Z"/><path class="cls-10" d="M84.89,63.19s-.4-7.73.94-12a16.33,16.33,0,0,1,7.88-9.37c3-1.33,43.28,29.6,43.28,29.6s-.4,23.4-13.14,21.44c-3.07-5.53-10.21-13.56-10.21-13.56l-10.71-7-11-4.93Z"/><path class="cls-11" d="M112.4,80.52a86.85,86.85,0,0,1,11.45,12.29s.67-1-.3-3.52-9.29-11.31-14-14.8c-7.39-5.49-24.69-11.3-24.69-11.3l-.77,2.3C90,67.62,106.08,75.08,112.4,80.52Z"/><path class="cls-8" d="M197.31,109.4c.15-1.48-3.13-3.12-6.55-6a10.45,10.45,0,0,0-2.79-1.58c-15.91,16.55-10.25,18.85-20.41,15.17-13.68-5-12.56-17.75-12.64-20.5,0-1.22.15-4,.37-6.79-6.38-2-12.7-4-20.3-8.75a48.77,48.77,0,0,1-7.19-5.41h0s-5.74,23,2.78,37.11C136.21,122,155.48,144.62,173,138c4.65-1.77,11.77-11.22,25.46-13.41,1.89-2.83.3-7.75,1.41-11.89C199.39,113,197.16,110.89,197.31,109.4Z"/><path id="VI" class="cls-9" d="M90.92,175.62s35.51,67.52,44,100.69,13.86,55.21,14.28,79.71,3.71,75.85-6.7,89.53A87.48,87.48,0,0,1,132,457H104.39L89.55,418.48l-1.94-84.77Z"/><path class="cls-3" d="M65.49,353.53c.23,1.7,12.21,43.27,12.21,65.36,0,13.5-4.11,19.82-10.26,26.36.2,4,40.33,4.17,40.33,4.17V447s-6.07-18.92-7.08-28.63c-2.35-22.68.26-28.06,1.8-70.22l-8,26.41"/><path class="cls-4" d="M78.26,379.41s7.46,9,15.85.38,17.59-41.6,17.68-51.82c.65-73,8.79-95.63-12.57-169.75-.71-2.44-6.25-18-7.89-25.43-10.21,13.93-13,25.53-15,37s4.54,106.49,4.54,106.49c-5.94-75.85-9.51-85.37-13.08-99.05s-8.08-26-8.5-44.47c-10.11,13.39-12.9,94.06-9.92,119.34s3.79,35.58,8.75,68.73,14.66,54.36,20.08,58.43"/><path class="cls-12" d="M111.56,457a18.86,18.86,0,0,0-9.77-14c-9-4.76-25.63-1.93-27.91-1.14s-5.82,1.14-8.42,4.79C63.11,450,61.53,457,61.53,457Z"/><path id="SA" class="cls-13" d="M132.08,303.37c-4.66-13.82-11.42-34.45-20.52-65.43-11.84-40.31-18.14-64.55-26.73-90S64.86,71.67,64,56.5s-5.8-31.23-5.8-31.23h23c13.58,26,18.76,43.85,20.67,67.66s10.66,62.61,35.2,154.23a397.72,397.72,0,0,1,10.59,55.2S155,365,151.71,395.58s-.29,47.89,2.68,61.42h-7.73s-3-42.38-2.09-65.29S137.58,319.66,132.08,303.37Z"/><path class="cls-12" d="M84.79,25.27a73.82,73.82,0,0,1,3.72,10.85c.89,4.32,6.39,12.05,12,14.87a64.22,64.22,0,0,1,17,12.35c4.61,4.91,7,11,17.7,17.7s18.88,7.88,28.25,11.45,11.45,3.86,14.87,6.1,9.23,2.08,12.65,4.9,6.69,4.46,6.54,6,2.08,3.57,2.53,3.27,6.54-8.92,3-21.41c0,0-29.89-1.34-41-14.13S148.37,54.12,144.46,47s-6.58-11.3-8.66-21.71Z"/><path class="cls-5" d="M94.12,45.76s-13.43,5.89-17.39,15-9,34.33-9.44,40.15c-1.22,14.55,0,43.89,0,43.89L80.7,157.87S83.4,82,84.83,75.59,94.76,51.43,100.55,51c5.73-1.44-2.46-8.11-2.46-8.11Z"/><path class="cls-2" d="M63.18,122.37s7.4-17.37,8.58-21.66C79.82,71.45,79.33,57,79.61,50.37a105.39,105.39,0,0,0-1.87-26.28l13.64,1.18,2.74,4c-7.59,5-4.57,35.58-4.57,60.51,0,17.6,3.43,43,3.43,43,1.69,21.88-1.53,61.31-8.15,73.58C77.74,219.52,81.07,279,81.07,279c-4.18-48.07-4.3-58-16-78.46-11.54-20.24-8.56-51.84-5.75-67.77Z"/><line class="cls-14" x1="230.22" y1="140.68" x2="7.39" y2="140.68"/><line class="cls-14" x1="230.22" y1="100.08" x2="7.39" y2="100.08"/><line class="cls-14" x1="230.22" y1="186.29" x2="7.39" y2="186.29"/><line class="cls-14" x1="230.22" y1="232.7" x2="7.39" y2="232.7"/><line class="cls-14" x1="230.22" y1="279.1" x2="7.39" y2="279.1"/><line class="cls-14" x1="230.22" y1="330.88" x2="7.39" y2="330.88"/><line class="cls-14" x1="230.22" y1="372.77" x2="7.39" y2="372.77"/><path class="cls-4" d="M269.23,135.93c0,6.64,11.51,9.79,25.71,9.79s27.22-1.52,27.22-8.15-13-15.88-27.22-15.88S269.23,129.3,269.23,135.93Z"/><path class="cls-5" d="M315.6,129.63s1.77,1.25,2,2.54.3,3.73-.34,4.69c-1,1.57-3.26,2.79-6.39,1.7s-2.79-3.4-1.57-3,4.83,1.63,5.52.34a6.29,6.29,0,0,0,.06-5.31C314,128.7,315.6,129.63,315.6,129.63Z"/><path class="cls-2" d="M316.81,129.22s-1.27-2-6.31-4.22a38.68,38.68,0,0,0-14.81-3.44,70.91,70.91,0,0,0-14,1.81,25.32,25.32,0,0,0-6.66,3.4,9.68,9.68,0,0,0-2.61,2.87,5,5,0,0,0,2.44-1.09c4.21-3.38,12.61-3.08,18.92-3.33,8.62-.36,12.1.55,21,3.5A14.34,14.34,0,0,0,316.81,129.22Z"/><path class="cls-4" d="M278.29,95.89c0,4.36,7.58,6.43,16.92,6.43s17.9-1,17.9-5.36-8.56-10.44-17.9-10.44S278.29,91.52,278.29,95.89Z"/><path class="cls-2" d="M310.2,91.48s-.86-1.35-4.23-2.78A26.51,26.51,0,0,0,296,86.43a48.3,48.3,0,0,0-9.42,1.2,17.11,17.11,0,0,0-4.47,2.23A21.87,21.87,0,0,0,279,93.44c0,.09,3.34-1.29,4.15-1.46,10.46-2.3,10.38,1.91,11.8,2.1,2.94-1.16,9.51-3.7,13.84-2.94A13.22,13.22,0,0,1,310.2,91.48Z"/><path class="cls-5" d="M308.54,91.05s2.25.5,3,1.65,1.78,3.52,1.54,4.72c-.39,1.94-2.13,4-5.67,4.25s-8.79,1-9.85.09c-2.58-2.09-2.87-5.79-2.71-7.33s3.55-3.12,8.32-3.83A16.64,16.64,0,0,1,308.54,91.05Z"/><path class="cls-4" d="M252.37,186.28c0,11.83,17.64,17.44,39.39,17.44s41.69-2.7,41.69-14.53-19.93-28.31-41.69-28.31S252.37,174.45,252.37,186.28Z"/><path class="cls-5" d="M306.34,165.12a9.87,9.87,0,0,1,4,3.58c1.23,2.29,3,6.89,3.08,9.1.08,3.57-1.36,7.23-5.42,7s-5.39-4.78-3.82-4.74,6.23.2,6-2.65a21.2,21.2,0,0,0-3.81-10.09C304,164.29,306.34,165.12,306.34,165.12Z"/><path class="cls-2" d="M318.7,169.17s-1.87-1.71-8.08-4.54-12.85-4.53-18.24-4.47-14.79,1.47-17.3,2.35-6.71,3-8.22,4.42-2.93,1.2-3.65,2.7c-.09.19,2.25.61,3.44-.39,5.2-4.39,15.54-7.26,23.32-7.59,10.63-.46,19,3.86,25.9,7.8C317,170.12,318.7,169.17,318.7,169.17Z"/><path class="cls-3" d="M261.5,343.46s1.71,2.43,8,3.59a61.59,61.59,0,0,0,18.25.8,116.62,116.62,0,0,0,16.75-3.71,35.46,35.46,0,0,0,7.67-4c1.36-1.14,3-2.35,2.14-3.26S261.5,343.46,261.5,343.46Z"/><path class="cls-4" d="M256,337.65c.92,7.35,14.28,9.85,31.17,7.74s31.2-8.05,30.29-15.4-16.38-12.54-33.26-10.43S255.08,330.3,256,337.65Z"/><path class="cls-3" d="M261,288.63s1.74,3.08,8.08,4.83a51,51,0,0,0,18.32,1.87c5.29-.62,14.38-2.8,16.77-3.81a32.1,32.1,0,0,0,7.66-4.6c1.35-1.35,2.95-2.78,2.12-3.95S261,288.63,261,288.63Z"/><path class="cls-4" d="M255.4,281.15c1,9.17,14.4,12.9,31.32,11.1S318,283.74,317,274.57,300.45,258.22,283.53,260,254.42,272,255.4,281.15Z"/><path class="cls-5" d="M287.79,268.49s1.31.52,2.41.87,1.43,2.93,2,3.77c1,1.37,1.9,4.71.22,6.43s-1.54-.42-.9-1.11a3.88,3.88,0,0,0-.1-4c-.85-1-1-4.11-2.77-4.29A1,1,0,0,1,287.79,268.49Z"/><path class="cls-3" d="M268.65,384.89s-.92,1.68,4.41,2.78,13.87-1.85,18.31-2.44,12.82.15,14.92-.34c4.95-1.15,7.53-2.91,8.66-3.93s.25-1.72-.45-2.55S268.65,384.89,268.65,384.89Z"/><path class="cls-4" d="M266.3,382.86c.83,6.64,10.59,2,24.79.19s27.74,0,26.91-6.63-13.89-11.44-28.09-9.67S265.47,376.23,266.3,382.86Z"/><path class="cls-7" d="M390.91,24,371.07,144.41s1,114.64,13.93,217.66c3.09,27.9,9.84,47.42,6.33,61.09-8.64,33.67,3.7,50.47,11.77,50.47,17.42,0,11.74,1.48,11.74,1.48H521.11s2,4.31,3.93-9.48c1.63-11.43,49.22-150,43.11-301.19-.65-14.36,14.09-20,29.82-37.63C619.16,103,625.74,24,625.74,24Z"/><path class="cls-15" d="M407.68,440.74c1.14,5.09,4.66,17,6.16,19.69s5.53,8.29,8.49,8.2,6.77-1.8,3.29-9.05a31.55,31.55,0,0,1-1.28-23s5.79-14-1.35-13.7-11.08,3.16-13,6A14.05,14.05,0,0,0,407.68,440.74Z"/><path class="cls-16" d="M609,24.68c-.67.62-2.31,4.73-13.23,4.65-6.92,0-12.26,6.9-13.6,8.61s-6.87,7.6-10.31,8.53-8.88,4.26-21.87,4-15.08-1.24-15.08-1.24l4.39-2.79s-7.64,3.25-8.4,8.84-4.78,13.8,3.81,20.93,8.41,8.06,8,9.15-.58,5.89-4,5.89-5.16,1.55-5.73,4.18-2.68,7.6,1.33,12.1,8.21,14.57,3.82,20.15-11.31,10.82-23.77,6.17S500,125,499.45,123.33s2.58-12.21.72-14-2.87-8.61-5.16-9.19-7-1.63-6.87-4.54S492,93.1,492.29,83.1s.14-19.77-9.88-24.19-22.2-6.28-27.79-2.44-7.73,10.69-7.73,10.69l-1.58,5.12a81.71,81.71,0,0,0-1.24-11.07c-.79-4.79-10.38-5.83-10.38-16.29,0-3.14,4-8.77,5-11.49,1-3,3.35-4.5,1.81-9.41"/><path class="cls-16" d="M490.43,470.8c5-.47,2.86.22,6.12-1.9a11.75,11.75,0,0,0,5.13-6.13c4.59-10.23-1.52-21.38-3.08-22.38-7.2-4.63-15.43-6.35-19-13-.88-1.63-.46,4-8.86-40.94s-7.3-188.23-1.93-213.66,8.76-26.51,14.77-29.88,6.59-11.52,5.3-14-2.43-2.32-3-4.65,1.44-10.46,2.3-15.7a67.42,67.42,0,0,0-.29-25.23c1.72-8.26.57-20-10-23.72S457.91,55.54,454.76,58s-11.17,9.3-9.31,18.25c-2,2.33-6,7.21-4.58,12.8s5.83,19.3,5.87,28.37c.06,11.64-1.14,28.84-3.43,38.14s-9.17,40.94-9.17,55.12-3.15,83-2.58,94,2.29,60,2.87,74.66.85,60.23-1.72,64-4.59,7.9-4.59,11.62,7,13.49,9.37,14.42,6.87,2.6,9.59,2.49c3-.13,5.27.64,6.78.73,18,1.13,17.65,1.14,18.19,1.13C480.29,473.34,478.5,471.89,490.43,470.8Z"/><path class="cls-17" d="M445.45,76.23a19.77,19.77,0,0,1,11.32-5.5c6.68-.62,17-.15,19.86,1.4s10.91,4.66,11.76,7.44"/><path class="cls-17" d="M434.72,42.79a19.72,19.72,0,0,1,10.46-7c6.54-1.52,16.66-1.9,19.87-1.31,5.66,1,10.93,1.1,17,4.53,6.24,3.54,8.49,12.44,8.49,12.44"/><path class="cls-17" d="M474.68,152s2.14-11.9,4.15-16.37"/><rect class="cls-11" x="380.32" y="457.74" width="189.84" height="49.78" transform="translate(950.47 965.25) rotate(-180)"/><rect class="cls-11" x="579.79" width="45.96" height="471.85" transform="translate(1205.53 471.85) rotate(-180)"/><path class="cls-4" d="M427.65,56.39s8.23,26.26,5.46,38.12S426.9,121.28,423,161.6,414.56,300,413,329.36c-1.77,33.17-5.87,40.06-1.68,52.68s-4.86,9-4.86,9-8.65-16.32-10-34.27S386,291,386.9,275.58,379,167.61,384.36,148,401.64,36.8,427.65,56.39Z"/><path class="cls-5" d="M457.72,53.54c-7.25.6-21.59-9.53-30.07,2.85s-27.78,94.2-26,125.23,2.26,74.36,2.84,99.13c-6.42-13.27-12.3-61.55-13.3-96.66s2.25-80.78,16.17-106.75S432.09,34,451.48,37.19,457.72,53.54,457.72,53.54Z"/><path class="cls-18" d="M427.65,56.39s8.23,26.26,5.46,38.12S426.9,121.28,423,161.6,414.56,300,413,329.36c-1.77,33.17-5.87,40.06-1.68,52.68s-4.86,9-4.86,9-8.65-16.32-10-34.27S386,291,386.9,275.58,379,167.61,384.36,148,405.77,35.85,427.65,56.39Z"/><path class="cls-2" d="M432.45,24C430,30.58,417.84,44.46,412.4,53.47c-3.55,5.88-19.91,30.68-23.84,53.4s-5.32,54.58-4.62,77.3.56-9.24,3.88-38.94,9.13-64.9,50.84-111.8C445.46,21.26,432.45,24,432.45,24Z"/><path class="cls-3" d="M409.62,367.15c.13-.62.34,1.27.23,1.89-1.43,8.46,14.1,53.14,16.69,55.32,3.35,2.82-2.81-3.83-10.6-.77-3.36,1.32-8.69,8.72-8.69,8.72s3.43-17.91,0-29.36c-5.3-17.65-10.05-40.08-10.05-40.08s2.95,7.45,5.9,8.4C404.63,371.77,408.42,373.08,409.62,367.15Z"/><path class="cls-3" d="M407.25,330.91c1.91-42.78,7-85.89,8.21-91.39a37.38,37.38,0,0,1,2.71-8.32c-.75,41.1-4,121.15-6,134.28l-.87,7.33s-.69,9.11,0,11.36-5.2-8.45-5.2-8.45l-1.53-4.51s1.07-5.17,2.07-11.93S407.25,330.91,407.25,330.91Z"/><text class="cls-1" transform="translate(309.36 487.62)">TENDÓN INDIRECTO / SEPTUM CENTRAL</text><text class="cls-1" transform="translate(309.67 510.91)">MÚSCULO</text><path class="cls-3" d="M255.5,239.64s0,3.39,7.08,6,15.73,3.66,22,4,17.82.41,20.79-.09a43.59,43.59,0,0,0,9.79-2.83c1.83-1,3.95-2,3.2-3.19S255.5,239.64,255.5,239.64Z"/><path class="cls-4" d="M253.66,234.3c0,9.47,15.79,14,35.26,14s37.32-2.16,37.32-11.63S308.4,214,288.92,214,253.66,224.84,253.66,234.3Z"/><path class="cls-2" d="M305.39,216.91s-1-.84-4.77-1.73a49.92,49.92,0,0,0-11.19-1.42,97.15,97.15,0,0,0-10.61.74,28.62,28.62,0,0,0-5,1.4c-.92.45-2,.63-2.44,1.11a12.17,12.17,0,0,0,3.32,0,53.14,53.14,0,0,1,13-1.89,68.24,68.24,0,0,1,16.17,1.57C304.58,216.84,305.39,216.91,305.39,216.91Z"/><path class="cls-5" d="M297.16,222.47a16.51,16.51,0,0,1,4.79,1.79c1.75,1.16,2.12,4.29,2.75,5.94,1,2.69,1.41,9.64-2.42,11.39s-4.08-1.71-2.61-2.42,3.57-5.37,2.59-7.43-1.39-5.38-4.36-6.64S297.16,222.47,297.16,222.47Z"/></g></g></svg>